<?xml version="1.0" encoding="utf-8"?>
<!-- Generator: Adobe Illustrator 25.0.1, SVG Export Plug-In . SVG Version: 6.00 Build 0)  -->
<svg version="1.1" id="Layer_1" xmlns="http://www.w3.org/2000/svg" xmlns:xlink="http://www.w3.org/1999/xlink" x="0px" y="0px"
	 viewBox="0 0 2500 970" style="enable-background:new 0 0 2500 970;" xml:space="preserve">
<style type="text/css">
	.st0{fill:#FFFFFF;}
</style>
<path class="st0" d="M789.6,360.1c-49.4,0-62.9,67.4-62.9,155c0,85.3,22.5,155,67.4,155c51.6,0,65.1-67.4,65.1-155
	C859.2,429.7,836.7,360.1,789.6,360.1z M789.6,360.1c-49.4,0-62.9,67.4-62.9,155c0,85.3,22.5,155,67.4,155
	c51.6,0,65.1-67.4,65.1-155C859.2,429.7,836.7,360.1,789.6,360.1z M789.6,360.1c-49.4,0-62.9,67.4-62.9,155
	c0,85.3,22.5,155,67.4,155c51.6,0,65.1-67.4,65.1-155C859.2,429.7,836.7,360.1,789.6,360.1z M1416.2,378c-11.2,0-20.2,2.2-33.7,6.8
	c-2.2,116.8,0,249.3,2.3,280.7c6.7,2.2,18,2.2,26.9,2.2c47.2,0,80.9-69.6,80.9-159.5C1492.6,436.4,1465.6,378,1416.2,378z
	 M1791.2,360.1c-38.2,0-58.4,62.9-60.6,114.5l105.6-2.3C1836.2,427.5,1829.4,360.1,1791.2,360.1z M1791.2,360.1
	c-38.2,0-58.4,62.9-60.6,114.5l105.6-2.3C1836.2,427.5,1829.4,360.1,1791.2,360.1z M1416.2,378c-11.2,0-20.2,2.2-33.7,6.8
	c-2.2,116.8,0,249.3,2.3,280.7c6.7,2.2,18,2.2,26.9,2.2c47.2,0,80.9-69.6,80.9-159.5C1492.6,436.4,1465.6,378,1416.2,378z
	 M789.6,360.1c-49.4,0-62.9,67.4-62.9,155c0,85.3,22.5,155,67.4,155c51.6,0,65.1-67.4,65.1-155C859.2,429.7,836.7,360.1,789.6,360.1
	z M0,0.2v969.6h2500V0.2H0z M504.3,434.2c33.7,0,49.4-26.9,56.2-65.1h20.2v159.4h-20.2c-6.7-38.2-22.5-65.1-56.2-65.1l-53.9-2.2
	c0,58.4,2.2,105.5,4.5,134.8c4.5,42.7,15.7,62.9,44.9,65.1l27,4.5v18H273v-18l22.5-4.5c29.2-2.2,40.4-22.4,44.9-65.1
	c4.5-69.6,6.8-215.6,0-296.5c-4.5-42.7-15.7-60.6-44.9-65.1l-22.5-2.2v-20.2h395.3l2.2,132.5l-22.5,6.7
	c-22.5-67.4-53.9-105.6-114.5-105.6h-78.6c-2.3,42.7-4.5,114.5-4.5,190.9L504.3,434.2z M789.6,692.5
	c-112.3,0-168.4-76.4-168.4-177.5c0-96.6,62.9-177.4,175.2-177.4c112.3,0,168.5,76.4,168.5,177.4
	C964.8,611.6,901.9,692.5,789.6,692.5z M1220.8,438.7c-44.9-29.2-94.3-15.7-105.5,0c-2.3,53.9-2.3,139.2,2.2,181.9
	c2.2,26.9,9,40.4,31.4,42.6l27,2.3v18H967v-18l15.7-2.3c20.2-2.2,29.2-15.7,31.5-42.6c2.2-47.2,4.5-141.5,0-195.4
	c-2.3-29.2-11.2-40.4-31.5-42.7l-15.7-2.2v-13.5l150.5-29.2l-2.2,78.6c35.9-80.9,103.3-92.1,141.5-69.6L1220.8,438.7z M1407.2,692.5
	c-42.7,0-85.4-6.7-125.8-15.7c2.2-47.2,4.5-334.7,0-388.5c-4.4-27-11.2-38.2-31.4-42.7l-15.7-2.2v-13.5l150.5-26.9
	c-2.3,22.5-2.3,87.6-2.3,159.4c24.7-13.5,49.4-20.2,80.8-20.2c76.4,0,134.8,67.4,134.8,159.5
	C1598.1,618.4,1526.2,692.5,1407.2,692.5z M1849.6,643.1c35.9,0,53.9-9,76.4-24.7l9,11.2c-22.5,31.4-71.9,62.9-134.7,62.9
	c-101.1,0-172.9-71.9-172.9-175.2c0-92.1,58.4-179.7,172.9-179.7c94.3,0,139.2,69.6,139.2,161.7h-208.9
	C1728.3,582.4,1768.8,643.1,1849.6,643.1z M2083.3,692.5c-42.7,0-92.1-9-119-20.2l-2.3-98.8l15.7-4.5c24.7,67.4,56.2,92.1,98.8,92.1
	c35.9,0,56.2-24.7,56.2-51.6s-15.7-42.7-71.9-62.9c-54-18-92.1-42.7-92.1-101.1c0-58.4,51.7-107.8,134.8-107.8
	c40.4,0,76.4,6.7,103.3,18l2.3,87.6l-15.7,4.5c-20.2-60.6-47.2-85.3-87.6-85.3c-26.9,0-47.2,20.2-47.2,49.4
	c0,29.2,22.4,44.9,85.3,69.6c58.4,22.5,83.1,49.4,83.1,96.6C2227,647.5,2170.9,692.5,2083.3,692.5z M1791.2,360.1
	c-38.2,0-58.4,62.9-60.6,114.5l105.6-2.3C1836.2,427.5,1829.4,360.1,1791.2,360.1z M1416.2,378c-11.2,0-20.2,2.2-33.7,6.8
	c-2.2,116.8,0,249.3,2.3,280.7c6.7,2.2,18,2.2,26.9,2.2c47.2,0,80.9-69.6,80.9-159.5C1492.6,436.4,1465.6,378,1416.2,378z
	 M789.6,360.1c-49.4,0-62.9,67.4-62.9,155c0,85.3,22.5,155,67.4,155c51.6,0,65.1-67.4,65.1-155C859.2,429.7,836.7,360.1,789.6,360.1
	z M789.6,360.1c-49.4,0-62.9,67.4-62.9,155c0,85.3,22.5,155,67.4,155c51.6,0,65.1-67.4,65.1-155
	C859.2,429.7,836.7,360.1,789.6,360.1z M1416.2,378c-11.2,0-20.2,2.2-33.7,6.8c-2.2,116.8,0,249.3,2.3,280.7
	c6.7,2.2,18,2.2,26.9,2.2c47.2,0,80.9-69.6,80.9-159.5C1492.6,436.4,1465.6,378,1416.2,378z M1416.2,378c-11.2,0-20.2,2.2-33.7,6.8
	c-2.2,116.8,0,249.3,2.3,280.7c6.7,2.2,18,2.2,26.9,2.2c47.2,0,80.9-69.6,80.9-159.5C1492.6,436.4,1465.6,378,1416.2,378z
	 M789.6,360.1c-49.4,0-62.9,67.4-62.9,155c0,85.3,22.5,155,67.4,155c51.6,0,65.1-67.4,65.1-155C859.2,429.7,836.7,360.1,789.6,360.1
	z M789.6,360.1c-49.4,0-62.9,67.4-62.9,155c0,85.3,22.5,155,67.4,155c51.6,0,65.1-67.4,65.1-155
	C859.2,429.7,836.7,360.1,789.6,360.1z M789.6,360.1c-49.4,0-62.9,67.4-62.9,155c0,85.3,22.5,155,67.4,155
	c51.6,0,65.1-67.4,65.1-155C859.2,429.7,836.7,360.1,789.6,360.1z"/>
</svg>
