<?xml version="1.0" encoding="utf-8"?>
<!-- Generator: Adobe Illustrator 25.0.1, SVG Export Plug-In . SVG Version: 6.00 Build 0)  -->
<svg version="1.1" id="Layer_1" xmlns="http://www.w3.org/2000/svg" xmlns:xlink="http://www.w3.org/1999/xlink" x="0px" y="0px"
	 viewBox="0 0 2349.9 772.3" style="enable-background:new 0 0 2349.9 772.3;" xml:space="preserve">
<style type="text/css">
	.st0{fill:#FFFFFF;}
</style>
<path class="st0" d="M533.9,411.7l41-21.2V68.3h-31l-75.7,100.4h-8.5l4.8-112.9h328.2l4.8,113h-9.1L714.2,68.4h-31.9v321.3
	l41.2,21.8v10.9H533.9V411.7z M829.4,397.5V40.6l-31.9-12.8v-6.6L912.5,0h12.6v169.4l2.7-2.7c27.5-23.4,62.4-36.4,98.6-36.6
	c50.4,0,72.6,28.5,72.6,81.4v185.9l26.9,14.7v10.2H975.5v-10.2l27-14.7V210.9c0-29.2-12.8-40.8-36.6-40.8
	c-14.4-0.3-28.5,4.3-39.8,13.1V398l26.5,14.7v9.7H802.2v-9.7L829.4,397.5z M1207.7,287.9c3.1,59,29.6,104.6,92.2,104.6
	c30.3,0,51.8-14,71.7-24.7v11.6c-27.1,33.1-67.8,52-110.6,51.5c-97.1,0-146.6-54-146.6-147.4c0-91.3,54.3-148.2,141.9-148.2
	c82.5,0,125.3,41.2,125.3,149.8v2.8H1207.7z M1206.1,274.2l85.6-5.2c0-73.1-12.5-121.6-37.6-121.6
	C1227.3,147.5,1206.1,203.9,1206.1,274.2L1206.1,274.2z M0,565.3C0,410,102.8,354.7,217.3,354.7c48.6,0,94.4,8,120.1,18.4l2.2,108.4
	h-10.9l-67.2-104.9c-13.5-5.4-28-7.7-42.6-6.9c-60.9,0-92,70.4-91,185.7c1.1,137.9,25.1,200.7,81,200.7c11.4,0.4,22.8-1.5,33.5-5.6
	V602.7l-36.9-21v-12.6h178.2v13.2l-36.3,20.3v145.8c-43.2,15.3-88.8,23.1-134.7,22.9C82.6,771.4,0,711.1,0,565.3 M367.2,492.8v-9
	l119.5-21.1l13.2,1.1V700c0,28.5,13.7,37.2,36.7,37.2c15.1,0.2,29.4-6.5,38.9-18.3V507l-32.8-14.3v-9.2l119.5-21.1l12,1.1v271
	l32.3,13.5v8.6L589.3,771l-12-1.1v-35.6H574c-24.1,23.5-56.2,37-89.8,37.8c-57.5,0-83.8-33.9-83.8-85.4V507L367.2,492.8z
	 M1118.5,462.2l9.9,1.1V551h2.7c12.8-63.8,41-87.7,75.5-87.7c5-0.2,10,0.5,14.7,2.2v88.8c-8.1-1.7-16.4-2.4-24.6-2.2
	c-22.4-0.6-44.7,3.9-65.2,13V738l27.3,15.1V765h-155.4v-11.8l28-15.2V502l-32.8-9.8v-8L1118.5,462.2z M1419.2,469.6v-92.2
	l-32.8-11.5v-7.3l121-22.2l11.5,1.7v396l33.4,12.1v10.2l-119.5,15.9l-9.3-1.1v-32.6h-2.7c-20.7,21.9-49.6,34-79.7,33.4
	c-65.2,0-112.8-49.8-112.8-151.4c0-107.3,55.3-160.1,139.1-160.1C1385,459.6,1402.8,462.7,1419.2,469.6L1419.2,469.6z M1419.2,723.2
	V486.1c-9.2-7.8-21.1-11.5-33.1-10.3c-32.4,1.1-52.4,50-52.4,137.1c0,78.3,14.3,122.1,57.5,120.6
	C1401.5,733.6,1411.4,729.9,1419.2,723.2z M1683.3,462.2l10.4,1.1V738l27.3,15.1V765h-155.4v-11.8l27.9-15.2V506.4l-33.4-13.2V484
	L1683.3,462.2z M1694.2,387.9c-0.9,28.5-24.6,50.9-53.1,50.4c-18.8,0.7-36.5-8.9-46.1-25s-9.6-36.3,0-52.4s27.3-25.7,46.1-25
	c28.9-0.4,52.7,22.8,53.1,51.7V387.9z M2043.2,738V503.9l-32.8-11.5v-11.3l119.5-22.2l12,1.1v35.1h3.3
	c28.4-24.3,64.5-37.7,101.9-37.8c52,0,75,24.6,75,79.7v200.6l27.9,15.9v11.6h-155.6v-11.8l27.9-15.2V541.9
	c0-30.1-13.2-42.2-37.8-42.2c-14.8-0.4-29.2,4.2-41,13.1V738l27.4,15.1v12h-155.5v-11.8L2043.2,738z M1874.1,590.9v-39.3
	c0-59.1-12.9-78.5-49.5-78.5c-4.1,0.1-8.3,0.5-12.4,1.1l-65.1,88.2h-9.2v-81.3c35.2-12.1,72.1-18.5,109.3-19
	c79.7,0,125.8,22.1,125.8,88.8v191.3l28.5,7.5v7.5c-18.1,9.3-38.3,13.9-58.7,13.5c-39.3,0-58.1-12.9-66.7-34.4h-2.8
	c-16.7,22.6-40.3,35.5-77.5,35.5c-47.3,0-79.7-29.6-79.7-80.6c0-49.5,30.7-76.3,93.1-88.2L1874.1,590.9z M1874.1,723.2V604.9
	l-19.9,1.6c-31.2,2.7-42.5,22.6-42.5,66.7c0,47.8,15.9,60.2,37.6,60.2C1858.7,734.3,1868,730.5,1874.1,723.2z M865.1,590.9v-39.3
	c0-59.1-12.9-78.5-49.5-78.5c-4.1,0.1-8.3,0.5-12.4,1.1l-65.1,88.1H729v-81.2c35.2-12.1,72-18.5,109.2-19
	c79.7,0,125.8,22.1,125.8,88.8v191.3l28.5,7.5v7.5c-18.1,9.3-38.3,13.9-58.7,13.5c-39.3,0-58.1-12.9-66.7-34.4h-2.7
	c-16.7,22.6-40.3,35.5-77.5,35.5c-47.3,0-79.7-29.6-79.7-80.6c0-49.5,30.7-76.3,93.1-88.2L865.1,590.9z M865.1,723.2V604.9
	l-19.9,1.6c-31.2,2.7-42.5,22.6-42.5,66.7c0,47.8,15.9,60.2,37.6,60.2C849.7,734.3,859,730.5,865.1,723.2"/>
</svg>
