<svg id="Layer_1" data-name="Layer 1" xmlns="http://www.w3.org/2000/svg" viewBox="0 0 1350 900"><defs><style>.cls-1{fill:#f76003;}.cls-2{fill:#fff;}.cls-3{fill:#007800;}.cls-4{fill:#008;}</style></defs><rect class="cls-1" width="1350" height="900"/><rect class="cls-2" y="300" width="1350" height="300"/><rect class="cls-3" y="600" width="1350" height="300"/><circle class="cls-4" cx="675" cy="450" r="120"/><circle class="cls-2" cx="675" cy="450" r="105"/><circle class="cls-4" cx="675" cy="450" r="21"/><g id="d"><g id="c"><g id="b"><g id="a"><circle class="cls-4" cx="779.1" cy="463.71" r="5.25"/><path class="cls-4" d="M675,555l3.6-63L675,462l-3.6,30Z"/></g><g id="a-2" data-name="a"><circle class="cls-4" cx="772.01" cy="490.18" r="5.25"/><path class="cls-4" d="M647.82,551.42l19.79-59.92,4.28-29.91-11.24,28.05Z"/></g></g><g id="b-2" data-name="b"><g id="a-3" data-name="a"><circle class="cls-4" cx="758.3" cy="513.92" r="5.25"/><path class="cls-4" d="M622.5,540.93l34.62-52.76L669,460.39l-18.12,24.18Z"/></g><g id="a-4" data-name="a"><circle class="cls-4" cx="738.92" cy="533.3" r="5.25"/><path class="cls-4" d="M600.75,524.25l47.1-42,18.66-23.75-23.75,18.66Z"/></g></g></g><g id="c-2" data-name="c"><g id="b-3" data-name="b"><g id="a-5" data-name="a"><circle class="cls-4" cx="715.18" cy="547.01" r="5.25"/><path class="cls-4" d="M584.07,502.5l56.36-28.38L664.61,456l-27.78,11.88Z"/></g><g id="a-6" data-name="a"><circle class="cls-4" cx="688.71" cy="554.1" r="5.25"/><path class="cls-4" d="M573.58,477.18l61.78-12.83,28-11.24-29.91,4.28Z"/></g></g><g id="b-4" data-name="b"><g id="a-7" data-name="a"><circle class="cls-4" cx="661.29" cy="554.1" r="5.25"/><path class="cls-4" d="M570,450l63,3.6,30-3.6-30-3.6Z"/></g><g id="a-8" data-name="a"><circle class="cls-4" cx="634.82" cy="547.01" r="5.25"/><path class="cls-4" d="M573.58,422.82l59.92,19.79,29.91,4.28-28-11.24Z"/></g></g></g></g><g id="d-2" data-name="d"><g id="c-3" data-name="c"><g id="b-5" data-name="b"><g id="a-9" data-name="a"><circle class="cls-4" cx="611.08" cy="533.3" r="5.25"/><path class="cls-4" d="M584.07,397.5l52.76,34.62L664.61,444l-24.18-18.12Z"/></g><g id="a-10" data-name="a"><circle class="cls-4" cx="591.7" cy="513.92" r="5.25"/><path class="cls-4" d="M600.75,375.75l42,47.1,23.75,18.66-18.66-23.75Z"/></g></g><g id="b-6" data-name="b"><g id="a-11" data-name="a"><circle class="cls-4" cx="577.99" cy="490.18" r="5.25"/><path class="cls-4" d="M622.5,359.07l28.38,56.36L669,439.61l-11.88-27.78Z"/></g><g id="a-12" data-name="a"><circle class="cls-4" cx="570.9" cy="463.71" r="5.25"/><path class="cls-4" d="M647.82,348.58l12.83,61.78,11.24,28.05-4.28-29.91Z"/></g></g></g><g id="c-4" data-name="c"><g id="b-7" data-name="b"><g id="a-13" data-name="a"><circle class="cls-4" cx="570.9" cy="436.29" r="5.25"/><path class="cls-4" d="M675,345l-3.6,63,3.6,30,3.6-30Z"/></g><g id="a-14" data-name="a"><circle class="cls-4" cx="577.99" cy="409.82" r="5.25"/><path class="cls-4" d="M702.18,348.58,682.39,408.5l-4.28,29.91,11.24-28.05Z"/></g></g><g id="b-8" data-name="b"><g id="a-15" data-name="a"><circle class="cls-4" cx="591.7" cy="386.08" r="5.25"/><path class="cls-4" d="M727.5,359.07l-34.62,52.76L681,439.61l18.12-24.18Z"/></g><g id="a-16" data-name="a"><circle class="cls-4" cx="611.08" cy="366.7" r="5.25"/><path class="cls-4" d="M749.25,375.75l-47.1,42-18.66,23.75,23.75-18.66Z"/></g></g></g></g><g id="d-3" data-name="d"><g id="c-5" data-name="c"><g id="b-9" data-name="b"><g id="a-17" data-name="a"><circle class="cls-4" cx="634.82" cy="352.99" r="5.25"/><path class="cls-4" d="M765.93,397.5l-56.36,28.38L685.39,444l27.78-11.88Z"/></g><g id="a-18" data-name="a"><circle class="cls-4" cx="661.29" cy="345.9" r="5.25"/><path class="cls-4" d="M776.42,422.82l-61.78,12.83-28,11.24,29.91-4.28Z"/></g></g><g id="b-10" data-name="b"><g id="a-19" data-name="a"><circle class="cls-4" cx="688.71" cy="345.9" r="5.25"/><path class="cls-4" d="M780,450l-63-3.6L687,450l30,3.6Z"/></g><g id="a-20" data-name="a"><circle class="cls-4" cx="715.18" cy="352.99" r="5.25"/><path class="cls-4" d="M776.42,477.18,716.5,457.39l-29.91-4.28,28,11.24Z"/></g></g></g><g id="c-6" data-name="c"><g id="b-11" data-name="b"><g id="a-21" data-name="a"><circle class="cls-4" cx="738.92" cy="366.7" r="5.25"/><path class="cls-4" d="M765.93,502.5l-52.76-34.62L685.39,456l24.18,18.12Z"/></g><g id="a-22" data-name="a"><circle class="cls-4" cx="758.3" cy="386.08" r="5.25"/><path class="cls-4" d="M749.25,524.25l-42-47.1-23.75-18.66,18.66,23.75Z"/></g></g><g id="b-12" data-name="b"><g id="a-23" data-name="a"><circle class="cls-4" cx="772.01" cy="409.82" r="5.25"/><path class="cls-4" d="M727.5,540.93l-28.38-56.36L681,460.39l11.88,27.78Z"/></g><g id="a-24" data-name="a"><circle class="cls-4" cx="779.1" cy="436.29" r="5.25"/><path class="cls-4" d="M702.18,551.42l-12.83-61.78-11.24-28.05,4.28,29.91Z"/></g></g></g></g></svg>