<?xml version="1.0" encoding="utf-8"?>
<!-- Generator: Adobe Illustrator 25.0.1, SVG Export Plug-In . SVG Version: 6.00 Build 0)  -->
<svg version="1.1" id="Layer_1" xmlns="http://www.w3.org/2000/svg" xmlns:xlink="http://www.w3.org/1999/xlink" x="0px" y="0px"
	 viewBox="0 0 117 19.1" style="enable-background:new 0 0 117 19.1;" xml:space="preserve">
<style type="text/css">
	.st0{fill:#FFFFFF;}
</style>
<path class="st0" d="M15.1,17.4c2.1-0.2,4.2-0.9,4.2-3.1V7.2l-1-1l-1.1,1v5.3l0.9,0.8l-2,1.8H16l-2-1.7l0.5-0.5V2.1
	c0-0.8-0.7-1.2-1.1-1.3V0.6c0.2-0.1,0.5-0.2,0.9-0.2c0.7,0,1.3,0.4,1.5,0.9h0.1c0.4-0.6,1.1-0.9,1.7-0.9c0.2,0,0.4,0,0.6,0.1v0.2
	c-0.3,0.1-0.9,0.5-0.9,1.6v4.5L20,4.3h0.2c0.2,0.2,1.3,1.2,1.6,1.4c0.1,0.1,0.2,0.1,0.4,0.1s0.4-0.1,0.6-0.2v0.3
	c-0.2,0.2-0.5,0.5-0.5,1V13c0,2.7-3,4.4-7,4.7v-0.3L15.1,17.4z M14.1,0.7C14.5,1,14.9,1.3,14.9,2v11.1l-0.4,0.4l1.7,1.4l0.5-0.4
	l-1.3-1.1l0.2-0.2V2.1C15.5,1.2,14.7,0.8,14.1,0.7 M18.8,16.7c0.8-0.5,1.6-1.1,1.6-2.3V6.8l-1.2-1.3L18.6,6l1,1.1v7.2
	C19.7,15.3,19.3,16.1,18.8,16.7z M23.8,6.8c1.2-0.6,2.9-1.6,4.1-2.5h0.2c0.8,0.8,1.9,2.1,2.9,3v0.2l-4.4,2.8v1.8
	c0.4,0.3,1.7,0.9,2.5,1.2l1.8-1.7l0.2,0.2l-3.5,3.4h-0.2c-1.2-0.5-2.7-1.2-3.7-1.7c0.1-0.4,0.2-1.3,0.2-2.4V6.8H23.8z M27.9,14.5
	c-1.2-0.5-2.2-1-3.2-1.5c0.1-0.3,0.1-0.8,0.1-1.9V6.6L24.1,7v4.1c0,1.1,0,1.9-0.1,2.2c0.9,0.5,2.2,1.1,3.4,1.6
	C27.4,14.9,27.9,14.5,27.9,14.5z M26.6,10l2-1.3c-0.7-0.8-1.4-1.6-2-2.2V10z M27.2,5.6L26.7,6c0.6,0.7,1.4,1.6,2.2,2.5l0.6-0.4
	C28.6,7.2,27.8,6.3,27.2,5.6 M109.5,17.4c2.1-0.2,4.2-0.9,4.2-3.1V7.2l-1-1l-1.1,1v5.3l0.9,0.8l-2,1.8h-0.2l-2-1.7l0.5-0.5V2.1
	c0-0.8-0.7-1.2-1.1-1.3V0.6c0.2-0.1,0.5-0.2,0.9-0.2c0.7,0,1.3,0.4,1.5,0.9h0.1c0.4-0.6,1.1-0.9,1.7-0.9c0.2,0,0.4,0,0.6,0.1v0.2
	c-0.3,0.1-0.9,0.5-0.9,1.6v4.5l2.6-2.5h0.2c0.2,0.2,1.3,1.2,1.6,1.4c0.1,0.1,0.2,0.1,0.4,0.1s0.4-0.1,0.6-0.2V6
	c-0.2,0.2-0.5,0.5-0.5,1v6c0,2.7-3,4.4-7,4.7C109.5,17.7,109.5,17.4,109.5,17.4z M108.5,0.7c0.3,0.2,0.8,0.6,0.8,1.3v11l-0.4,0.4
	l1.7,1.4l0.5-0.4l-1.3-1.1l0.2-0.2v-11C109.9,1.2,109.1,0.8,108.5,0.7 M113.1,16.6c0.8-0.5,1.6-1.1,1.6-2.3V6.8l-1.2-1.3L113,6
	l1,1.1v7.2C114.1,15.3,113.7,16.1,113.1,16.6z M49.7,6.8c1.2-0.6,2.9-1.6,4.1-2.5H54c0.8,0.8,1.9,2.1,2.8,2.9v0.2l-4.3,2.8V12
	c0.5,0.3,1.7,0.9,2.5,1.2l1.8-1.7l0.2,0.2l-3.5,3.4h-0.2c-1.2-0.5-2.7-1.2-3.7-1.7c0.1-0.4,0.2-1.3,0.2-2.4L49.7,6.8L49.7,6.8z
	 M53.7,14.5c-1.2-0.5-2.2-1-3.2-1.5c0.1-0.3,0.1-0.8,0.1-1.9V6.6L50,6.9V11c0,1.1,0,1.9-0.1,2.2c0.9,0.5,2.2,1.1,3.4,1.6
	C53.3,14.8,53.7,14.5,53.7,14.5z M52.5,9.9l2-1.3c-0.7-0.8-1.4-1.6-2-2.2V9.9z M53.1,5.6L52.5,6c0.6,0.7,1.4,1.6,2.2,2.5l0.6-0.4
	C54.5,7.2,53.7,6.3,53.1,5.6 M60.8,1.8v10.5c0,0.4,0.4,0.9,0.8,1l0.6-0.6l0.2,0.2l-2.2,2.3H60c-0.8-0.2-2-1-2-2.3V3.1l-0.6-0.6
	l-0.7,0.7L56.5,3L59,0.4h0.2L60.8,1.8z M60.5,14.4c-0.8-0.2-1.6-0.7-1.6-1.8V2.7L58,1.8l-0.5,0.5L58.3,3v9.9c0,1.1,0.9,1.8,1.7,2
	C60,14.9,60.5,14.4,60.5,14.4z M63.4,6.8c1.2-0.6,2.9-1.6,4.1-2.5h0.2c0.8,0.8,1.9,2.1,2.8,2.9v0.2l-4.3,2.8V12
	c0.4,0.3,1.7,0.9,2.5,1.2l1.8-1.7l0.2,0.2l-3.5,3.4H67c-1.2-0.5-2.7-1.2-3.7-1.7c0.1-0.4,0.2-1.3,0.2-2.4L63.4,6.8L63.4,6.8z
	 M67.4,14.5c-1.2-0.5-2.2-1-3.2-1.5c0.1-0.3,0.1-0.8,0.1-1.9V6.6l-0.6,0.3V11c0,1.1,0,1.9-0.1,2.2c0.9,0.5,2.2,1.1,3.4,1.6
	C67,14.8,67.4,14.5,67.4,14.5z M66.2,9.9l2-1.3c-0.7-0.8-1.4-1.6-2-2.2V9.9z M66.8,5.6L66.3,6c0.6,0.7,1.4,1.6,2.2,2.5L69,8.1
	C68.2,7.2,67.4,6.3,66.8,5.6 M84.6,7.2v5.1c0,0.4,0.4,0.9,0.8,0.9l0.6-0.6l0.2,0.2L84,15.1h-0.1c-0.8-0.2-2-0.9-2-2.3V7l-0.6-0.6
	L80.6,7l-0.2-0.2l2.5-2.5h0.2l1.6,1.6v0.9l2-2.4h0.2c0.4,0.4,1,1,1.6,1.4l-1.7,2c-0.5-0.4-1.1-1-1.5-1.3C85.3,6.5,84.6,7.2,84.6,7.2
	z M84.4,14.4c-0.8-0.2-1.6-0.7-1.6-1.8v-6L82,5.7l-0.5,0.5l0.7,0.7v5.9c0,1.1,0.9,1.8,1.7,2C83.9,14.8,84.4,14.4,84.4,14.4z
	 M85.5,6.3c0.3,0.3,0.8,0.8,1.2,1.1l0.4-0.5c-0.4-0.3-1-0.9-1.3-1.1C85.8,5.8,85.5,6.3,85.5,6.3z M91.1,15.2l-2.4-1.6v-3.2
	c0.6-0.4,1.9-1.3,2.5-1.7c-1-0.5-1.8-1.1-2.3-1.8V6.7c1.4-0.8,2.5-1.6,3.3-2.4h0.2c0,0,3,1.4,3.1,1.5c0.2,0.1,0.3,0.1,0.4,0.1
	c0.2,0,0.4-0.1,0.6-0.2V6C96.3,6.2,96,6.5,96,6.9v5.3c0,0.6,0.5,0.9,0.9,1l0.6-0.6l0.2,0.2l-2.2,2.3h-0.1c-0.9-0.2-1.9-1.1-2-2.1
	l-2.1,2.1L91.1,15.2L91.1,15.2z M91.6,14.4l-2-1.3v-3L89,10.5v2.9l2.2,1.4L91.6,14.4z M93.3,9.2V7.6l-2.9-1.5
	c-0.2,0.2-1,0.6-1.2,0.8C89.9,7.7,91.7,8.8,93.3,9.2 M95.9,14.4c-0.8-0.3-1.6-0.8-1.6-1.9V7l-3-1.5c-0.1,0.1-0.4,0.3-0.5,0.4
	l2.9,1.5v5.4c0,1,1,1.8,1.7,2.1L95.9,14.4z M93.3,12.7V9.5c-0.6-0.2-1.3-0.4-1.9-0.7v4l1.1,0.7L93.3,12.7z M71.6,13.5V6.8l3.6-2.5
	h0.2c0.7,0.3,3,1.3,3.2,1.4c0.1,0,0.2,0.1,0.4,0.1s0.4-0.1,0.7-0.2V6c-0.2,0.2-0.5,0.6-0.5,0.9v5.7c0,1.3,0.3,2.1,0.8,2.6v0.2
	c-0.8,0.8-2.6,2.7-3.4,3.6h-0.1c-0.8-0.4-2.1-0.8-3.1-0.8c-0.8,0-1.7,0.2-2.3,0.7l-0.2-0.1c0.6-1.4,1.9-2.9,3.6-2.9
	c1,0,2.4,0.4,3.6,1.1c-0.8-0.9-1.5-2.6-1.5-3.9l-2.1,2h-0.2C74.3,15.1,71.6,13.5,71.6,13.5z M73.3,17.4c-0.8,0-1.5,0.4-1.9,0.9v0.1
	c0.5-0.3,1-0.4,1.9-0.4c1,0,2.4,0.3,3.1,0.7l0.4-0.5C75.9,17.8,74.6,17.4,73.3,17.4 M74.1,14.9l0.5-0.4L72.5,13V6.6L71.9,7v6.4
	C71.9,13.4,74.1,14.9,74.1,14.9z M77.3,6.6l-3-1.2V6l2.3,1v6c0,1.3,0.6,2.7,1.5,3.8l0.5-0.5c-0.8-1-1.3-2.1-1.3-3.4
	C77.3,12.9,77.3,6.6,77.3,6.6z M76.4,12.7V7.2l-2-0.9v6.3l1.3,0.8L76.4,12.7z M102,6.8l2.6-2.5h0.2c0.2,0.2,1.4,1.3,1.6,1.4
	c0.1,0.1,0.2,0.1,0.3,0.1c0.2,0,0.4-0.1,0.6-0.2V6c-0.2,0.2-0.5,0.6-0.5,1v6.4c-1.1,0.3-2,0.9-3,2h-0.1L102,15v1.4l0.9,0.8l-2.1,1.8
	h-0.1l-2-1.7l0.5-0.6v-2.4c-0.2,0-0.6-0.1-0.8-0.2v-0.3c0.2-0.1,0.9-0.7,0.9-1.2V7.1l-0.6-0.6L98,7.2L97.8,7l2.5-2.5h0.2l1.6,1.6
	v0.7L102,6.8z M99.5,16.9l-0.4,0.4l1.6,1.4l0.5-0.4l-1.3-1.1l0.2-0.2V6.6l-0.9-0.9l-0.4,0.4l0.7,0.7L99.5,16.9L99.5,16.9z M104,13
	V7.2l-1-1l-1.1,1v5.3C102.4,12.7,103.8,12.9,104,13 M103.7,15.1c0.1-0.2,0.3-0.4,0.4-0.5l-2.2-0.4v0.6
	C101.9,14.8,103.7,15.1,103.7,15.1z M103.2,6.1l1.1,1.1V13l0.6-0.3V6.8l-1.2-1.2L103.2,6.1z M0.8,9.3c0-2.6,1.9-4.3,3.7-5.1l0.1,0.2
	c-0.6,0.7-1,1.4-1,3c0,1.8,0.5,3,1.2,3.8c0.2-0.3,0.4-0.7,0.4-1.1V7.5l3.2-2.3l0.1,0.2C8.3,5.7,8.1,6.1,8.1,6.7v1.7
	c0,1.2-1.9,2.5-3.1,2.9c0.8,0.8,1.9,1.1,3.1,1.1c0.4,0,0.8,0,1.2-0.1V5c-1.1-0.1-2.1-0.3-3-0.6c-1-0.3-2-0.6-2.8-0.6
	c-1.3,0-2.9,0.4-2.9,2.3v0.6L0.3,6.8C0.1,6.2,0,5.6,0,5.1c0-2.3,1.7-4.3,4.4-4.3c1.1,0,2.2,0.3,3.2,0.6s2,0.6,3,0.6
	c0.5,0,0.8-0.3,0.8-0.8s-0.2-0.7-0.6-0.8V0.2c1.2,0.2,2.4,0.9,2.4,2.4C13.3,4.1,12,5,9.8,5H9.6v7.4c1.4-0.3,2.4-0.9,3.1-2.1l0.2,0.1
	c-0.8,2.5-2.7,4.9-6,4.9S0.8,13.3,0.8,9.3 M9.8,4.1c-2.4,0-4.6-1.2-6.3-1.2C2.3,2.9,1,3.4,0.6,4.7h0.1c0.5-0.9,1.7-1.2,2.8-1.2
	c1.8,0,3.9,1.2,6.3,1.2c1.9,0,3.1-0.7,3.2-2.2h-0.1C12.7,3.7,11.7,4.1,9.8,4.1 M2.9,5.6C2,6.5,1.2,7.7,1.2,9.3C1.2,13.1,3.7,15,7,15
	c2,0,3.4-1.1,4.2-1.9L11.1,13c-0.9,0.8-2.2,1.4-4.2,1.4c-2.6,0-5.1-1.6-5.1-5.1C1.8,7.9,2.3,6.5,2.9,5.6z M6.1,9.9V7.1L5.5,7.6v2.6
	c0,0.3-0.1,0.5-0.1,0.7h0.1C5.8,10.6,6.1,10.3,6.1,9.9 M36.4,9.3c0-2.6,1.9-4.3,3.7-5.1l0.1,0.2c-0.7,0.8-1.1,1.5-1.1,3
	c0,1.8,0.5,3,1.2,3.8c0.2-0.3,0.4-0.7,0.4-1.1V7.5L44,5.1l0.1,0.2c-0.3,0.4-0.4,0.8-0.4,1.4v1.7c0,1.2-1.9,2.5-3.1,2.9
	c0.8,0.8,1.9,1.1,3.1,1.1c0.4,0,0.8,0,1.2-0.1V5c-1.1-0.1-2.1-0.3-3-0.6c-1-0.3-2-0.6-2.8-0.6c-1.3,0-2.9,0.4-2.9,2.3v0.6L36,6.8
	c-0.2-0.6-0.3-1.2-0.3-1.7c0-2.3,1.7-4.3,4.4-4.3c1.1,0,2.2,0.3,3.2,0.6s2,0.6,3,0.6c0.5,0,0.8-0.3,0.8-0.8s-0.2-0.7-0.6-0.8V0.2
	c1.2,0.2,2.4,0.9,2.4,2.4c0,1.8-1.3,2.6-3.5,2.6h-0.2v7.4c1.4-0.3,2.4-0.9,3.1-2.1l0.2,0.1c-0.8,2.5-2.7,4.9-6,4.9
	C39.2,15.3,36.4,13.3,36.4,9.3 M45.4,4.1c-2.4,0-4.6-1.2-6.3-1.2c-1.1,0-2.4,0.5-2.9,1.8h0.1c0.5-0.9,1.7-1.2,2.8-1.2
	c1.8,0,3.9,1.2,6.3,1.2c1.9,0,3.1-0.7,3.2-2.2h-0.1C48.2,3.7,47.3,4.1,45.4,4.1 M38.5,5.6c-0.9,0.9-1.7,2.1-1.7,3.7
	c0,3.8,2.5,5.7,5.8,5.7c2,0,3.4-1.1,4.2-1.9L46.7,13c-0.9,0.8-2.2,1.4-4.2,1.4c-2.6,0-5.1-1.6-5.1-5.1C37.4,7.9,37.9,6.5,38.5,5.6z
	 M41.7,9.9V7.1l-0.6,0.4v2.6c0,0.3-0.1,0.5-0.1,0.7h0.1C41.4,10.6,41.7,10.3,41.7,9.9"/>
</svg>
