<?xml version="1.0" encoding="utf-8"?>
<!-- Generator: Adobe Illustrator 25.0.1, SVG Export Plug-In . SVG Version: 6.00 Build 0)  -->
<svg version="1.1" id="Layer_1" xmlns="http://www.w3.org/2000/svg" xmlns:xlink="http://www.w3.org/1999/xlink" x="0px" y="0px"
	 viewBox="0 0 1351.4 897.1" style="enable-background:new 0 0 1351.4 897.1;" xml:space="preserve">
<style type="text/css">
	.st0{fill-rule:evenodd;clip-rule:evenodd;fill:#FFFFFF;}
	.st1{fill-rule:evenodd;clip-rule:evenodd;fill:#33348E;}
	.st2{fill:#FFFFFF;}
	.st3{fill-rule:evenodd;clip-rule:evenodd;fill:#CC2229;}
	.st4{fill:#CC2229;}
</style>
<g>
	<path class="st0" d="M1351.4,897.1V0H0v897.1H1351.4z"/>
	<path class="st1" d="M1351.4,897.1V0H0v897.1H1351.4z"/>
	<path class="st0" d="M832.3,897.1v-313h519V313h-519V0H511.7v313H0v271.1h511.7v313H832.3z"/>
	<path class="st2" d="M164.6,0l1186.8,787.9v109.2h-161.6L0,107.3V0H164.6z"/>
	<path class="st2" d="M1186.8,0L0,787.9v109.2h161.7l1189.7-789.9V0H1186.8z"/>
	<path class="st3" d="M1351.4,362H773.4V0H578.5v362H0v173.1h578.5v362h194.9v-362h577.9V362z"/>
	<path class="st4" d="M0.6,0l469.5,313H364.7L0,69.8V0L0.6,0L0.6,0z M0,895.6v1.6h103l408.8-272.5v-40.5h-44.6L0,895.6z
		 M1351.4,897.1v-65.4L980,584.1H874.6l469.5,313H1351.4z M1240,0L832.3,271.8V313h43.5L1345.3,0L1240,0L1240,0z"/>
</g>
</svg>
