<?xml version="1.0" encoding="utf-8"?>
<!-- Generator: Adobe Illustrator 25.0.1, SVG Export Plug-In . SVG Version: 6.00 Build 0)  -->
<svg version="1.1" id="Layer_1" xmlns="http://www.w3.org/2000/svg" xmlns:xlink="http://www.w3.org/1999/xlink" x="0px" y="0px"
	 viewBox="0 0 1350 900" style="enable-background:new 0 0 1350 900;" xml:space="preserve">
<style type="text/css">
	.st0{fill:#C0032C;}
	.st1{stroke:#FFFFFF;stroke-width:50;stroke-miterlimit:10;}
	.st2{fill:#002368;}
	.st3{fill:#FFFFFF;}
</style>
<g>
	<rect class="st0" width="1350" height="900"/>
	<path class="st1" d="M0,103.8h1350 M1350,242.3H0 M0,380.8h1350 M1350,519.2H0 M0,657.7h1350 M1350,796.2H0"/>
	<rect class="st2" width="679.4" height="493.4"/>
	<g>
		<g id="s18">
			<g id="s9">
				<g id="s5">
					<g id="s4">
						<path id="s" class="st3" d="M56.7,20.8l16.2,50.1l-42.5-31h52.3l-42.2,31L56.7,20.8z"/>
						<g>
							<path id="s_1_" class="st3" d="M56.7,117.7l16.2,50.1l-42.5-31h52.3l-42.4,31L56.7,117.7z"/>
						</g>
						<g>
							<path id="s_2_" class="st3" d="M56.7,214.6l16.2,50.1l-42.4-31h52.3l-42.4,31L56.7,214.6z"/>
						</g>
						<g>
							<path id="s_3_" class="st3" d="M56.7,311.5l16.2,50.1l-42.4-31h52.3l-42.4,31L56.7,311.5z"/>
						</g>
					</g>
					<g>
						<path id="s_4_" class="st3" d="M56.7,408.5l16.2,50.1l-42.4-31h52.3l-42.4,31L56.7,408.5z"/>
					</g>
				</g>
				<g>
					<g id="s4_1_">
						<path id="s_5_" class="st3" d="M113.2,69.2l16.2,50.1l-42.4-31h52.3l-42.2,31L113.2,69.2z"/>
						<g>
							<path id="s_6_" class="st3" d="M113.2,166.2l16.2,50.1l-42.4-31h52.3l-42.4,31L113.2,166.2z"/>
						</g>
						<g>
							<path id="s_7_" class="st3" d="M113.2,263.1l16.2,50.1l-42.4-31h52.3l-42.4,31L113.2,263.1z"/>
						</g>
						<g>
							<path id="s_8_" class="st3" d="M113.2,360l16.2,50.1l-42.4-31h52.3l-42.4,31L113.2,360z"/>
						</g>
					</g>
				</g>
			</g>
			<g>
				<g id="s9_1_">
					<g id="s5_1_">
						<g id="s4_2_">
							<path id="s_9_" class="st3" d="M169.8,20.8l16.2,50.1l-42.4-31H196l-42.4,31L169.8,20.8z"/>
							<g>
								<path id="s_10_" class="st3" d="M169.8,117.7l16.2,50.1l-42.4-31H196l-42.4,31L169.8,117.7z"/>
							</g>
							<g>
								<path id="s_11_" class="st3" d="M169.8,214.6l16.2,50.1l-42.4-31H196l-42.4,31L169.8,214.6z"/>
							</g>
							<g>
								<path id="s_12_" class="st3" d="M169.8,311.5l16.2,50.1l-42.4-31H196l-42.4,31L169.8,311.5z"/>
							</g>
						</g>
						<g>
							<path id="s_13_" class="st3" d="M169.8,408.5l16.2,50.1l-42.4-31H196l-42.4,31L169.8,408.5z"/>
						</g>
					</g>
					<g>
						<g id="s4_3_">
							<path id="s_14_" class="st3" d="M226.5,69.2l16.2,50.1l-42.4-31h52.3l-42.4,31L226.5,69.2z"/>
							<g>
								<path id="s_15_" class="st3" d="M226.5,166.2l16.2,50.1l-42.4-31h52.3l-42.4,31L226.5,166.2z"/>
							</g>
							<g>
								<path id="s_16_" class="st3" d="M226.5,263.1l16.2,50.1l-42.4-31h52.3l-42.4,31L226.5,263.1z"/>
							</g>
							<g>
								<path id="s_17_" class="st3" d="M226.5,360l16.2,50.1l-42.4-31h52.3l-42.4,31L226.5,360z"/>
							</g>
						</g>
					</g>
				</g>
			</g>
		</g>
		<g>
			<g id="s18_1_">
				<g id="s9_2_">
					<g id="s5_2_">
						<g id="s4_4_">
							<path id="s_18_" class="st3" d="M283,20.8l16.2,50.1l-42.4-31h52.3l-42.4,31L283,20.8z"/>
							<g>
								<path id="s_19_" class="st3" d="M283,117.7l16.2,50.1l-42.4-31h52.3l-42.4,31L283,117.7z"/>
							</g>
							<g>
								<path id="s_20_" class="st3" d="M283,214.6l16.2,50.1l-42.4-31h52.3l-42.4,31L283,214.6z"/>
							</g>
							<g>
								<path id="s_21_" class="st3" d="M283,311.5l16.2,50.1l-42.4-31h52.3l-42.4,31L283,311.5z"/>
							</g>
						</g>
						<g>
							<path id="s_22_" class="st3" d="M283,408.5l16.2,50.1l-42.4-31h52.3l-42.4,31L283,408.5z"/>
						</g>
					</g>
					<g>
						<g id="s4_5_">
							<path id="s_23_" class="st3" d="M339.7,69.2l16.2,50.1l-42.4-31h52.3l-42.4,31L339.7,69.2z"/>
							<g>
								<path id="s_24_" class="st3" d="M339.7,166.2l16.2,50.1l-42.4-31h52.3l-42.4,31L339.7,166.2z"/>
							</g>
							<g>
								<path id="s_25_" class="st3" d="M339.7,263.1l16.2,50.1l-42.4-31h52.3l-42.4,31L339.7,263.1z"/>
							</g>
							<g>
								<path id="s_26_" class="st3" d="M339.7,360l16.2,50.1l-42.4-31h52.3l-42.4,31L339.7,360z"/>
							</g>
						</g>
					</g>
				</g>
				<g>
					<g id="s9_3_">
						<g id="s5_3_">
							<g id="s4_6_">
								<path id="s_27_" class="st3" d="M396.4,20.8l16.2,50.1l-42.4-31h52.3l-42.4,31L396.4,20.8z"/>
								<g>
									<path id="s_28_" class="st3" d="M396.4,117.7l16.2,50.1l-42.4-31h52.3l-42.4,31L396.4,117.7z"/>
								</g>
								<g>
									<path id="s_29_" class="st3" d="M396.4,214.6l16.2,50.1l-42.4-31h52.3l-42.4,31L396.4,214.6z"/>
								</g>
								<g>
									<path id="s_30_" class="st3" d="M396.4,311.5l16.2,50.1l-42.4-31h52.3l-42.4,31L396.4,311.5z"/>
								</g>
							</g>
							<g>
								<path id="s_31_" class="st3" d="M396.4,408.5l16.2,50.1l-42.4-31h52.3l-42.4,31L396.4,408.5z"/>
							</g>
						</g>
						<g>
							<g id="s4_7_">
								<path id="s_32_" class="st3" d="M452.9,69.2l16.2,50.1l-42.4-31H479l-42.4,31L452.9,69.2z"/>
								<g>
									<path id="s_33_" class="st3" d="M452.9,166.2l16.2,50.1l-42.4-31H479l-42.4,31L452.9,166.2z"/>
								</g>
								<g>
									<path id="s_34_" class="st3" d="M452.9,263.1l16.2,50.1l-42.4-31H479l-42.4,31L452.9,263.1z"/>
								</g>
								<g>
									<path id="s_35_" class="st3" d="M452.9,360l16.2,50.1l-42.4-31H479l-42.4,31L452.9,360z"/>
								</g>
							</g>
						</g>
					</g>
				</g>
			</g>
		</g>
		<g>
			<g id="s9_4_">
				<g id="s5_4_">
					<g id="s4_8_">
						<path id="s_36_" class="st3" d="M509.5,20.8l16.2,50.1l-42.4-31h52.3l-42.4,31L509.5,20.8z"/>
						<g>
							<path id="s_37_" class="st3" d="M509.5,117.7l16.2,50.1l-42.4-31h52.3l-42.4,31L509.5,117.7z"/>
						</g>
						<g>
							<path id="s_38_" class="st3" d="M509.5,214.6l16.2,50.1l-42.4-31h52.3l-42.4,31L509.5,214.6z"/>
						</g>
						<g>
							<path id="s_39_" class="st3" d="M509.5,311.5l16.2,50.1l-42.4-31h52.3l-42.4,31L509.5,311.5z"/>
						</g>
					</g>
					<g>
						<path id="s_40_" class="st3" d="M509.5,408.5l16.2,50.1l-42.4-31h52.3l-42.4,31L509.5,408.5z"/>
					</g>
				</g>
				<g>
					<g id="s4_9_">
						<path id="s_41_" class="st3" d="M566.2,69.2l16.2,50.1l-42.4-31h52.3l-42.4,31L566.2,69.2z"/>
						<g>
							<path id="s_42_" class="st3" d="M566.2,166.2l16.2,50.1l-42.4-31h52.3l-42.4,31L566.2,166.2z"/>
						</g>
						<g>
							<path id="s_43_" class="st3" d="M566.2,263.1l16.2,50.1l-42.4-31h52.3l-42.4,31L566.2,263.1z"/>
						</g>
						<g>
							<path id="s_44_" class="st3" d="M566.2,360l16.2,50.1l-42.4-31h52.3l-42.4,31L566.2,360z"/>
						</g>
					</g>
				</g>
			</g>
		</g>
		<g>
			<g id="s5_5_">
				<g id="s4_10_">
					<path id="s_45_" class="st3" d="M622.7,20.8L639,70.9l-42.4-31h52.3l-42.4,31L622.7,20.8z"/>
					<g>
						<path id="s_46_" class="st3" d="M622.7,117.7l16.2,50.1l-42.4-31h52.3l-42.4,31L622.7,117.7z"/>
					</g>
					<g>
						<path id="s_47_" class="st3" d="M622.7,214.6l16.2,50.1l-42.4-31h52.3l-42.4,31L622.7,214.6z"/>
					</g>
					<g>
						<path id="s_48_" class="st3" d="M622.7,311.5l16.2,50.1l-42.4-31h52.3l-42.4,31L622.7,311.5z"/>
					</g>
				</g>
				<g>
					<path id="s_49_" class="st3" d="M622.7,408.5l16.2,50.1l-42.4-31h52.3l-42.4,31L622.7,408.5z"/>
				</g>
			</g>
		</g>
	</g>
</g>
</svg>
