<?xml version="1.0" encoding="utf-8"?>
<!-- Generator: Adobe Illustrator 25.0.1, SVG Export Plug-In . SVG Version: 6.00 Build 0)  -->
<svg version="1.1" id="Layer_1" xmlns="http://www.w3.org/2000/svg" xmlns:xlink="http://www.w3.org/1999/xlink" x="0px" y="0px"
	 viewBox="0 0 367 54.7" style="enable-background:new 0 0 367 54.7;" xml:space="preserve">
<style type="text/css">
	.st0{fill:#FFFFFF;}
</style>
<g id="Services-Categories">
	<g>
		<path id="Shape" class="st0" d="M22.5,19.2c0,0-3-0.3-3,2.4v12h20.1v3.6c0,0,0.1,1.8-1.8,1.8H19.5v15.6h21.9c0,0,13.2-2,13.4-15.6
			V19.2H22.5z M54.1,0H14.6C0.3,3.4,0,15.1,0,15.1v39.6h15.2V18.6c0-3.1,3-3.6,3-3.6h35.9V0L54.1,0z M106.2,43.4
			c-1,0.7-1.8,1.2-2.4,1.5c-1.9,1.2-3.8,2.1-5.5,2.9c-2.5,1-4.7,1.5-6.7,1.5c-6.8,0-12.5-2.1-17.1-6.3c-4.6-4.2-6.8-9.5-6.8-15.9
			c0-6.2,2-11.5,6.2-16.1c4.1-4.6,9.1-6.8,15-6.8c2.4,0,5.1,0.4,7.8,1.3c3.5,1.1,6.4,2.8,8.7,5l-3.9,4.4c-1.7-1.6-3.8-2.8-6.4-3.6
			c-1.9-0.6-4-0.8-6.3-0.8c-4.1,0-7.6,1.7-10.4,5c-2.8,3.3-4.2,7.3-4.2,11.9c0,4.6,1.6,8.4,4.8,11.4c3.2,3,7.2,4.5,12.1,4.5
			c2,0,4.1-0.7,6.2-1.9c1.8-1.3,2.7-2,2.7-2v-9.5H86.8l1.9-5.9h17.6L106.2,43.4L106.2,43.4z M146.2,31.8c0,4.6-1.6,8.6-4.9,11.9
			c-3.3,3.3-7.3,5.1-12.1,5.1c-4.4,0-8.3-1.7-11.7-5c-3.4-3.3-5-7.3-5-12c0-4.6,1.6-8.6,4.8-12.1s7.1-5.1,11.6-5.1
			c5.1,0,9.2,1.6,12.4,4.9C144.6,22.8,146.2,26.8,146.2,31.8z M140,31.9c0-3.1-1-5.8-3.1-7.9c-2.1-2.2-4.7-3.2-7.8-3.2
			c-2.9,0-5.3,1.1-7.4,3.3s-3,4.8-3,7.7c0,3,1,5.6,3.1,7.7s4.6,3.2,7.7,3.2c2.9,0,5.3-1.1,7.4-3.2C139,37.3,140,34.8,140,31.9
			L140,31.9z M185.7,31.8c0,4.6-1.6,8.6-4.9,11.9c-3.3,3.3-7.3,5.1-12.1,5.1c-4.4,0-8.3-1.7-11.7-5c-3.4-3.3-5-7.3-5-12
			c0-4.6,1.6-8.6,4.8-12.1c3.2-3.4,7.1-5.1,11.6-5.1c5.1,0,9.2,1.6,12.4,4.9C184,22.8,185.7,26.8,185.7,31.8z M179.4,31.9
			c0-3.1-1-5.8-3.1-7.9c-2.1-2.2-4.7-3.2-7.8-3.2c-2.9,0-5.4,1.1-7.4,3.3s-3,4.8-3,7.7c0,3,1,5.6,3.1,7.7c2,2.1,4.6,3.2,7.7,3.2
			c2.9,0,5.3-1.1,7.4-3.2C178.4,37.3,179.4,34.8,179.4,31.9L179.4,31.9z M222.1,47.8l-5.7,0.9v-5.5l-1.2,1.4c-1.1,1-2.3,1.9-3.6,2.5
			c-1.9,0.9-4.1,1.4-6.2,1.3c-4.4,0-8.2-1.6-11.3-4.9c-3.1-3.3-4.6-7.2-4.6-11.7c0-4.7,1.5-8.7,4.6-12.1c3-3.3,6.8-5,11.2-5
			c2.5,0,4.8,0.4,6.6,1.2c1.3,0.6,2.4,1.4,3.4,2.4c0.3,0.4,0.6,0.9,0.9,1.3V5.1l6.1-0.9L222.1,47.8z M216.8,32.2
			c0-3.2-1.1-6-3.3-8.2c-2.2-2.3-4.7-3.4-7.6-3.4c-3.2,0-5.7,1.1-7.7,3.2c-1.8,2-2.8,4.5-2.8,7.5c0,3.3,0.9,6,2.9,8.2
			c1.9,2.1,4.3,3.2,7.2,3.2c2.9,0,5.4-1,7.7-3C215.6,37.6,216.8,35.1,216.8,32.2L216.8,32.2z M254.2,11.1h-17v11.6h13.2v5.9h-13.2
			v19.1l-6.6,1V5.2h22.3L254.2,11.1z M267.8,7.8l-4.1,5.1l-3.9-5.2l4.1-5.1L267.8,7.8z M266.6,47.8l-6.1,0.8V16.4l6.1-0.9V47.8
			L266.6,47.8z M294,15.1l-2.9,6.6c-0.4-0.1-0.8-0.1-1.1-0.1c-0.6,0-1.2,0-1.8,0.1s-1.2,0.3-1.9,0.6c-1.3,0.6-2.4,1.8-3.3,3.6
			c-1,2-1.6,4.3-1.6,6.6v15.1l-6.1,1V16.4l5.6-1v6.7c0.7-1.2,1.5-2.3,2.2-3.5c1-1.2,2.3-2.1,3.6-2.6c0.7-0.3,2-0.5,4-0.7
			C292.8,15.1,293.9,15.1,294,15.1z M339.3,47.8l-6.1,0.9V26.6c0-2-0.5-3.5-1.4-4.5c-0.9-0.9-2.3-1.4-4-1.4c-2.1,0-3.8,0.9-4.9,2.6
			c-0.7,1.2-1.1,2.5-1.1,3.8v20.6l-6.1,1.1V26.7c0-2-0.5-3.4-1.3-4.5c-0.9-1-2.1-1.5-3.6-1.5h-0.6c-2.1,0-3.7,0.9-4.6,2.7
			c-0.7,1.4-1.1,3.1-1.1,5.1v19.2l-6.3,1.1V16.4l5.7-1v4.1c0.6-1,1.3-1.8,1.9-2.3c1.6-1.5,3.5-2.3,5.7-2.3c2.4,0,4.2,0.4,5.4,1.2
			c1,0.6,2,2,3,3.8c2.1-3.3,5-5,8.9-5c3.7,0,6.5,1.2,8.3,3.5c1.5,2,2.2,4.8,2.2,8.6L339.3,47.8L339.3,47.8z M367,38
			c0,3-1,5.4-3.1,7.3c-2.1,2-4.7,2.9-7.9,2.9c-2.4,0-4.5-0.6-6.5-1.7c-2-1.1-3.4-2.4-4.4-3.8l4.3-3.8c0.3,0.5,0.6,0.8,0.9,1.1
			c1.6,1.6,3.5,2.5,5.7,2.5c1.5,0,2.8-0.4,3.6-1.2c0.9-0.8,1.3-1.9,1.3-3.3c0-1.6-1-2.7-3.1-3.3c-4.1-1.2-6.4-2-6.7-2.1
			c-1.9-1-3.3-2-4.1-3.2c-1-1.4-1.5-3.1-1.5-5.4c0-2.8,1-5.1,3.1-7s4.5-2.7,7.3-2.7c2.1,0,4.1,0.5,5.9,1.4c1.8,1,3.1,2,3.9,3.2
			l-3.6,3.9c-0.5-0.5-1.1-1-1.8-1.5c-1.5-1-2.9-1.5-4.2-1.5c-1.3,0-2.3,0.3-3.1,0.8c-1,0.7-1.5,1.7-1.5,3.1c0,1.3,0.5,2.3,1.4,2.9
			c0.8,0.5,2.5,1.1,5.3,1.7c2.7,0.6,4.8,1.8,6.3,3.3C366.3,33.3,367,35.4,367,38z"/>
	</g>
</g>
</svg>
