<?xml version="1.0" encoding="utf-8"?>
<!-- Generator: Adobe Illustrator 25.0.1, SVG Export Plug-In . SVG Version: 6.00 Build 0)  -->
<svg version="1.1" id="Layer_1" xmlns="http://www.w3.org/2000/svg" xmlns:xlink="http://www.w3.org/1999/xlink" x="0px" y="0px"
	 viewBox="0 0 157 32" style="enable-background:new 0 0 157 32;" xml:space="preserve">
<style type="text/css">
	.st0{fill-rule:evenodd;clip-rule:evenodd;fill:#FFFFFF;}
</style>
<g id="Specifications">
	<g id="Logos" transform="translate(-50.000000, -164.000000)">
		<path id="YOURSTORY" class="st0" d="M56.2,195.6v-10.4L50,164.4h5.2l3.7,14.2H59l3.7-14.2h4.7l-6.2,20.9v10.4H56.2z M73.3,171.5
			v16.9c0,2.2,1,3.1,2.6,3.1s2.6-0.8,2.6-3.1v-16.9c0-2.2-1-3.1-2.6-3.1S73.3,169.3,73.3,171.5z M68.3,188.1v-16.2
			c0-5,2.7-7.9,7.5-7.9s7.5,2.9,7.5,7.9v16.2c0,5-2.7,7.9-7.5,7.9S68.3,193.1,68.3,188.1z M86.3,164.4h4.9v24.1c0,2.2,1,3,2.6,3
			s2.6-0.8,2.6-3v-24.1h4.7v23.8c0,5-2.5,7.9-7.4,7.9s-7.4-2.9-7.4-7.9V164.4z M119.8,195.6h-5c-0.3-0.8-0.4-1.3-0.4-3.8v-4.9
			c0-2.9-1-4-3.2-4h-1.7v12.7h-4.9v-31.2h7.5c5.1,0,7.3,2.4,7.3,7.2v2.5c0,3.2-1,5.3-3.2,6.3v0.1c2.5,1,3.3,3.3,3.3,6.6v4.8
			C119.2,193.3,119.3,194.4,119.8,195.6z M111.7,168.8h-2.4v9.6h1.9c1.8,0,3-0.8,3-3.3V172C114.2,169.8,113.5,168.8,111.7,168.8z
			 M121.8,171.9c0-5,2.5-7.9,7.3-7.9s7.3,2.9,7.3,7.9v1h-4.7v-1.3c0-2.2-0.9-3.1-2.5-3.1s-2.5,0.8-2.5,3.1c0,2.3,1,4,4.2,6.8
			c4.1,3.6,5.4,6.2,5.4,9.8c0,5-2.5,7.9-7.4,7.9c-4.9,0-7.4-2.9-7.4-7.9v-1.9h4.7v2.2c0,2.2,1,3,2.6,3c1.6,0,2.6-0.8,2.6-3
			c0-2.3-1-4-4.2-6.8C123.1,178,121.8,175.4,121.8,171.9z M137.8,168.8v-4.5h15.3v4.5h-5.2v26.8H143v-26.8H137.8z M159.8,171.5v16.9
			c0,2.2,1,3.1,2.6,3.1s2.6-0.8,2.6-3.1v-16.9c0-2.2-1-3.1-2.6-3.1S159.8,169.3,159.8,171.5z M154.8,188.1v-16.2
			c0-5,2.7-7.9,7.5-7.9c4.9,0,7.5,2.9,7.5,7.9v16.2c0,5-2.7,7.9-7.5,7.9C157.5,196,154.8,193.1,154.8,188.1z M188.4,195.6h-5
			c-0.3-0.8-0.4-1.3-0.4-3.8v-4.9c0-2.9-1-4-3.2-4H178v12.7H173v-31.2h7.5c5.1,0,7.3,2.4,7.3,7.2v2.5c0,3.2-1,5.3-3.2,6.3v0.1
			c2.5,1,3.3,3.3,3.3,6.6v4.8C187.8,193.3,187.9,194.4,188.4,195.6z M180.3,168.8H178v9.6h1.9c1.8,0,3-0.8,3-3.3V172
			C182.9,169.8,182.1,168.8,180.3,168.8z M195.3,195.6v-10.4l-6.2-20.9h5.2l3.7,14.2h0.1l3.7-14.2h4.7l-6.2,20.9v10.4H195.3z"/>
	</g>
</g>
</svg>
