<?xml version="1.0" encoding="utf-8"?>
<!-- Generator: Adobe Illustrator 26.1.0, SVG Export Plug-In . SVG Version: 6.00 Build 0)  -->
<svg version="1.1" id="Layer_1" xmlns="http://www.w3.org/2000/svg" xmlns:xlink="http://www.w3.org/1999/xlink" x="0px" y="0px"
	 viewBox="0 0 219.4 82.3" style="enable-background:new 0 0 219.4 82.3;" xml:space="preserve">
<style type="text/css">
	.st0{fill:#82838B;}
	.st1{fill:#D8D4D6;}
	.st2{fill:#FFC21A;}
	.st3{fill:#14151B;}
	.st4{fill:#101535;}
	.st5{fill:#FFFFFF;}
</style>
<g>
	<path class="st0" d="M67.4,58.1h3.2c1.5,0,2.7,0.7,2.7,2.4c0,1.2-0.5,2-1.5,2.3v0c1.1,0.2,1.8,0.9,1.8,2.5c0,1.7-1.2,2.7-3.1,2.7
		h-3.2V58.1z M70.2,62.4c1,0,1.5-0.6,1.5-1.6c0-1.2-0.7-1.4-1.6-1.4H69v3H70.2z M70.5,66.9c1,0,1.5-0.6,1.5-1.8
		c0-1.1-0.6-1.7-1.6-1.7H69v3.5H70.5z"/>
	<path class="st0" d="M79.5,66.6c0,0.3,0.2,0.5,0.4,0.5c0.1,0,0.2,0,0.3,0v1c-0.2,0.1-0.4,0.2-0.7,0.2c-0.7,0-1.2-0.3-1.3-1h0
		c-0.4,0.7-1,1.1-1.9,1.1c-1.2,0-2-0.7-2-2.1c0-1.7,0.7-2,1.8-2.4l1.2-0.3c0.5-0.2,0.9-0.3,0.9-1c0-0.7-0.2-1.1-1-1.1
		c-1,0-1.1,0.7-1.1,1.4h-1.4c0-1.6,0.7-2.5,2.6-2.5c1.3,0,2.4,0.5,2.4,1.8V66.6z M78.1,64.2c-0.4,0.3-1.2,0.5-1.7,0.7
		c-0.4,0.2-0.6,0.7-0.6,1.2c0,0.6,0.3,1.1,0.9,1.1c0.9,0,1.4-0.7,1.4-1.8V64.2z"/>
	<path class="st0" d="M84.1,62.8v-0.2c0-0.6-0.2-1.2-1-1.2c-0.6,0-1.1,0.3-1.1,1c0,0.6,0.3,0.8,1.1,1.1l1,0.3c1.1,0.4,1.6,1,1.6,2.2
		c0,1.6-1.2,2.3-2.7,2.3c-1.9,0-2.5-0.9-2.5-2.3v-0.3h1.3V66c0,0.9,0.3,1.3,1.2,1.3c0.8,0,1.2-0.4,1.2-1.1c0-0.6-0.3-0.9-0.8-1.1
		l-1.2-0.4c-1.1-0.4-1.6-1-1.6-2.2c0-1.4,1-2.1,2.6-2.1c1.9,0,2.4,1.1,2.4,2.1v0.3H84.1z"/>
	<path class="st0" d="M87.9,64.6V65c0,1,0.1,2.3,1.3,2.3c1.1,0,1.2-1.2,1.2-1.7h1.4c0,1.7-1,2.7-2.6,2.7c-1.2,0-2.8-0.4-2.8-3.9
		c0-2,0.4-4.1,2.8-4.1c2.1,0,2.7,1.3,2.7,3.4v0.8H87.9z M90.3,63.5v-0.4c0-1-0.3-1.7-1.2-1.7c-1,0-1.3,1-1.3,1.9v0.2H90.3z"/>
	<path class="st0" d="M96.7,67.2L96.7,67.2c-0.2,0.5-0.6,1.1-1.7,1.1c-1.8,0-2.5-1.5-2.5-4.1c0-3.3,1.2-3.9,2.3-3.9
		c0.8,0,1.4,0.4,1.7,1.1h0v-3.3h1.5v10h-1.4V67.2z M95.3,61.6c-0.9,0-1.2,0.7-1.2,2.7c0,1.7,0.2,2.8,1.3,2.8c1,0,1.3-1.1,1.3-2.7
		C96.7,62.7,96.5,61.6,95.3,61.6z"/>
	<path class="st0" d="M105,60.4c2.2,0,2.8,1.6,2.8,4c0,2.3-0.7,4-2.8,4c-2.1,0-2.8-1.6-2.8-4C102.2,62,102.8,60.4,105,60.4z
		 M105,67.2c1.1,0,1.3-0.9,1.3-2.8c0-1.7-0.2-2.8-1.3-2.8c-1.1,0-1.3,1.2-1.3,2.8C103.7,66.3,103.9,67.2,105,67.2z"/>
	<path class="st0" d="M108.7,60.6h1.4v0.9h0c0.4-0.7,1.1-1.1,1.9-1.1c1.1,0,1.9,0.5,1.9,2v5.7h-1.5V63c0-1-0.3-1.4-1-1.4
		c-0.6,0-1.2,0.5-1.2,1.5v5.1h-1.5V60.6z"/>
	<path class="st0" d="M120.5,68.2V61h-2.1v-1h0.2c1,0,2.1-0.2,2.3-1.5v-0.2h1.2v9.9H120.5z"/>
	<path class="st0" d="M126.1,65.4c0,0.9,0.3,1.8,1.4,1.8c1,0,1.4-0.8,1.4-1.8c0-1.2-0.4-1.8-1.6-1.8h-0.6v-1.1h0.6
		c1.1,0,1.4-0.7,1.4-1.7c0-0.7-0.3-1.4-1.1-1.4c-1,0-1.3,0.8-1.3,1.7h-1.5c0-1.8,1-2.9,2.9-2.9c1.2,0,2.7,0.5,2.7,2.5
		c0,1-0.6,2-1.6,2.2v0c1,0.1,1.8,0.9,1.8,2.3c0,2-1,3.1-3,3.1c-1.8,0-2.8-0.9-2.8-3H126.1z"/>
	<path class="st0" d="M134,58.2c1.9,0,3,1.2,3,5.1c0,3.9-1.1,5.1-3,5.1c-1.9,0-3-1.2-3-5.1C131,59.4,132.1,58.2,134,58.2z M134,67.2
		c1.1,0,1.4-1,1.4-3.9s-0.3-3.9-1.4-3.9c-1.1,0-1.4,1.1-1.4,3.9S132.9,67.2,134,67.2z"/>
	<path class="st0" d="M141,60.6h1.5v1.2h0c0.3-0.8,0.9-1.4,1.8-1.4c0.2,0,0.3,0,0.4,0.1V62c-0.1,0-0.4-0.1-0.6-0.1
		c-0.7,0-1.5,0.3-1.5,1.7v4.5H141V60.6z"/>
	<path class="st0" d="M146.4,64.6V65c0,1,0.1,2.3,1.3,2.3c1.1,0,1.2-1.2,1.2-1.7h1.4c0,1.7-1,2.7-2.6,2.7c-1.2,0-2.8-0.4-2.8-3.9
		c0-2,0.4-4.1,2.8-4.1c2.1,0,2.7,1.3,2.7,3.4v0.8H146.4z M148.8,63.5v-0.4c0-1-0.3-1.7-1.2-1.7c-1,0-1.3,1-1.3,1.9v0.2H148.8z"/>
	<path class="st0" d="M150.7,60.6h1.6l1.3,5.9h0l1.2-5.9h1.6l-2,7.5h-1.8L150.7,60.6z"/>
	<path class="st0" d="M157.2,58h1.5v1.5h-1.5V58z M157.2,60.6h1.5v7.5h-1.5V60.6z"/>
	<path class="st0" d="M161.3,64.6V65c0,1,0.1,2.3,1.3,2.3c1.1,0,1.2-1.2,1.2-1.7h1.4c0,1.7-1,2.7-2.6,2.7c-1.2,0-2.8-0.4-2.8-3.9
		c0-2,0.4-4.1,2.8-4.1c2.1,0,2.7,1.3,2.7,3.4v0.8H161.3z M163.7,63.5v-0.4c0-1-0.3-1.7-1.2-1.7c-1,0-1.3,1-1.3,1.9v0.2H163.7z"/>
	<path class="st0" d="M165.7,60.6h1.6l1,5.9h0l1.1-5.9h1.7l1.1,5.9h0l1-5.9h1.5l-1.7,7.5h-1.7l-1.2-5.9h0l-1.1,5.9h-1.8L165.7,60.6z
		"/>
	<path class="st0" d="M178.8,62.8v-0.2c0-0.6-0.2-1.2-1-1.2c-0.6,0-1.1,0.3-1.1,1c0,0.6,0.3,0.8,1.1,1.1l1,0.3
		c1.1,0.4,1.6,1,1.6,2.2c0,1.6-1.2,2.3-2.7,2.3c-1.9,0-2.5-0.9-2.5-2.3v-0.3h1.3V66c0,0.9,0.3,1.3,1.2,1.3c0.8,0,1.2-0.4,1.2-1.1
		c0-0.6-0.3-0.9-0.8-1.1l-1.2-0.4c-1.1-0.4-1.6-1-1.6-2.2c0-1.4,1-2.1,2.6-2.1c1.9,0,2.4,1.1,2.4,2.1v0.3H178.8z"/>
</g>
<path class="st1" d="M218.4,1v80.3H1V1H218.4 M219.4,0H0v82.3h219.4V0z"/>
<path class="st2" d="M196.9,31.8l2,4.9c0.1,0.2,0.2,0.3,0.4,0.3l5.3,0.4c0.2,0,0.4,0.2,0.4,0.5c0,0.1-0.1,0.2-0.2,0.3l-4,3.4
	c-0.1,0.1-0.2,0.3-0.1,0.4l1.2,5.1c0.1,0.2-0.1,0.5-0.3,0.5c-0.1,0-0.2,0-0.3-0.1l-4.5-2.8c-0.1-0.1-0.3-0.1-0.5,0l-4.5,2.8
	c-0.2,0.1-0.5,0.1-0.6-0.2c-0.1-0.1-0.1-0.2-0.1-0.3l1.2-5.1c0-0.2,0-0.3-0.1-0.4l-4-3.4c-0.2-0.2-0.2-0.4-0.1-0.6
	c0.1-0.1,0.2-0.2,0.3-0.2l5.3-0.4c0.2,0,0.3-0.1,0.4-0.3l2-4.9c0.1-0.2,0.3-0.3,0.6-0.3C196.8,31.6,196.9,31.7,196.9,31.8z"/>
<path class="st2" d="M108.8,31.8l2,4.9c0.1,0.2,0.2,0.3,0.4,0.3l5.3,0.4c0.2,0,0.4,0.2,0.4,0.5c0,0.1-0.1,0.2-0.2,0.3l-4,3.4
	c-0.1,0.1-0.2,0.3-0.1,0.4l1.2,5.1c0.1,0.2-0.1,0.5-0.3,0.5c-0.1,0-0.2,0-0.3-0.1l-4.5-2.8c-0.1-0.1-0.3-0.1-0.5,0l-4.5,2.8
	c-0.2,0.1-0.5,0.1-0.6-0.1c-0.1-0.1-0.1-0.2-0.1-0.3l1.2-5.1c0-0.2,0-0.3-0.1-0.4l-4-3.4c-0.2-0.2-0.2-0.4-0.1-0.6
	c0.1-0.1,0.2-0.2,0.3-0.2l5.3-0.4c0.2,0,0.3-0.1,0.4-0.3l2-4.9c0.1-0.2,0.3-0.3,0.6-0.3C108.6,31.6,108.7,31.7,108.8,31.8z"/>
<path class="st2" d="M130.8,31.8l2,4.9c0.1,0.2,0.2,0.3,0.4,0.3l5.3,0.4c0.2,0,0.4,0.2,0.4,0.5c0,0.1-0.1,0.2-0.2,0.3l-4,3.4
	c-0.1,0.1-0.2,0.3-0.1,0.4l1.2,5.1c0.1,0.2-0.1,0.5-0.3,0.5c-0.1,0-0.2,0-0.3-0.1l-4.5-2.8c-0.1-0.1-0.3-0.1-0.5,0l-4.5,2.8
	c-0.2,0.1-0.5,0.1-0.6-0.2c-0.1-0.1-0.1-0.2-0.1-0.3l1.2-5.1c0-0.2,0-0.3-0.1-0.4l-4-3.4c-0.2-0.2-0.2-0.4-0.1-0.6
	c0.1-0.1,0.2-0.2,0.3-0.2l5.3-0.4c0.2,0,0.3-0.1,0.4-0.3l2-4.9c0.1-0.2,0.3-0.4,0.6-0.3C130.7,31.6,130.8,31.7,130.8,31.8z"/>
<path class="st2" d="M152.9,31.8l2,4.9c0.1,0.2,0.2,0.3,0.4,0.3l5.3,0.4c0.2,0,0.4,0.2,0.4,0.5c0,0.1-0.1,0.2-0.2,0.3l-4,3.4
	c-0.1,0.1-0.2,0.3-0.1,0.4l1.2,5.1c0.1,0.2-0.1,0.5-0.3,0.5c-0.1,0-0.2,0-0.3-0.1l-4.5-2.8c-0.1-0.1-0.3-0.1-0.5,0l-4.5,2.8
	c-0.2,0.1-0.5,0.1-0.6-0.1c-0.1-0.1-0.1-0.2-0.1-0.3l1.2-5.1c0-0.2,0-0.3-0.1-0.4l-4-3.4c-0.2-0.2-0.2-0.4-0.1-0.6
	c0.1-0.1,0.2-0.2,0.3-0.2l5.3-0.4c0.2,0,0.3-0.1,0.4-0.3l2-4.9c0.1-0.2,0.3-0.3,0.6-0.3C152.7,31.6,152.8,31.7,152.9,31.8z"/>
<path class="st2" d="M174.9,31.8l2,4.9c0.1,0.2,0.2,0.3,0.4,0.3l5.3,0.4c0.2,0,0.4,0.2,0.4,0.5c0,0.1-0.1,0.2-0.2,0.3l-4,3.4
	c-0.1,0.1-0.2,0.3-0.1,0.4l1.2,5.1c0.1,0.2-0.1,0.5-0.3,0.5c-0.1,0-0.2,0-0.3-0.1l-4.5-2.8c-0.1-0.1-0.3-0.1-0.5,0l-4.5,2.8
	c-0.2,0.1-0.5,0.1-0.6-0.1c-0.1-0.1-0.1-0.2-0.1-0.3l1.2-5.1c0-0.2,0-0.3-0.1-0.4l-4-3.4c-0.2-0.2-0.2-0.4-0.1-0.6
	c0.1-0.1,0.2-0.2,0.3-0.2l5.3-0.4c0.2,0,0.3-0.1,0.4-0.3l2-4.9c0.1-0.2,0.3-0.3,0.6-0.3C174.8,31.6,174.8,31.7,174.9,31.8z"/>
<path class="st3" d="M67.8,13h3.1c1.3-0.1,2.4,0.8,2.6,2.1c0,0.2,0,0.3,0,0.5c0,0.9-0.6,1.8-1.5,2.1l0,0c1.1,0.2,1.9,1.3,1.8,2.5
	c0,2-1.2,2.9-3.2,2.9h-2.7V13z M69,17.3h1.4c0.8,0.1,1.6-0.5,1.7-1.3c0-0.1,0-0.2,0-0.3c0-1-0.5-1.6-1.7-1.6H69V17.3z M69,22h1.7
	c0.9,0.1,1.7-0.6,1.8-1.5c0-0.1,0-0.2,0-0.3c0.1-1-0.6-1.8-1.6-1.9c-0.1,0-0.3,0-0.4,0H69V22z"/>
<path class="st3" d="M74.8,17.7c0-1.7,0.7-2.5,2.5-2.5c2.3,0,2.3,1.4,2.3,2.2v4.2c0,0.3,0,0.6,0.4,0.6c0.1,0,0.2,0,0.3-0.1V23
	c-0.2,0-0.5,0.1-0.7,0.1c-0.4,0-1,0-1.1-1l0,0c-0.4,0.7-1.1,1.1-1.8,1.1c-1.4,0-2-0.8-2-2.2c-0.1-0.9,0.5-1.8,1.3-2l1.6-0.5
	c0.8-0.3,0.8-0.5,0.8-1.1c0.1-0.5-0.3-1.1-0.9-1.1c-0.1,0-0.2,0-0.3,0c-0.7,0-1.3,0.6-1.3,1.3c0,0.1,0,0.1,0,0.2v0.1H74.8z
	 M78.4,18.9c-0.4,0.5-1.5,0.6-2,0.9C76,20,75.8,20.5,75.8,21c0,0.8,0.3,1.3,1.1,1.3c0.8,0,1.5-0.6,1.5-1.4V18.9z"/>
<path class="st3" d="M81.2,15.5h1.2v1.1l0,0c0.3-0.7,0.8-1.3,1.6-1.3c0.2,0,0.4,0,0.5,0.1v1.1c-0.2,0-0.4-0.1-0.6-0.1
	c-0.9,0.1-1.6,0.9-1.5,1.8c0,0,0,0,0,0V23h-1.2V15.5z"/>
<path class="st3" d="M90.9,23h-1.4l-2.1-3.7l-1,1.2V23h-1.1V13h1.2v6l0,0l2.6-3.5h1.4l-2.3,2.8L90.9,23z"/>
<path class="st3" d="M95,13h3.2c1.3-0.1,2.4,0.8,2.6,2.1c0,0.1,0,0.3,0,0.4c0.1,1.1-0.5,2.2-1.6,2.5l0,0c0.8,0.1,1.4,0.8,1.4,1.7
	l0.1,1.7c0.1,1.1,0.2,1.4,0.5,1.6h-1.5c-0.2-0.4-0.4-0.9-0.3-1.4L99.3,20c-0.1-1.4-0.8-1.5-1.5-1.5h-1.7V23H95V13z M96.2,17.5h1.2
	c0.7,0,2.1,0,2.1-1.9c0-1-0.7-1.6-1.8-1.6h-1.5L96.2,17.5z"/>
<path class="st3" d="M102,17.7c0-1.7,0.7-2.5,2.5-2.5c2.3,0,2.3,1.4,2.3,2.2v4.2c0,0.3,0,0.6,0.4,0.6c0.1,0,0.2,0,0.3-0.1V23
	c-0.2,0-0.5,0.1-0.7,0.1c-0.4,0-1,0-1.1-1l0,0c-0.4,0.7-1.1,1.1-1.8,1.1c-1.4,0-2-0.8-2-2.2c-0.1-0.9,0.5-1.8,1.4-2.1l1.6-0.5
	c0.8-0.3,0.8-0.5,0.8-1.1c0.1-0.5-0.3-1.1-0.9-1.1c-0.1,0-0.2,0-0.3,0c-0.7,0-1.3,0.5-1.3,1.3c0,0.1,0,0.1,0,0.2v0.1L102,17.7z
	 M105.6,18.9c-0.4,0.5-1.5,0.6-2,0.9c-0.5,0.2-0.7,0.7-0.6,1.2c0,0.8,0.3,1.3,1.1,1.3c0.8,0,1.5-0.6,1.5-1.4L105.6,18.9z"/>
<path class="st3" d="M108.9,13.3h1.2v2.2h1.3v0.9h-1.3v4.8c0,0.6,0.2,0.8,0.8,0.8c0.2,0,0.3,0,0.5,0v1c-0.3,0.1-0.7,0.1-1,0.1
	c-1.2,0-1.5-0.5-1.5-1.5v-5.3h-1.1v-0.9h1.1L108.9,13.3z"/>
<path class="st3" d="M112.2,13h1.2v1.3h-1.2V13z M112.2,15.5h1.2V23h-1.2V15.5z"/>
<path class="st3" d="M115,15.5h1.1v0.9l0,0c0.4-0.7,1.1-1.1,1.9-1.1c2,0,2,1.5,2,2.4V23h-1.2v-5.2c0-0.6,0-1.5-1.1-1.5
	c-0.8,0-1.5,0.6-1.5,1.4c0,0,0,0.1,0,0.1V23H115V15.5z"/>
<path class="st3" d="M126.4,22.5c0,2.2-1,3.1-2.6,3.1c-1.2,0.2-2.3-0.7-2.5-1.9c0,0,0,0,0,0h1.2c0.1,0.7,0.6,1,1.2,1
	c1.5,0,1.4-1.2,1.4-1.7V22l0,0c-0.3,0.6-1,1-1.7,1c-2.2,0-2.3-2.8-2.3-3.8c0-2,0.6-4,2.4-4c0.7,0,1.4,0.5,1.6,1.1l0,0v-0.9h1.1
	L126.4,22.5z M122.4,19.2c0,1.2,0.2,2.8,1.4,2.8s1.5-1.2,1.5-2.8s-0.2-2.9-1.5-2.9C122.7,16.3,122.4,17.4,122.4,19.2L122.4,19.2z"/>
<path class="st2" d="M69.4,44.4c-0.1,1.5,0.5,2.6,2.1,2.6s2.3-1.7,2.3-3.4s-0.4-3.3-2.4-3.3c-0.9-0.1-1.7,0.5-2,1.3H68l0.8-7.3h6.1
	v1.4h-4.8l-0.6,4.2l0,0c0.6-0.7,1.4-1,2.3-1c2.6,0,3.6,2.2,3.6,4.5c0,2.5-0.9,5.1-3.9,5.1c-2.5,0-3.9-1.5-3.8-4L69.4,44.4z"/>
<path class="st2" d="M78,48.1v-1.9h1.7v1.9H78z"/>
<path class="st2" d="M82.1,41.1c0-2.7,0.2-7.2,3.9-7.2c4,0,3.9,4.5,3.9,7.2c0,3.2-0.2,7.3-3.9,7.3S82.1,43.6,82.1,41.1z M85.9,47
	c2.3,0,2.3-3.4,2.3-6.1c0-2,0.2-5.4-2.3-5.6s-2.2,4.2-2.2,5.6C83.7,43.6,83.3,47,85.9,47z"/>
<rect x="14.4" y="20.1" class="st4" width="42.1" height="42.1"/>
<path class="st5" d="M38.9,49.7L38.8,51h-3.2V31.2h3.3v7.6c1.5-1.4,3.6-2,5.6-1.6c1.5,0.3,2.8,1.2,3.8,2.4c2.2,2.8,2.1,6.7-0.2,9.4
	C45.7,51.7,42.5,51.9,38.9,49.7z M46.4,44.2c0.1-2.1-1.5-3.9-3.6-4c-2.1-0.1-3.9,1.5-4,3.6c0,0.1,0,0.3,0,0.4
	c-0.1,2.1,1.5,3.9,3.6,4c2.1,0.1,3.9-1.5,4-3.6C46.4,44.4,46.4,44.3,46.4,44.2z"/>
<path class="st5" d="M33,31.1c0,0.1,0,0.2,0,0.3c0.1,3.1,0.1,3.1-2.4,5c-3.1,2.3-6.2,4.6-9.6,6.9c0-0.3-0.1-0.8,0.1-1
	c3.9-3.7,7.8-7.4,11.7-11.1C32.8,31,32.9,31.1,33,31.1z"/>
<path class="st5" d="M21,47.5c0.3-0.1,0.7-0.4,1-0.4c3.6,0.1,7.1,0.2,10.7,0.3c0.1,0,0.2,0.1,0.4,0.1v3l-11.9-2.8L21,47.5z"/>
<path class="st5" d="M31.1,40.5l0.5,3l-9.1,1.9l-0.2-0.2c0.2-0.3,0.3-0.7,0.5-0.8C25.5,43.2,28.2,41.9,31.1,40.5z"/>
</svg>
