<?xml version="1.0" encoding="utf-8"?>
<!-- Generator: Adobe Illustrator 26.1.0, SVG Export Plug-In . SVG Version: 6.00 Build 0)  -->
<svg version="1.1" id="Layer_1" xmlns="http://www.w3.org/2000/svg" xmlns:xlink="http://www.w3.org/1999/xlink" x="0px" y="0px"
	 viewBox="0 0 219.4 82.3" style="enable-background:new 0 0 219.4 82.3;" xml:space="preserve">
<style type="text/css">
	.st0{fill:#82838B;}
	.st1{fill:#EF4335;}
	.st2{fill:#D8D4D6;}
	.st3{fill:#14151B;}
	.st4{fill:#17313B;}
</style>
<g>
	<path class="st0" d="M63.5,58.1h3.2c1.5,0,2.7,0.7,2.7,2.4c0,1.2-0.5,2-1.5,2.3v0c1.1,0.2,1.8,0.9,1.8,2.5c0,1.7-1.2,2.7-3.1,2.7
		h-3.2V58.1z M66.4,62.3c1,0,1.5-0.6,1.5-1.6c0-1.2-0.7-1.4-1.6-1.4h-1.1v3H66.4z M66.7,66.9c1,0,1.5-0.6,1.5-1.8
		c0-1.1-0.6-1.7-1.6-1.7h-1.5v3.5H66.7z"/>
	<path class="st0" d="M75.7,66.5c0,0.3,0.2,0.5,0.4,0.5c0.1,0,0.2,0,0.3,0v1c-0.2,0.1-0.4,0.2-0.7,0.2c-0.7,0-1.2-0.3-1.3-1h0
		c-0.4,0.7-1,1.1-1.9,1.1c-1.2,0-2-0.7-2-2.1c0-1.7,0.7-2,1.8-2.4l1.2-0.3c0.5-0.2,0.9-0.3,0.9-1c0-0.7-0.2-1.1-1-1.1
		c-1,0-1.1,0.7-1.1,1.4h-1.4c0-1.6,0.7-2.5,2.6-2.5c1.3,0,2.4,0.5,2.4,1.8V66.5z M74.2,64.1c-0.4,0.3-1.2,0.5-1.7,0.7
		c-0.4,0.2-0.6,0.7-0.6,1.2c0,0.6,0.3,1.1,0.9,1.1c0.9,0,1.4-0.7,1.4-1.8V64.1z"/>
	<path class="st0" d="M80.2,62.7v-0.2c0-0.6-0.2-1.2-1-1.2c-0.6,0-1.1,0.3-1.1,1c0,0.6,0.3,0.8,1.1,1.1l1,0.3c1.1,0.4,1.6,1,1.6,2.2
		c0,1.6-1.2,2.3-2.7,2.3c-1.9,0-2.5-0.9-2.5-2.3v-0.3H78v0.2c0,0.9,0.3,1.3,1.2,1.3c0.8,0,1.2-0.4,1.2-1.1c0-0.6-0.3-0.9-0.8-1.1
		l-1.2-0.4c-1.1-0.4-1.6-1-1.6-2.2c0-1.4,1-2.1,2.6-2.1c1.9,0,2.4,1.1,2.4,2.1v0.3H80.2z"/>
	<path class="st0" d="M84,64.5v0.4c0,1,0.1,2.3,1.3,2.3c1.1,0,1.2-1.2,1.2-1.7h1.4c0,1.7-1,2.7-2.6,2.7c-1.2,0-2.8-0.4-2.8-3.9
		c0-2,0.4-4.1,2.8-4.1c2.1,0,2.7,1.3,2.7,3.4v0.8H84z M86.4,63.5v-0.4c0-1-0.3-1.7-1.2-1.7c-1,0-1.3,1-1.3,1.9v0.2H86.4z"/>
	<path class="st0" d="M92.8,67.1L92.8,67.1c-0.2,0.5-0.6,1.1-1.7,1.1c-1.8,0-2.5-1.5-2.5-4.1c0-3.3,1.2-3.9,2.3-3.9
		c0.8,0,1.4,0.4,1.7,1.1h0v-3.3h1.5v10h-1.4V67.1z M91.4,61.5c-0.9,0-1.2,0.7-1.2,2.7c0,1.7,0.2,2.8,1.3,2.8c1,0,1.3-1.1,1.3-2.7
		C92.8,62.6,92.6,61.5,91.4,61.5z"/>
	<path class="st0" d="M101.1,60.3c2.2,0,2.8,1.6,2.8,4c0,2.3-0.7,4-2.8,4c-2.1,0-2.8-1.6-2.8-4C98.3,62,98.9,60.3,101.1,60.3z
		 M101.1,67.1c1.1,0,1.3-0.9,1.3-2.8c0-1.7-0.2-2.8-1.3-2.8c-1.1,0-1.3,1.2-1.3,2.8C99.8,66.2,100,67.1,101.1,67.1z"/>
	<path class="st0" d="M104.9,60.5h1.4v0.9h0c0.4-0.7,1.1-1.1,1.9-1.1c1.1,0,1.9,0.5,1.9,2v5.7h-1.5v-5.2c0-1-0.3-1.4-1-1.4
		c-0.6,0-1.2,0.5-1.2,1.5v5.1h-1.5V60.5z"/>
	<path class="st0" d="M118.4,60.6c0-0.6-0.3-1.3-1.1-1.3c-1.5,0-1.6,2-1.6,3.4l0,0c0.4-0.7,1.1-1.1,1.9-1.1c1.4,0,2.5,1,2.5,3
		c0,2.3-0.9,3.6-3,3.6c-2.5,0-3-1.9-3-4.7c0-3,0.5-5.4,3.2-5.4c1.7,0,2.7,0.8,2.7,2.4H118.4z M117.2,67.1c1,0,1.3-1,1.3-2.1
		c0-1.4-0.4-2.1-1.3-2.1c-1.2,0-1.4,1-1.4,2.2C115.9,66.2,116.3,67.1,117.2,67.1z"/>
	<path class="st0" d="M126.5,68.1h-5.8c0-4.3,4.2-4.2,4.2-7.3c0-0.8-0.3-1.5-1.2-1.5c-1.2,0-1.4,1.1-1.4,2.1h-1.5
		c0-2,0.8-3.2,2.9-3.2c2,0,2.8,1.2,2.8,2.6c0,3.3-3.2,3.5-4,5.9h4V68.1z"/>
	<path class="st0" d="M130.6,60.5h1.5v1.2h0c0.3-0.8,0.9-1.4,1.8-1.4c0.2,0,0.3,0,0.4,0.1v1.5c-0.1,0-0.4-0.1-0.6-0.1
		c-0.7,0-1.5,0.3-1.5,1.7v4.5h-1.5V60.5z"/>
	<path class="st0" d="M136,64.5v0.4c0,1,0.1,2.3,1.3,2.3c1.1,0,1.2-1.2,1.2-1.7h1.4c0,1.7-1,2.7-2.6,2.7c-1.2,0-2.8-0.4-2.8-3.9
		c0-2,0.4-4.1,2.8-4.1c2.1,0,2.7,1.3,2.7,3.4v0.8H136z M138.5,63.5v-0.4c0-1-0.3-1.7-1.2-1.7c-1,0-1.3,1-1.3,1.9v0.2H138.5z"/>
	<path class="st0" d="M140.4,60.5h1.6l1.3,5.9h0l1.2-5.9h1.6l-2,7.5h-1.8L140.4,60.5z"/>
	<path class="st0" d="M146.8,58h1.5v1.5h-1.5V58z M146.8,60.5h1.5v7.5h-1.5V60.5z"/>
	<path class="st0" d="M150.9,64.5v0.4c0,1,0.1,2.3,1.3,2.3c1.1,0,1.2-1.2,1.2-1.7h1.4c0,1.7-1,2.7-2.6,2.7c-1.2,0-2.8-0.4-2.8-3.9
		c0-2,0.4-4.1,2.8-4.1c2.1,0,2.7,1.3,2.7,3.4v0.8H150.9z M153.3,63.5v-0.4c0-1-0.3-1.7-1.2-1.7c-1,0-1.3,1-1.3,1.9v0.2H153.3z"/>
	<path class="st0" d="M155.4,60.5h1.6l1,5.9h0l1.1-5.9h1.7l1.1,5.9h0l1-5.9h1.5l-1.7,7.5h-1.7l-1.2-5.9h0l-1.1,5.9h-1.8L155.4,60.5z
		"/>
	<path class="st0" d="M168.5,62.7v-0.2c0-0.6-0.2-1.2-1-1.2c-0.6,0-1.1,0.3-1.1,1c0,0.6,0.3,0.8,1.1,1.1l1,0.3
		c1.1,0.4,1.6,1,1.6,2.2c0,1.6-1.2,2.3-2.7,2.3c-1.9,0-2.5-0.9-2.5-2.3v-0.3h1.3v0.2c0,0.9,0.3,1.3,1.2,1.3c0.8,0,1.2-0.4,1.2-1.1
		c0-0.6-0.3-0.9-0.8-1.1l-1.2-0.4c-1.1-0.4-1.6-1-1.6-2.2c0-1.4,1-2.1,2.6-2.1c1.9,0,2.4,1.1,2.4,2.1v0.3H168.5z"/>
</g>
<path class="st1" d="M192.5,32.7l1.7,4.2c0.2,0.4,0.6,0.7,1,0.7l4.5,0.3l-3.4,3c-0.3,0.3-0.5,0.7-0.4,1.2l1.1,4.4l-3.9-2.4
	c-0.4-0.2-0.9-0.2-1.3,0l-3.9,2.4l1-4.4c0.1-0.4,0-0.9-0.4-1.2l-3.4-3l4.5-0.3c0.4,0,0.8-0.3,1-0.7L192.5,32.7 M192.4,31.5
	c-0.2,0-0.3,0.1-0.4,0.3l-2,4.9c-0.1,0.2-0.2,0.3-0.4,0.3l-5.3,0.4c-0.2,0-0.4,0.2-0.4,0.5c0,0.1,0.1,0.2,0.2,0.3l4,3.4
	c0.1,0.1,0.2,0.3,0.1,0.4l-1.2,5.1c-0.1,0.2,0.1,0.5,0.3,0.5c0,0,0.1,0,0.1,0c0.1,0,0.2,0,0.2-0.1l4.5-2.8c0.1-0.1,0.3-0.1,0.5,0
	l4.5,2.8c0.1,0,0.1,0.1,0.2,0.1c0.2,0,0.4-0.2,0.4-0.4c0,0,0-0.1,0-0.1l-1.2-5.1c0-0.2,0-0.3,0.1-0.4l4-3.4c0.2-0.2,0.2-0.4,0.1-0.6
	c-0.1-0.1-0.2-0.2-0.3-0.2l-5.3-0.4c-0.2,0-0.3-0.1-0.4-0.3l-2-4.9C192.8,31.6,192.6,31.5,192.4,31.5L192.4,31.5z"/>
<path class="st1" d="M194.8,36.5v9.6l-2.1-1.3c-0.1-0.1-0.3-0.1-0.5,0l-4.5,2.8c-0.2,0.1-0.5,0.1-0.6-0.1c-0.1-0.1-0.1-0.2-0.1-0.3
	l1.2-5.1c0-0.2,0-0.3-0.1-0.4l-4-3.4c-0.2-0.2-0.2-0.4-0.1-0.6c0.1-0.1,0.2-0.2,0.3-0.2l5.3-0.4c0.2,0,0.3-0.1,0.4-0.3l2-4.9
	c0.1-0.2,0.3-0.3,0.6-0.3c0.1,0,0.2,0.1,0.3,0.3L194.8,36.5z"/>
<path class="st2" d="M218.4,1v80.3H1V1H218.4 M219.4,0H0v82.3h219.4V0z"/>
<path class="st1" d="M104.7,31.8l2,4.9c0.1,0.2,0.2,0.3,0.4,0.3l5.3,0.4c0.2,0,0.4,0.2,0.4,0.5c0,0.1-0.1,0.2-0.2,0.3l-4,3.4
	c-0.1,0.1-0.2,0.3-0.2,0.4l1.2,5.1c0.1,0.2-0.1,0.5-0.3,0.5c-0.1,0-0.2,0-0.3-0.1l-4.5-2.8c-0.1-0.1-0.3-0.1-0.5,0l-4.5,2.8
	c-0.2,0.1-0.5,0.1-0.6-0.2c-0.1-0.1-0.1-0.2-0.1-0.3l1.2-5.1c0-0.2,0-0.3-0.1-0.4l-4-3.4c-0.2-0.2-0.2-0.4-0.1-0.6
	c0.1-0.1,0.2-0.2,0.3-0.2l5.3-0.4c0.2,0,0.3-0.1,0.4-0.3l2-4.9c0.1-0.2,0.3-0.3,0.6-0.3C104.6,31.6,104.7,31.7,104.7,31.8z"/>
<path class="st1" d="M126.8,31.8l2,4.9c0.1,0.2,0.2,0.3,0.4,0.3l5.3,0.4c0.2,0,0.4,0.2,0.4,0.5c0,0.1-0.1,0.2-0.2,0.3l-4,3.4
	c-0.1,0.1-0.2,0.3-0.1,0.4l1.2,5.1c0.1,0.2-0.1,0.5-0.3,0.5c-0.1,0-0.2,0-0.3-0.1l-4.5-2.8c-0.1-0.1-0.3-0.1-0.5,0l-4.5,2.8
	c-0.2,0.1-0.5,0.1-0.6-0.1c-0.1-0.1-0.1-0.2-0.1-0.3l1.2-5.1c0-0.2,0-0.3-0.1-0.4l-4-3.4c-0.2-0.2-0.2-0.4-0.1-0.6
	c0.1-0.1,0.2-0.2,0.3-0.2l5.3-0.4c0.2,0,0.3-0.1,0.4-0.3l2-4.9c0.1-0.2,0.3-0.3,0.6-0.3C126.6,31.6,126.7,31.7,126.8,31.8z"/>
<path class="st1" d="M148.8,31.8l2,4.9c0.1,0.2,0.2,0.3,0.4,0.3l5.3,0.4c0.2,0,0.4,0.2,0.4,0.5c0,0.1-0.1,0.2-0.2,0.3l-4,3.4
	c-0.1,0.1-0.2,0.3-0.1,0.4l1.2,5.1c0.1,0.2-0.1,0.5-0.3,0.5c-0.1,0-0.2,0-0.3-0.1l-4.5-2.8c-0.1-0.1-0.3-0.1-0.5,0l-4.5,2.8
	c-0.2,0.1-0.5,0.1-0.6-0.1c-0.1-0.1-0.1-0.2-0.1-0.3l1.2-5.1c0-0.2,0-0.3-0.1-0.4l-4-3.4c-0.2-0.2-0.2-0.4-0.1-0.6
	c0.1-0.1,0.2-0.2,0.3-0.2l5.3-0.4c0.2,0,0.3-0.1,0.4-0.3l2-4.9c0.1-0.2,0.3-0.3,0.6-0.3C148.7,31.6,148.8,31.7,148.8,31.8z"/>
<path class="st1" d="M170.8,31.8l2,4.9c0.1,0.2,0.2,0.3,0.4,0.3l5.3,0.4c0.2,0,0.4,0.2,0.4,0.5c0,0.1-0.1,0.2-0.2,0.3l-4,3.4
	c-0.1,0.1-0.2,0.3-0.1,0.4l1.2,5.1c0.1,0.2-0.1,0.5-0.3,0.5c-0.1,0-0.2,0-0.3-0.1l-4.5-2.8c-0.1-0.1-0.3-0.1-0.5,0l-4.5,2.8
	c-0.2,0.1-0.5,0.1-0.6-0.2c-0.1-0.1-0.1-0.2-0.1-0.3l1.2-5.1c0-0.2,0-0.3-0.1-0.4l-4-3.4c-0.2-0.2-0.2-0.4-0.1-0.6
	c0.1-0.1,0.2-0.2,0.3-0.2l5.3-0.4c0.2,0,0.3-0.1,0.4-0.3l2-4.9c0.1-0.2,0.3-0.3,0.6-0.3C170.7,31.6,170.8,31.7,170.8,31.8z"/>
<path class="st3" d="M69.8,19.5c-0.1,1.9-0.9,3.6-3,3.6c-2.8,0-3.2-2.7-3.2-5.2s0.5-5.2,3.2-5.2c2,0,2.9,1.1,3,3.1h-1.4
	c0-1.1-0.4-2.1-1.7-2.1c-1.7,0-1.9,1.9-1.9,4.2s0.2,4.2,1.9,4.2c1.5,0,1.7-1.4,1.8-2.6H69.8z"/>
<path class="st3" d="M71,13h1.2v10H71V13z"/>
<path class="st3" d="M78.7,23h-1.1v-0.9l0,0c-0.4,0.7-1.1,1.1-1.8,1.1c-2,0-2-1.5-2-2.4v-5.4H75v5.2c0,0.6,0,1.5,1.1,1.5
	c0.8,0,1.5-0.6,1.5-1.4c0,0,0-0.1,0-0.1v-5.2h1.2L78.7,23z"/>
<path class="st3" d="M80.6,13.3h1.2v2.2h1.3v0.9h-1.3v4.8c0,0.6,0.2,0.8,0.8,0.8c0.2,0,0.3,0,0.5,0v1c-0.3,0.1-0.6,0.1-0.9,0.1
	c-1.2,0-1.5-0.5-1.5-1.5v-5.3h-1.1v-0.9h1.1L80.6,13.3z"/>
<path class="st3" d="M87.4,17.7c0-0.7-0.3-1.5-1.2-1.5c-0.7,0-1.5,0.4-1.5,3.1c0,1,0,2.9,1.4,2.9c1,0,1.2-1.1,1.2-1.9h1.2
	c0.2,1.4-0.8,2.6-2.2,2.8c-0.1,0-0.2,0-0.2,0c-1.8,0-2.6-1.3-2.6-3.9c0-1.9,0.4-4,2.7-4c1.2-0.1,2.3,0.9,2.4,2.1c0,0.1,0,0.2,0,0.4
	L87.4,17.7z"/>
<path class="st3" d="M89.8,13H91v3.3l0,0c0.4-0.6,1.1-1,1.8-1c1.9,0,1.9,1.5,1.9,2.4V23h-1.1v-5.2c0-0.6,0-1.5-1.1-1.5
	c-0.8,0-1.5,0.6-1.5,1.4c0,0,0,0.1,0,0.1V23h-1.2V13z"/>
<path class="st3" d="M99.7,13h3.3c1.3-0.1,2.4,0.8,2.6,2.1c0,0.1,0,0.3,0,0.4c0.1,1.1-0.5,2.1-1.6,2.5l0,0c0.8,0.1,1.4,0.8,1.4,1.7
	l0.1,1.7c0.1,1.1,0.2,1.4,0.5,1.6h-1.5c-0.2-0.4-0.3-0.9-0.3-1.4l-0.1-1.5c-0.1-1.4-0.9-1.5-1.5-1.5H101V23h-1.3V13z M101,17.5h1.2
	c0.7,0,2.1,0,2.1-1.9c0-1-0.7-1.6-1.8-1.6H101V17.5z"/>
<path class="st3" d="M106.8,17.7c0-1.7,0.7-2.5,2.5-2.5c2.3,0,2.3,1.4,2.3,2.2v4.2c0,0.3,0,0.6,0.4,0.6c0.1,0,0.2,0,0.3-0.1V23
	c-0.2,0-0.5,0.1-0.7,0.1c-0.4,0-1,0-1.1-1l0,0c-0.4,0.7-1.1,1.1-1.8,1.1c-1.4,0-2-0.9-2-2.2c-0.1-0.9,0.5-1.8,1.3-2l1.6-0.5
	c0.8-0.3,0.8-0.5,0.8-1.1s-0.4-1.1-1.2-1.1c-0.7,0-1.3,0.6-1.3,1.3c0,0.1,0,0.1,0,0.2v0.1H106.8z M110.4,18.9
	c-0.4,0.5-1.5,0.6-2,0.9c-0.4,0.2-0.6,0.7-0.6,1.2c0,0.8,0.3,1.3,1.1,1.3c0.8,0,1.5-0.6,1.5-1.4V18.9z"/>
<g>
	<path class="st1" d="M68.2,34.1h1.7v9.2h1.6v1.4h-1.6v3.4h-1.7v-3.4h-5.1v-1.6L68.2,34.1z M64.6,43.3h3.6v-6.5h0L64.6,43.3z"/>
	<path class="st1" d="M73.5,46h1.8v2.1h-1.8V46z"/>
	<path class="st1" d="M80,40.6c-1.4-0.6-2-1.5-2-3c0-2.3,1.4-3.6,3.6-3.6s3.6,1.3,3.6,3.6c0,1.5-0.6,2.4-2,3
		c1.7,0.6,2.5,1.7,2.5,3.6c0,1.8-0.9,4.1-4,4.1s-4-2.3-4-4.1C77.5,42.4,78.3,41.2,80,40.6z M81.5,47.1c1.6,0,2.3-1.2,2.3-2.9
		c0-1.6-0.7-2.9-2.3-2.9s-2.3,1.2-2.3,2.9C79.3,45.8,79.9,47.1,81.5,47.1z M79.7,37.7c0,1.3,0.6,2.3,1.8,2.3c1.3,0,1.8-1,1.8-2.3
		c0-1.3-0.6-2.3-1.8-2.3C80.3,35.4,79.7,36.4,79.7,37.7z"/>
</g>
<path class="st3" d="M113.7,13.3h1.2v2.2h1.3v0.9h-1.3v4.8c0,0.6,0.2,0.8,0.8,0.8c0.2,0,0.3,0,0.5,0v1c-0.3,0.1-0.7,0.1-1,0.1
	c-1.2,0-1.5-0.5-1.5-1.5v-5.3h-1.1v-0.9h1.1L113.7,13.3z"/>
<path class="st3" d="M117,13h1.2v1.3H117V13z M117,15.5h1.2V23H117V15.5z"/>
<path class="st3" d="M119.8,15.5h1.1v0.9l0,0c0.4-0.7,1.1-1.1,1.8-1.1c2,0,2,1.5,2,2.4V23h-1.2v-5.2c0-0.6,0-1.5-1.1-1.5
	c-0.8,0-1.4,0.7-1.4,1.5c0,0,0,0,0,0.1V23h-1.2L119.8,15.5z"/>
<path class="st3" d="M131.2,22.5c0,2.2-1,3.1-2.6,3.1c-1.2,0.2-2.3-0.7-2.5-1.9c0,0,0,0,0,0h1.2c0.1,0.7,0.6,1,1.2,1
	c1.5,0,1.5-1.2,1.5-1.7V22l0,0c-0.3,0.6-1,1-1.7,1c-2.2,0-2.3-2.8-2.3-3.8c0-2,0.6-4,2.4-4c0.7,0,1.4,0.5,1.6,1.1l0,0v-0.9h1.1V22.5
	z M127.2,19.2c0,1.2,0.2,2.7,1.4,2.7c1.2,0,1.5-1.2,1.5-2.7s-0.2-3-1.5-3C127.5,16.3,127.2,17.4,127.2,19.2L127.2,19.2z"/>
<path class="st4" d="M43.8,48.6c-2,1.6-4.5,2.5-7.1,2.6c-6,0-10.1-4.5-10.1-10.5s4.1-10.1,10.1-10.1c2.6-0.1,5.2,0.8,7.1,2.6
	l1.2,1.1l6-5.6l-1.5-1.1c-3.5-3.1-8-4.8-12.7-4.9c-9.9-0.2-18.1,7.6-18.3,17.4c0,0.3,0,0.6,0,0.9c-0.2,9.9,7.6,18.1,17.4,18.3
	c0.3,0,0.6,0,0.9,0c4.7,0,9.2-1.7,12.7-4.8l1.5-1.1l-6-6L43.8,48.6z"/>
<circle class="st1" cx="36.3" cy="41.1" r="6"/>
</svg>
