<?xml version="1.0" encoding="utf-8"?>
<!-- Generator: Adobe Illustrator 26.1.0, SVG Export Plug-In . SVG Version: 6.00 Build 0)  -->
<svg version="1.1" id="Layer_1" xmlns="http://www.w3.org/2000/svg" xmlns:xlink="http://www.w3.org/1999/xlink" x="0px" y="0px"
	 viewBox="0 0 219.4 82.3" style="enable-background:new 0 0 219.4 82.3;" xml:space="preserve">
<style type="text/css">
	.st0{fill:#82838B;}
	.st1{fill:#3C5A9A;}
	.st2{fill:#D8D4D6;}
	.st3{fill:#14151B;}
	.st4{fill:#FFFFFF;}
</style>
<g>
	<path class="st0" d="M67.1,58.1h3.2c1.5,0,2.7,0.7,2.7,2.4c0,1.2-0.5,2-1.5,2.3v0c1.1,0.2,1.8,0.9,1.8,2.5c0,1.7-1.2,2.7-3.1,2.7
		h-3.2V58.1z M69.9,62.4c1,0,1.5-0.6,1.5-1.6c0-1.2-0.7-1.4-1.6-1.4h-1.1v3H69.9z M70.3,66.9c1,0,1.5-0.6,1.5-1.8
		c0-1.1-0.6-1.7-1.6-1.7h-1.5v3.5H70.3z"/>
	<path class="st0" d="M79.2,66.6c0,0.3,0.2,0.5,0.4,0.5c0.1,0,0.2,0,0.3,0v1c-0.2,0.1-0.4,0.2-0.7,0.2c-0.7,0-1.2-0.3-1.3-1h0
		c-0.4,0.7-1,1.1-1.9,1.1c-1.2,0-2-0.7-2-2.1c0-1.7,0.7-2,1.8-2.4l1.2-0.3c0.5-0.2,0.9-0.3,0.9-1c0-0.7-0.2-1.1-1-1.1
		c-1,0-1.1,0.7-1.1,1.4h-1.4c0-1.6,0.7-2.5,2.6-2.5c1.3,0,2.4,0.5,2.4,1.8V66.6z M77.8,64.2c-0.4,0.3-1.2,0.5-1.7,0.7
		c-0.4,0.2-0.6,0.7-0.6,1.2c0,0.6,0.3,1.1,0.9,1.1c0.9,0,1.4-0.7,1.4-1.8V64.2z"/>
	<path class="st0" d="M83.8,62.8v-0.2c0-0.6-0.2-1.2-1-1.2c-0.6,0-1.1,0.3-1.1,1c0,0.6,0.3,0.8,1.1,1.1l1,0.3c1.1,0.4,1.6,1,1.6,2.2
		c0,1.6-1.2,2.3-2.7,2.3c-1.9,0-2.5-0.9-2.5-2.3v-0.3h1.3V66c0,0.9,0.3,1.3,1.2,1.3c0.8,0,1.2-0.4,1.2-1.1c0-0.6-0.3-0.9-0.8-1.1
		l-1.2-0.4c-1.1-0.4-1.6-1-1.6-2.2c0-1.4,1-2.1,2.6-2.1c1.9,0,2.4,1.1,2.4,2.1v0.3H83.8z"/>
	<path class="st0" d="M87.6,64.6V65c0,1,0.1,2.3,1.3,2.3c1.1,0,1.2-1.2,1.2-1.7h1.4c0,1.7-1,2.7-2.6,2.7c-1.2,0-2.8-0.4-2.8-3.9
		c0-2,0.4-4.1,2.8-4.1c2.1,0,2.7,1.3,2.7,3.4v0.8H87.6z M90,63.5v-0.4c0-1-0.3-1.7-1.2-1.7c-1,0-1.3,1-1.3,1.9v0.2H90z"/>
	<path class="st0" d="M96.4,67.2L96.4,67.2c-0.2,0.5-0.6,1.1-1.7,1.1c-1.8,0-2.5-1.5-2.5-4.1c0-3.3,1.2-3.9,2.3-3.9
		c0.8,0,1.4,0.4,1.7,1.1h0v-3.3h1.5v10h-1.4V67.2z M95,61.6c-0.9,0-1.2,0.7-1.2,2.7c0,1.7,0.2,2.8,1.3,2.8c1,0,1.3-1.1,1.3-2.7
		C96.4,62.7,96.2,61.6,95,61.6z"/>
	<path class="st0" d="M104.7,60.4c2.2,0,2.8,1.6,2.8,4c0,2.3-0.7,4-2.8,4c-2.1,0-2.8-1.6-2.8-4C101.9,62,102.5,60.4,104.7,60.4z
		 M104.7,67.2c1.1,0,1.3-0.9,1.3-2.8c0-1.7-0.2-2.8-1.3-2.8c-1.1,0-1.3,1.2-1.3,2.8C103.4,66.3,103.6,67.2,104.7,67.2z"/>
	<path class="st0" d="M108.4,60.6h1.4v0.9h0c0.4-0.7,1.1-1.1,1.9-1.1c1.1,0,1.9,0.5,1.9,2v5.7h-1.5V63c0-1-0.3-1.4-1-1.4
		c-0.6,0-1.2,0.5-1.2,1.5v5.1h-1.5V60.6z"/>
	<path class="st0" d="M121.9,60.6c0-0.6-0.3-1.3-1.1-1.3c-1.5,0-1.6,2-1.6,3.4l0,0c0.4-0.7,1.1-1.1,1.9-1.1c1.4,0,2.5,1,2.5,3
		c0,2.3-0.9,3.6-3,3.6c-2.5,0-3-1.9-3-4.7c0-3,0.5-5.4,3.2-5.4c1.7,0,2.7,0.8,2.7,2.4H121.9z M120.8,67.2c1,0,1.3-1,1.3-2.1
		c0-1.4-0.4-2.1-1.3-2.1c-1.2,0-1.4,1-1.4,2.2C119.4,66.3,119.9,67.2,120.8,67.2z"/>
	<path class="st0" d="M124.2,65.4c0-1.5,0.7-2.3,1.7-2.5v0c-0.9-0.3-1.4-1-1.4-2.1c0-1.5,1-2.5,2.7-2.5c1.7,0,2.7,1,2.7,2.5
		c0,1.2-0.5,1.8-1.4,2.1v0c1,0.2,1.7,1,1.7,2.5c0,1.9-1,3-3,3C125.2,68.3,124.2,67.3,124.2,65.4z M127.2,67.2c1.1,0,1.4-0.8,1.4-1.9
		c0-1.1-0.3-1.9-1.4-1.9c-1.1,0-1.4,0.8-1.4,1.9C125.8,66.4,126.1,67.2,127.2,67.2z M127.2,62.4c1,0,1.2-0.7,1.2-1.5
		c0-0.8-0.3-1.5-1.2-1.5c-1,0-1.2,0.7-1.2,1.5C126,61.6,126.2,62.4,127.2,62.4z"/>
	<path class="st0" d="M134.2,60.6h1.5v1.2h0c0.3-0.8,0.9-1.4,1.8-1.4c0.2,0,0.3,0,0.4,0.1V62c-0.1,0-0.4-0.1-0.6-0.1
		c-0.7,0-1.5,0.3-1.5,1.7v4.5h-1.5V60.6z"/>
	<path class="st0" d="M139.6,64.6V65c0,1,0.1,2.3,1.3,2.3c1.1,0,1.2-1.2,1.2-1.7h1.4c0,1.7-1,2.7-2.6,2.7c-1.2,0-2.8-0.4-2.8-3.9
		c0-2,0.4-4.1,2.8-4.1c2.1,0,2.7,1.3,2.7,3.4v0.8H139.6z M142,63.5v-0.4c0-1-0.3-1.7-1.2-1.7c-1,0-1.3,1-1.3,1.9v0.2H142z"/>
	<path class="st0" d="M143.9,60.6h1.6l1.3,5.9h0l1.2-5.9h1.6l-2,7.5H146L143.9,60.6z"/>
	<path class="st0" d="M150.4,58h1.5v1.5h-1.5V58z M150.4,60.6h1.5v7.5h-1.5V60.6z"/>
	<path class="st0" d="M154.5,64.6V65c0,1,0.1,2.3,1.3,2.3c1.1,0,1.2-1.2,1.2-1.7h1.4c0,1.7-1,2.7-2.6,2.7c-1.2,0-2.8-0.4-2.8-3.9
		c0-2,0.4-4.1,2.8-4.1c2.1,0,2.7,1.3,2.7,3.4v0.8H154.5z M156.9,63.5v-0.4c0-1-0.3-1.7-1.2-1.7c-1,0-1.3,1-1.3,1.9v0.2H156.9z"/>
	<path class="st0" d="M158.9,60.6h1.6l1,5.9h0l1.1-5.9h1.7l1.1,5.9h0l1-5.9h1.5l-1.7,7.5h-1.7l-1.2-5.9h0l-1.1,5.9h-1.8L158.9,60.6z
		"/>
	<path class="st0" d="M172.1,62.8v-0.2c0-0.6-0.2-1.2-1-1.2c-0.6,0-1.1,0.3-1.1,1c0,0.6,0.3,0.8,1.1,1.1l1,0.3
		c1.1,0.4,1.6,1,1.6,2.2c0,1.6-1.2,2.3-2.7,2.3c-1.9,0-2.5-0.9-2.5-2.3v-0.3h1.3V66c0,0.9,0.3,1.3,1.2,1.3c0.8,0,1.2-0.4,1.2-1.1
		c0-0.6-0.3-0.9-0.8-1.1l-1.2-0.4c-1.1-0.4-1.6-1-1.6-2.2c0-1.4,1-2.1,2.6-2.1c1.9,0,2.4,1.1,2.4,2.1v0.3H172.1z"/>
</g>
<g>
	<path class="st1" d="M71.9,34.3h1.7v9.2h1.6V45h-1.6v3.4h-1.7V45h-5.1v-1.6L71.9,34.3z M68.4,43.5h3.6v-6.5h0L68.4,43.5z"/>
	<path class="st1" d="M77.2,46.3H79v2.1h-1.8V46.3z"/>
	<path class="st1" d="M89.2,48.4h-7.8c0-2.6,1.5-4.4,3-5.7l1.1-1c1.1-1,1.9-1.8,1.9-3.4c0-1.2-0.5-2.5-2-2.5c-2.2,0-2.2,2.2-2.2,3
		h-1.7c0-2.7,1.1-4.5,4-4.5c3.2,0,3.8,2.5,3.8,3.7c0,2.1-0.9,3.3-2.5,4.6l-2,1.7c-0.8,0.7-1.3,1.5-1.5,2.4h6V48.4z"/>
</g>
<path class="st2" d="M218.4,1v80.3H1V1H218.4 M219.4,0H0v82.3h219.4V0z"/>
<path class="st1" d="M195.6,32.7l1.7,4.2c0.2,0.4,0.6,0.7,1,0.7l4.5,0.3l-3.4,3c-0.3,0.3-0.5,0.7-0.4,1.2l1.1,4.4l-3.9-2.4
	c-0.2-0.1-0.4-0.2-0.6-0.2c-0.2,0-0.4,0.1-0.6,0.2l-3.9,2.4l1.1-4.4c0.1-0.4,0-0.9-0.4-1.2l-3.4-3l4.5-0.3c0.4,0,0.8-0.3,1-0.7
	L195.6,32.7 M195.6,31.5c-0.2,0-0.3,0.1-0.4,0.3l-2,4.9c-0.1,0.2-0.2,0.3-0.4,0.3l-5.3,0.4c-0.2,0-0.4,0.2-0.4,0.5
	c0,0.1,0.1,0.2,0.2,0.3l4,3.4c0.1,0.1,0.2,0.3,0.1,0.4l-1.2,5.1c-0.1,0.2,0.1,0.5,0.3,0.5c0,0,0.1,0,0.1,0c0.1,0,0.2,0,0.2-0.1
	l4.5-2.8c0.1,0,0.2-0.1,0.2-0.1c0.1,0,0.2,0,0.2,0.1l4.5,2.8c0.1,0,0.2,0.1,0.2,0.1c0.2,0,0.4-0.2,0.4-0.5c0,0,0-0.1,0-0.1l-1.2-5.1
	c0-0.2,0-0.3,0.1-0.4l4-3.4c0.2-0.2,0.2-0.4,0.1-0.6c-0.1-0.1-0.2-0.2-0.3-0.2l-5.3-0.4c-0.2,0-0.3-0.1-0.4-0.3l-2-4.9
	C196,31.6,195.8,31.5,195.6,31.5L195.6,31.5z"/>
<path class="st1" d="M194.3,34v11.5l-3.4,2.1c-0.2,0.1-0.5,0.1-0.6-0.1c-0.1-0.1-0.1-0.2-0.1-0.3l1.2-5.1c0-0.2,0-0.3-0.1-0.4
	l-4-3.4c-0.2-0.2-0.2-0.4,0-0.6c0.1-0.1,0.2-0.1,0.3-0.1l5.3-0.4c0.2,0,0.3-0.1,0.4-0.3L194.3,34z"/>
<path class="st1" d="M107.9,31.8l2,4.9c0.1,0.2,0.2,0.3,0.4,0.3l5.3,0.4c0.2,0,0.4,0.2,0.4,0.5c0,0.1-0.1,0.2-0.2,0.3l-4,3.4
	c-0.1,0.1-0.2,0.3-0.1,0.4l1.2,5.1c0.1,0.2-0.1,0.5-0.3,0.5c-0.1,0-0.2,0-0.3-0.1l-4.5-2.8c-0.1-0.1-0.3-0.1-0.5,0l-4.5,2.8
	c-0.2,0.1-0.5,0.1-0.6-0.1c-0.1-0.1-0.1-0.2-0.1-0.3l1.2-5.1c0-0.2,0-0.3-0.1-0.4l-4-3.4C99,38,99,37.7,99.1,37.5
	c0.1-0.1,0.2-0.2,0.3-0.2l5.3-0.4c0.2,0,0.3-0.1,0.4-0.3l2-4.9c0.1-0.2,0.3-0.3,0.6-0.3C107.7,31.6,107.8,31.7,107.9,31.8z"/>
<path class="st1" d="M129.9,31.8l2,4.9c0.1,0.2,0.2,0.3,0.4,0.3l5.3,0.4c0.2,0,0.4,0.2,0.4,0.5c0,0.1-0.1,0.2-0.2,0.3l-4,3.4
	c-0.1,0.1-0.2,0.3-0.1,0.4l1.2,5.1c0.1,0.2-0.1,0.5-0.3,0.5c-0.1,0-0.2,0-0.3-0.1l-4.5-2.8c-0.1-0.1-0.3-0.1-0.5,0l-4.5,2.8
	c-0.2,0.1-0.5,0.1-0.6-0.1c-0.1-0.1-0.1-0.2-0.1-0.3l1.2-5.1c0-0.2,0-0.3-0.2-0.4l-4-3.4c-0.2-0.2-0.2-0.4-0.1-0.6
	c0.1-0.1,0.2-0.2,0.3-0.2l5.3-0.4c0.2,0,0.3-0.1,0.4-0.3l2-4.9c0.1-0.2,0.3-0.3,0.6-0.3C129.8,31.6,129.9,31.7,129.9,31.8z"/>
<path class="st1" d="M152,31.8l2,4.9c0.1,0.2,0.2,0.3,0.4,0.3l5.3,0.4c0.2,0,0.4,0.2,0.4,0.5c0,0.1-0.1,0.2-0.2,0.3l-4,3.4
	c-0.1,0.1-0.2,0.3-0.1,0.4l1.2,5.1c0.1,0.2-0.1,0.5-0.3,0.5c-0.1,0-0.2,0-0.3-0.1l-4.5-2.8c-0.1-0.1-0.3-0.1-0.5,0l-4.5,2.8
	c-0.2,0.1-0.5,0.1-0.6-0.2c-0.1-0.1-0.1-0.2-0.1-0.3l1.2-5.1c0-0.2,0-0.3-0.1-0.4l-4-3.4c-0.2-0.2-0.2-0.4-0.1-0.6
	c0.1-0.1,0.2-0.2,0.3-0.2l5.3-0.4c0.2,0,0.3-0.1,0.4-0.3l2-4.9c0-0.2,0.3-0.4,0.5-0.4C151.8,31.5,152,31.6,152,31.8z"/>
<path class="st1" d="M174,31.8l2,4.9c0.1,0.2,0.2,0.3,0.4,0.3l5.3,0.4c0.2,0,0.4,0.2,0.4,0.5c0,0.1-0.1,0.2-0.2,0.3l-4,3.4
	c-0.1,0.1-0.2,0.3-0.1,0.4l1.2,5.1c0.1,0.2-0.1,0.5-0.3,0.5c-0.1,0-0.2,0-0.3-0.1l-4.5-2.8c-0.1-0.1-0.3-0.1-0.5,0l-4.5,2.8
	c-0.2,0.1-0.5,0.1-0.6-0.1c-0.1-0.1-0.1-0.2-0.1-0.3l1.2-5.1c0-0.2,0-0.3-0.1-0.4l-4-3.4c-0.2-0.2-0.2-0.4-0.1-0.6
	c0.1-0.1,0.2-0.2,0.3-0.2l5.3-0.4c0.2,0,0.3-0.1,0.4-0.3l2-4.9c0.1-0.2,0.3-0.4,0.6-0.3C173.9,31.6,174,31.7,174,31.8z"/>
<path class="st3" d="M66.8,13H72v1.1h-3.9v3.1h3.7v1.1h-3.7V23h-1.2V13z"/>
<path class="st3" d="M72.6,17.7c0-1.7,0.7-2.5,2.5-2.5c2.3,0,2.3,1.4,2.3,2.2v4.2c0,0.3,0,0.6,0.4,0.6c0.1,0,0.2,0,0.3-0.1V23
	c-0.2,0-0.5,0.1-0.7,0.1c-0.4,0-1,0-1.1-1l0,0c-0.4,0.7-1.1,1.1-1.8,1.1c-1,0.1-2-0.6-2.1-1.7c0-0.1,0-0.3,0-0.4
	c-0.1-0.9,0.5-1.8,1.4-2.1l1.6-0.5c0.8-0.3,0.8-0.5,0.8-1.1c0.1-0.5-0.3-1.1-0.8-1.1c-0.1,0-0.3,0-0.4,0c-0.7,0-1.3,0.5-1.3,1.3
	c0,0.1,0,0.1,0,0.2v0.1H72.6z M76.2,18.9c-0.4,0.5-1.5,0.6-2,0.9c-0.4,0.3-0.7,0.7-0.6,1.2c0,0.8,0.3,1.3,1.1,1.3
	c0.8,0,1.5-0.6,1.5-1.4L76.2,18.9z"/>
<path class="st3" d="M82.5,17.7c0-0.7-0.3-1.5-1.2-1.5c-0.7,0-1.5,0.4-1.5,3.1c0,1,0,2.9,1.4,2.9c1,0,1.2-1.1,1.2-1.9h1.2
	c0.2,1.4-0.8,2.6-2.2,2.8c-0.1,0-0.2,0-0.2,0c-1.8,0-2.6-1.3-2.6-3.9c0-1.9,0.4-4,2.7-4c1.3-0.1,2.3,0.9,2.4,2.1c0,0.1,0,0.2,0,0.4
	L82.5,17.7z"/>
<path class="st3" d="M85.9,19.4c0,1.1,0,2.9,1.4,2.9c1.1,0,1.3-1.2,1.3-1.7h1.2c0.1,1.4-1,2.6-2.4,2.7c0,0-0.1,0-0.1,0
	c-1.8,0-2.6-1.3-2.6-3.9c0-1.9,0.4-4,2.7-4s2.5,2,2.5,3.6v0.5L85.9,19.4z M88.6,18.4V18c0-0.8-0.3-1.8-1.3-1.8c-1.2,0-1.4,1.5-1.4,2
	v0.3L88.6,18.4z"/>
<path class="st3" d="M91.1,13h1.2v3.4l0,0c0.3-0.7,1-1.1,1.7-1.1c2,0,2.3,2.4,2.3,4c0,2.1-0.7,4-2.5,4c-0.7,0-1.4-0.5-1.6-1.2l0,0v1
	h-1.2V13z M93.8,22.2c1.1,0,1.4-1.2,1.4-3s-0.3-2.9-1.4-2.9c-1.3,0-1.5,1.5-1.5,2.9S92.5,22.2,93.8,22.2L93.8,22.2z"/>
<path class="st3" d="M100,15.3c2.2,0,2.7,1.8,2.7,4s-0.6,4-2.7,4s-2.7-1.8-2.7-4S97.8,15.3,100,15.3z M101.5,19.3c0-1.6-0.2-3-1.5-3
	s-1.4,1.4-1.4,3s0.2,3,1.4,3S101.4,20.8,101.5,19.3L101.5,19.3z"/>
<path class="st3" d="M106.2,15.3c2.2,0,2.7,1.8,2.7,4s-0.6,4-2.7,4s-2.7-1.8-2.7-4S104,15.3,106.2,15.3z M107.7,19.3
	c0-1.6-0.2-3-1.5-3s-1.4,1.4-1.4,3s0.2,3,1.4,3S107.7,20.8,107.7,19.3L107.7,19.3z"/>
<path class="st3" d="M115.7,23h-1.4l-2.1-3.7l-1,1.2V23H110V13h1.2v6l0,0l2.6-3.5h1.4l-2.2,2.8L115.7,23z"/>
<path class="st3" d="M119.7,13h3.2c1.3-0.1,2.4,0.8,2.6,2.1c0,0.1,0,0.3,0,0.4c0.1,1.1-0.5,2.1-1.5,2.5l0,0c0.8,0.1,1.4,0.8,1.4,1.7
	l0.1,1.7c0.1,1.1,0.2,1.4,0.5,1.6h-1.5c-0.2-0.4-0.3-0.9-0.3-1.4l-0.1-1.5c-0.1-1.4-0.9-1.5-1.5-1.5h-1.7V23h-1.2V13z M120.9,17.5
	h1.2c0.7,0,2.1,0,2.1-1.9c0-1-0.7-1.6-1.8-1.6h-1.5L120.9,17.5z"/>
<path class="st3" d="M126.7,17.7c0-1.7,0.7-2.5,2.5-2.5c2.3,0,2.3,1.4,2.3,2.2v4.2c0,0.3,0,0.6,0.4,0.6c0.1,0,0.2,0,0.3-0.1V23
	c-0.2,0-0.5,0.1-0.7,0.1c-0.4,0-1,0-1.1-1l0,0c-0.4,0.7-1.1,1.1-1.8,1.1c-1,0.1-2-0.6-2.1-1.7c0-0.1,0-0.3,0-0.4
	c-0.1-1,0.5-1.9,1.5-2.1l1.6-0.5c0.9-0.3,0.9-0.5,0.9-1.1c0.1-0.5-0.3-1.1-0.9-1.1c-0.1,0-0.2,0-0.3,0c-0.7,0-1.3,0.5-1.3,1.3
	c0,0.1,0,0.1,0,0.2v0.1H126.7z M130.3,18.9c-0.4,0.5-1.5,0.6-2,0.9c-0.4,0.2-0.6,0.7-0.6,1.2c0,0.8,0.3,1.3,1.1,1.3
	c0.8,0,1.5-0.6,1.5-1.4V18.9z"/>
<path class="st3" d="M133.6,13.3h1.2v2.2h1.3v0.9h-1.3v4.8c0,0.6,0.1,0.8,0.8,0.8c0.2,0,0.3,0,0.5,0v1c-0.3,0.1-0.6,0.1-0.9,0.1
	c-1.2,0-1.5-0.5-1.5-1.5v-5.3h-1.1v-0.9h1.1V13.3z"/>
<path class="st3" d="M137,13h1.2v1.3H137V13z M137,15.5h1.2V23H137V15.5z"/>
<path class="st3" d="M139.7,15.5h1.1v0.9l0,0c0.4-0.7,1.1-1.1,1.8-1.1c2,0,2,1.5,2,2.4V23h-1.2v-5.2c0-0.6,0-1.5-1.1-1.5
	c-0.8,0-1.5,0.6-1.5,1.4c0,0,0,0.1,0,0.1V23h-1.2L139.7,15.5z"/>
<path class="st3" d="M151.2,22.5c0,2.2-1,3.1-2.6,3.1c-1.2,0.2-2.3-0.7-2.5-1.8c0,0,0,0,0,0h1.2c0.1,0.7,0.6,1,1.2,1
	c1.5,0,1.4-1.2,1.4-1.7V22l0,0c-0.3,0.6-1,1-1.7,1c-2.2,0-2.3-2.8-2.3-3.8c0-2,0.5-4,2.4-4c0.7,0,1.4,0.5,1.6,1.2l0,0v-0.9h1.1
	L151.2,22.5z M147.2,19.2c0,1.2,0.2,2.8,1.4,2.8s1.5-1.2,1.5-2.8s-0.2-2.9-1.5-2.9C147.4,16.3,147.2,17.4,147.2,19.2L147.2,19.2z"/>
<circle class="st1" cx="37.8" cy="41.1" r="22.6"/>
<path class="st4" d="M45.2,25.5h-5c-3,0-6.3,1.2-6.3,5.6c0,1.5,0,2.9,0,4.5h-3.4V41H34v15.7h6.5V40.9h4.3l0.4-5.4h-4.8
	c0,0,0-2.4,0-3.1c0-1.7,1.8-1.6,1.9-1.6h2.9C45.2,30.9,45.2,25.5,45.2,25.5z"/>
</svg>
