<?xml version="1.0" encoding="utf-8"?>
<!-- Generator: Adobe Illustrator 26.1.0, SVG Export Plug-In . SVG Version: 6.00 Build 0)  -->
<svg version="1.1" id="a" xmlns="http://www.w3.org/2000/svg" xmlns:xlink="http://www.w3.org/1999/xlink" x="0px" y="0px"
	 viewBox="0 0 219.4 82.3" style="enable-background:new 0 0 219.4 82.3;" xml:space="preserve">
<style type="text/css">
	.st0{fill:#82838B;}
	.st1{fill:#0CAA41;}
	.st2{fill:#FFFFFF;}
	.st3{fill:#D8D4D6;}
	.st4{fill:#3CA93C;}
	.st5{fill:#14151B;}
</style>
<g>
	<path class="st0" d="M66.7,57.4h3.2c1.5,0,2.7,0.7,2.7,2.4c0,1.2-0.5,2-1.5,2.3v0c1.1,0.2,1.8,0.9,1.8,2.5c0,1.7-1.2,2.7-3.1,2.7
		h-3.2V57.4z M69.6,61.6c1,0,1.5-0.6,1.5-1.6c0-1.2-0.7-1.4-1.6-1.4h-1.1v3H69.6z M69.9,66.2c1,0,1.5-0.6,1.5-1.8
		c0-1.1-0.6-1.7-1.6-1.7h-1.5v3.5H69.9z"/>
	<path class="st0" d="M78.8,65.8c0,0.3,0.2,0.5,0.4,0.5c0.1,0,0.2,0,0.3,0v1c-0.2,0.1-0.4,0.2-0.7,0.2c-0.7,0-1.2-0.3-1.3-1h0
		c-0.4,0.7-1,1.1-1.9,1.1c-1.2,0-2-0.7-2-2.1c0-1.7,0.7-2,1.8-2.4l1.2-0.3c0.5-0.2,0.9-0.3,0.9-1c0-0.7-0.2-1.1-1-1.1
		c-1,0-1.1,0.7-1.1,1.4h-1.4c0-1.6,0.7-2.5,2.6-2.5c1.3,0,2.4,0.5,2.4,1.8V65.8z M77.4,63.4c-0.4,0.3-1.2,0.5-1.7,0.7
		c-0.4,0.2-0.6,0.7-0.6,1.2c0,0.6,0.3,1.1,0.9,1.1c0.9,0,1.4-0.7,1.4-1.8V63.4z"/>
	<path class="st0" d="M83.4,62.1v-0.2c0-0.6-0.2-1.2-1-1.2c-0.6,0-1.1,0.3-1.1,1c0,0.6,0.3,0.8,1.1,1.1l1,0.3c1.1,0.4,1.6,1,1.6,2.2
		c0,1.6-1.2,2.3-2.7,2.3c-1.9,0-2.5-0.9-2.5-2.3V65h1.3v0.2c0,0.9,0.3,1.3,1.2,1.3c0.8,0,1.2-0.4,1.2-1.1c0-0.6-0.3-0.9-0.8-1.1
		l-1.2-0.4c-1.1-0.4-1.6-1-1.6-2.2c0-1.4,1-2.1,2.6-2.1c1.9,0,2.4,1.1,2.4,2.1v0.3H83.4z"/>
	<path class="st0" d="M87.2,63.8v0.4c0,1,0.1,2.3,1.3,2.3c1.1,0,1.2-1.2,1.2-1.7h1.4c0,1.7-1,2.7-2.6,2.7c-1.2,0-2.8-0.4-2.8-3.9
		c0-2,0.4-4.1,2.8-4.1c2.1,0,2.7,1.3,2.7,3.4v0.8H87.2z M89.6,62.8v-0.4c0-1-0.3-1.7-1.2-1.7c-1,0-1.3,1-1.3,1.9v0.2H89.6z"/>
	<path class="st0" d="M96,66.5L96,66.5c-0.2,0.5-0.6,1.1-1.7,1.1c-1.8,0-2.5-1.5-2.5-4.1c0-3.3,1.2-3.9,2.3-3.9
		c0.8,0,1.4,0.4,1.7,1.1h0v-3.3h1.5v10H96V66.5z M94.6,60.9c-0.9,0-1.2,0.7-1.2,2.7c0,1.7,0.2,2.8,1.3,2.8c1,0,1.3-1.1,1.3-2.7
		C96,61.9,95.8,60.9,94.6,60.9z"/>
	<path class="st0" d="M104.3,59.7c2.2,0,2.8,1.6,2.8,4c0,2.3-0.7,4-2.8,4c-2.1,0-2.8-1.6-2.8-4C101.5,61.3,102.1,59.7,104.3,59.7z
		 M104.3,66.5c1.1,0,1.3-0.9,1.3-2.8c0-1.7-0.2-2.8-1.3-2.8c-1.1,0-1.3,1.2-1.3,2.8C103,65.5,103.2,66.5,104.3,66.5z"/>
	<path class="st0" d="M108.1,59.9h1.4v0.9h0c0.4-0.7,1.1-1.1,1.9-1.1c1.1,0,1.9,0.5,1.9,2v5.7h-1.5v-5.2c0-1-0.3-1.4-1-1.4
		c-0.6,0-1.2,0.5-1.2,1.5v5.1h-1.5V59.9z"/>
	<path class="st0" d="M119.9,67.4v-7.2h-2.1v-1h0.2c1,0,2.1-0.2,2.3-1.5v-0.2h1.2v9.9H119.9z"/>
	<path class="st0" d="M128.1,59.9c0-0.6-0.3-1.3-1.1-1.3c-1.5,0-1.6,2-1.6,3.4l0,0c0.4-0.7,1.1-1.1,1.9-1.1c1.4,0,2.5,1,2.5,3
		c0,2.3-0.9,3.6-3,3.6c-2.5,0-3-1.9-3-4.7c0-3,0.5-5.4,3.2-5.4c1.7,0,2.7,0.8,2.7,2.4H128.1z M126.9,66.5c1,0,1.3-1,1.3-2.1
		c0-1.4-0.4-2.1-1.3-2.1c-1.2,0-1.4,1-1.4,2.2C125.6,65.6,126,66.5,126.9,66.5z"/>
	<path class="st0" d="M134.6,59.9c0-0.6-0.3-1.3-1.1-1.3c-1.5,0-1.6,2-1.6,3.4l0,0c0.4-0.7,1.1-1.1,1.9-1.1c1.4,0,2.5,1,2.5,3
		c0,2.3-0.9,3.6-3,3.6c-2.5,0-3-1.9-3-4.7c0-3,0.5-5.4,3.2-5.4c1.7,0,2.7,0.8,2.7,2.4H134.6z M133.4,66.5c1,0,1.3-1,1.3-2.1
		c0-1.4-0.4-2.1-1.3-2.1c-1.2,0-1.4,1-1.4,2.2C132,65.6,132.5,66.5,133.4,66.5z"/>
	<path class="st0" d="M140.3,59.9h1.5V61h0c0.3-0.8,0.9-1.4,1.8-1.4c0.2,0,0.3,0,0.4,0.1v1.5c-0.1,0-0.4-0.1-0.6-0.1
		c-0.7,0-1.5,0.3-1.5,1.7v4.5h-1.5V59.9z"/>
	<path class="st0" d="M145.7,63.8v0.4c0,1,0.1,2.3,1.3,2.3c1.1,0,1.2-1.2,1.2-1.7h1.4c0,1.7-1,2.7-2.6,2.7c-1.2,0-2.8-0.4-2.8-3.9
		c0-2,0.4-4.1,2.8-4.1c2.1,0,2.7,1.3,2.7,3.4v0.8H145.7z M148.1,62.8v-0.4c0-1-0.3-1.7-1.2-1.7c-1,0-1.3,1-1.3,1.9v0.2H148.1z"/>
	<path class="st0" d="M150,59.9h1.6l1.3,5.9h0l1.2-5.9h1.6l-2,7.5h-1.8L150,59.9z"/>
	<path class="st0" d="M156.5,57.3h1.5v1.5h-1.5V57.3z M156.5,59.9h1.5v7.5h-1.5V59.9z"/>
	<path class="st0" d="M160.6,63.8v0.4c0,1,0.1,2.3,1.3,2.3c1.1,0,1.2-1.2,1.2-1.7h1.4c0,1.7-1,2.7-2.6,2.7c-1.2,0-2.8-0.4-2.8-3.9
		c0-2,0.4-4.1,2.8-4.1c2.1,0,2.7,1.3,2.7,3.4v0.8H160.6z M163,62.8v-0.4c0-1-0.3-1.7-1.2-1.7c-1,0-1.3,1-1.3,1.9v0.2H163z"/>
	<path class="st0" d="M165,59.9h1.6l1,5.9h0l1.1-5.9h1.7l1.1,5.9h0l1-5.9h1.5l-1.7,7.5h-1.7l-1.2-5.9h0l-1.1,5.9h-1.8L165,59.9z"/>
	<path class="st0" d="M178.2,62.1v-0.2c0-0.6-0.2-1.2-1-1.2c-0.6,0-1.1,0.3-1.1,1c0,0.6,0.3,0.8,1.1,1.1l1,0.3
		c1.1,0.4,1.6,1,1.6,2.2c0,1.6-1.2,2.3-2.7,2.3c-1.9,0-2.5-0.9-2.5-2.3V65h1.3v0.2c0,0.9,0.3,1.3,1.2,1.3c0.8,0,1.2-0.4,1.2-1.1
		c0-0.6-0.3-0.9-0.8-1.1l-1.2-0.4c-1.1-0.4-1.6-1-1.6-2.2c0-1.4,1-2.1,2.6-2.1c1.9,0,2.4,1.1,2.4,2.1v0.3H178.2z"/>
</g>
<g>
	<circle class="st1" cx="37.8" cy="41.1" r="22.5"/>
	<path class="st2" d="M42.7,49.2H29.8c0,1.8,1.4,3.2,3.2,3.2h9.6c1.8,0,3.2-1.4,3.2-3.2V36c0-0.1,0-0.1-0.1-0.1h-3
		c-0.1,0-0.1,0-0.1,0.1L42.7,49.2L42.7,49.2L42.7,49.2z M42.7,29.9c1.8,0,3.2,1.4,3.2,3.2H33v13.2c0,0.1,0,0.1-0.1,0.1h-3
		c-0.1,0-0.1,0-0.1-0.1V33.1c0-1.8,1.4-3.2,3.2-3.2H42.7z"/>
</g>
<path class="st3" d="M218.4,1v80.3H1V1H218.4 M219.4,0H0v82.3h219.4V0L219.4,0z"/>
<path class="st4" d="M107.9,31.8l2,4.9c0.1,0.2,0.2,0.3,0.4,0.3l5.3,0.4c0.4,0,0.6,0.5,0.2,0.8l-4,3.4c-0.1,0.1-0.2,0.3-0.1,0.4
	l1.2,5.1c0.1,0.4-0.3,0.7-0.7,0.5l-4.5-2.8c-0.1-0.1-0.3-0.1-0.5,0l-4.5,2.8c-0.3,0.2-0.8-0.1-0.7-0.5l1.2-5.1c0-0.2,0-0.3-0.1-0.4
	l-4-3.4c-0.3-0.3-0.1-0.8,0.2-0.8l5.3-0.4c0.2,0,0.3-0.1,0.4-0.3l2-4.9C107.2,31.4,107.7,31.4,107.9,31.8z"/>
<path class="st4" d="M129.9,31.8l2,4.9c0.1,0.2,0.2,0.3,0.4,0.3l5.3,0.4c0.4,0,0.6,0.5,0.2,0.8l-4,3.4c-0.1,0.1-0.2,0.3-0.1,0.4
	l1.2,5.1c0.1,0.4-0.3,0.7-0.7,0.5l-4.5-2.8c-0.1-0.1-0.3-0.1-0.5,0l-4.5,2.8c-0.3,0.2-0.8-0.1-0.7-0.5l1.2-5.1c0-0.2,0-0.3-0.1-0.4
	l-4-3.4c-0.3-0.3-0.1-0.8,0.2-0.8l5.3-0.4c0.2,0,0.3-0.1,0.4-0.3l2-4.9C129.2,31.4,129.8,31.4,129.9,31.8L129.9,31.8z"/>
<g>
	<path class="st4" d="M71.5,34.2h1.7v9.2h1.6v1.4h-1.6v3.4h-1.7v-3.4h-5.1v-1.6L71.5,34.2z M68,43.4h3.6v-6.5h0L68,43.4z"/>
	<path class="st4" d="M76.8,46.1h1.8v2.1h-1.8V46.1z"/>
	<path class="st4" d="M82.1,34.4h6.3V36h-4.9L82.8,40l0,0c0.6-0.7,1.5-1,2.5-1c2.1,0,3.5,1.7,3.5,4.6c0,2.6-1.1,4.8-4.1,4.8
		c-3.3,0-3.8-2.8-3.8-3.9h1.7c0,0.7,0.3,2.6,2.1,2.6c2,0,2.3-2.2,2.3-3.6c0-1.5-0.6-3.2-2.3-3.2c-1.2,0-2,1-2,1.4l-1.5-0.1
		L82.1,34.4z"/>
</g>
<path class="st4" d="M151.9,31.8l2,4.9c0.1,0.2,0.2,0.3,0.4,0.3l5.3,0.4c0.4,0,0.6,0.5,0.2,0.8l-4,3.4c-0.1,0.1-0.2,0.3-0.1,0.4
	l1.2,5.1c0.1,0.4-0.3,0.7-0.7,0.5l-4.5-2.8c-0.1-0.1-0.3-0.1-0.5,0l-4.5,2.8c-0.3,0.2-0.8-0.1-0.7-0.5l1.2-5.1c0-0.2,0-0.3-0.1-0.4
	l-4-3.4c-0.3-0.3-0.1-0.8,0.2-0.8l5.3-0.4c0.2,0,0.3-0.1,0.4-0.3l2-4.9C151.3,31.4,151.8,31.4,151.9,31.8L151.9,31.8z"/>
<path class="st4" d="M174,31.8l2,4.9c0.1,0.2,0.2,0.3,0.4,0.3l5.3,0.4c0.4,0,0.6,0.5,0.2,0.8l-4,3.4c-0.1,0.1-0.2,0.3-0.1,0.4
	l1.2,5.1c0.1,0.4-0.3,0.7-0.7,0.5l-4.5-2.8c-0.1-0.1-0.3-0.1-0.5,0l-4.5,2.8c-0.3,0.2-0.8-0.1-0.7-0.5l1.2-5.1c0-0.2,0-0.3-0.1-0.4
	l-4-3.4c-0.3-0.3-0.1-0.8,0.2-0.8l5.3-0.4c0.2,0,0.3-0.1,0.4-0.3l2-4.9C173.3,31.4,173.8,31.4,174,31.8L174,31.8z"/>
<g>
	<path class="st5" d="M71.6,15.7c-0.1-1.1-0.4-2-1.7-2c-1.7,0-1.9,1.9-1.9,4.2s0.2,4.2,1.9,4.2s1.8-2,1.8-3.4h-2v-1h3.1V23H72v-1.4
		h0c-0.3,0.9-1.1,1.6-2.2,1.6c-2.6,0-3.1-2.5-3.1-5.2c0-2.5,0.5-5.2,3.2-5.2s2.9,2.4,3,3L71.6,15.7L71.6,15.7z"/>
	<path class="st5" d="M74.4,13h1.2v10h-1.2V13z"/>
	<path class="st5" d="M77,17.7c0-1.7,0.7-2.5,2.5-2.5c2.3,0,2.3,1.4,2.3,2.2v4.2c0,0.3,0,0.6,0.4,0.6c0.2,0,0.2,0,0.3-0.1V23
		c-0.1,0-0.4,0.1-0.7,0.1c-0.4,0-1,0-1.1-1h0c-0.4,0.7-1.1,1.1-1.8,1.1c-1.4,0-2-0.8-2-2.2c0-1,0.4-1.8,1.4-2.1l1.6-0.5
		c0.8-0.3,0.8-0.5,0.8-1.1c0-0.7-0.4-1.1-1.2-1.1c-1.3,0-1.3,1.2-1.3,1.5v0.1L77,17.7L77,17.7z M80.6,18.9c-0.4,0.5-1.5,0.6-2,0.9
		c-0.4,0.2-0.6,0.5-0.6,1.2c0,0.8,0.3,1.3,1.1,1.3s1.5-0.7,1.5-1.4C80.6,20.8,80.6,18.9,80.6,18.9z"/>
	<path class="st5" d="M86.6,17.7c0-1-0.2-1.5-1.1-1.5c-0.4,0-1.2,0.1-1.2,1.1c0,0.9,0.9,1,1.8,1.4c0.9,0.3,1.8,0.6,1.8,2.1
		c0,1.6-1,2.4-2.4,2.4c-2.6,0-2.6-1.9-2.6-2.7h1.2c0,0.9,0.2,1.7,1.4,1.7c0.4,0,1.2-0.2,1.2-1.2c0-1-0.9-1.2-1.8-1.5
		c-0.9-0.3-1.8-0.6-1.8-2.1c0-1.4,1.1-2.1,2.4-2.1c2.2,0,2.3,1.5,2.3,2.4H86.6z"/>
	<path class="st5" d="M92.3,17.7c0-1-0.2-1.5-1.1-1.5c-0.4,0-1.2,0.1-1.2,1.1c0,0.9,0.9,1,1.8,1.4c0.9,0.3,1.8,0.6,1.8,2.1
		c0,1.6-1,2.4-2.4,2.4c-2.6,0-2.6-1.9-2.6-2.7h1.2c0,0.9,0.2,1.7,1.4,1.7c0.4,0,1.2-0.2,1.2-1.2c0-1-0.9-1.2-1.8-1.5
		c-0.9-0.3-1.8-0.6-1.8-2.1c0-1.4,1.1-2.1,2.4-2.1c2.2,0,2.3,1.5,2.3,2.4H92.3z"/>
	<path class="st5" d="M99.7,23h-1.1V22h0c-0.2,0.6-0.8,1.1-1.6,1.1c-1.8,0-2.4-1.6-2.4-4c0-1.6,0.2-3.9,2.4-3.9
		c0.7,0,1.4,0.4,1.7,1.1h0V13h1.2L99.7,23L99.7,23z M97.1,22.2c1.3,0,1.5-1.2,1.5-2.9c0-1.5-0.2-2.9-1.5-2.9c-1.1,0-1.4,1.1-1.4,2.9
		S96,22.2,97.1,22.2z"/>
	<path class="st5" d="M103.6,15.3c2.2,0,2.7,1.8,2.7,4s-0.6,4-2.7,4s-2.7-1.8-2.7-4S101.5,15.3,103.6,15.3z M105.1,19.2
		c0-1.6-0.2-3-1.5-3c-1.2,0-1.4,1.4-1.4,3s0.2,3,1.4,3S105.1,20.8,105.1,19.2z"/>
	<path class="st5" d="M109.8,15.3c2.2,0,2.7,1.8,2.7,4s-0.6,4-2.7,4s-2.7-1.8-2.7-4S107.7,15.3,109.8,15.3z M111.3,19.2
		c0-1.6-0.2-3-1.5-3c-1.2,0-1.4,1.4-1.4,3s0.2,3,1.4,3S111.3,20.8,111.3,19.2z"/>
	<path class="st5" d="M113.7,15.5h1.2v1.1h0c0.3-0.7,0.8-1.3,1.6-1.3c0.2,0,0.4,0,0.5,0.1v1.1c-0.1,0-0.2-0.1-0.6-0.1
		c-0.6,0-1.5,0.5-1.5,1.8V23h-1.2V15.5L113.7,15.5z"/>
	<path class="st5" d="M121.2,13h3.2c1.6,0,2.6,0.9,2.6,2.5c0,1.1-0.4,2.2-1.5,2.5v0c0.9,0.1,1.4,0.8,1.4,1.7l0.1,1.7
		c0.1,1.1,0.2,1.4,0.5,1.6h-1.5c-0.2-0.2-0.3-1-0.3-1.4l-0.1-1.5c-0.1-1.4-0.8-1.5-1.5-1.5h-1.7V23h-1.2L121.2,13L121.2,13z
		 M122.5,17.5h1.2c0.7,0,2.1,0,2.1-1.9c0-1-0.7-1.6-1.8-1.6h-1.5V17.5z"/>
	<path class="st5" d="M128.3,17.7c0-1.7,0.7-2.5,2.5-2.5c2.3,0,2.3,1.4,2.3,2.2v4.2c0,0.3,0,0.6,0.4,0.6c0.1,0,0.2,0,0.3-0.1V23
		c-0.1,0-0.4,0.1-0.7,0.1c-0.4,0-1,0-1.1-1h0c-0.4,0.7-1.1,1.1-1.8,1.1c-1.4,0-2-0.8-2-2.2c0-1,0.4-1.8,1.4-2.1l1.6-0.5
		c0.9-0.3,0.9-0.5,0.9-1.1c0-0.7-0.4-1.1-1.2-1.1c-1.3,0-1.3,1.2-1.3,1.5v0.1L128.3,17.7L128.3,17.7z M131.9,18.9
		c-0.4,0.5-1.5,0.6-2,0.9c-0.4,0.2-0.6,0.5-0.6,1.2c0,0.8,0.3,1.3,1.1,1.3s1.5-0.7,1.5-1.4C131.9,20.8,131.9,18.9,131.9,18.9z"/>
	<path class="st5" d="M135.2,13.3h1.2v2.2h1.3v0.9h-1.3v4.8c0,0.6,0.1,0.8,0.8,0.8c0.2,0,0.4,0,0.5,0v1c-0.1,0-0.5,0.1-0.9,0.1
		c-1.2,0-1.5-0.5-1.5-1.5v-5.2h-1.1v-0.9h1.1L135.2,13.3L135.2,13.3z"/>
	<path class="st5" d="M138.5,13h1.2v1.3h-1.2V13z M138.5,15.5h1.2V23h-1.2C138.5,23,138.5,15.5,138.5,15.5z"/>
	<path class="st5" d="M141.3,15.5h1.1v0.9h0c0.3-0.7,1.1-1.1,1.8-1.1c2,0,2,1.5,2,2.4V23h-1.2v-5.2c0-0.6,0-1.5-1.1-1.5
		c-0.6,0-1.5,0.4-1.5,1.5V23h-1.2L141.3,15.5L141.3,15.5z"/>
	<path class="st5" d="M152.7,22.5c0,2.2-1,3-2.6,3c-0.5,0-2.3,0-2.5-1.9h1.2c0.1,0.7,0.6,1,1.2,1c1.5,0,1.5-1.2,1.5-1.7v-1h0
		c-0.2,0.6-0.9,1-1.7,1c-2.2,0-2.3-2.8-2.3-3.8c0-2,0.6-3.9,2.4-3.9c0.8,0,1.5,0.6,1.6,1.2h0v-0.9h1.1L152.7,22.5L152.7,22.5z
		 M148.8,19.2c0,1.2,0.2,2.8,1.4,2.8c1.3,0,1.5-1.2,1.5-2.8c0-1.5-0.2-2.9-1.5-2.9C149,16.3,148.8,17.4,148.8,19.2L148.8,19.2z"/>
</g>
<path class="st4" d="M195.6,32.7l1.7,4.2c0.2,0.4,0.6,0.7,1,0.7l4.5,0.3l-3.4,2.9c-0.3,0.3-0.5,0.8-0.4,1.2l1.1,4.4l-3.9-2.4
	c-0.2-0.1-0.4-0.2-0.6-0.2s-0.4,0.1-0.6,0.2l-3.9,2.4l1.1-4.4c0.1-0.4,0-0.9-0.4-1.2l-3.4-2.9l4.5-0.3c0.4,0,0.8-0.3,1-0.7
	L195.6,32.7 M195.6,31.5c-0.2,0-0.3,0.1-0.4,0.3l-2,4.9c-0.1,0.2-0.2,0.3-0.4,0.3l-5.3,0.4c-0.4,0-0.6,0.5-0.2,0.8l4,3.4
	c0.1,0.1,0.2,0.3,0.1,0.4l-1.2,5.1c-0.1,0.3,0.2,0.5,0.4,0.5c0.1,0,0.2,0,0.2-0.1l4.5-2.8c0.1,0,0.1-0.1,0.2-0.1s0.2,0,0.2,0.1
	l4.5,2.8c0.1,0,0.1,0.1,0.2,0.1c0.3,0,0.5-0.2,0.4-0.5l-1.2-5.1c0-0.2,0-0.3,0.1-0.4l4-3.4c0.3-0.3,0.1-0.8-0.2-0.8l-5.3-0.4
	c-0.2,0-0.3-0.1-0.4-0.3l-2-4.9C195.9,31.6,195.8,31.5,195.6,31.5L195.6,31.5L195.6,31.5z"/>
<path class="st4" d="M195.6,32.3V44l-1.3,0.8v0.7l-3.4,2.1c-0.3,0.2-0.8-0.1-0.7-0.5l1.2-5.1c0-0.2,0-0.3-0.1-0.4l-4-3.4
	c-0.3-0.2-0.1-0.7,0.3-0.8l5.3-0.4c0.2,0,0.3-0.1,0.4-0.3l1.1-2.7v1.3L195.6,32.3z"/>
</svg>
