<?xml version="1.0" encoding="UTF-8"?><svg id="a" xmlns="http://www.w3.org/2000/svg" viewBox="0 0 219.36 82.26"><defs><style>.b{fill:#eb4335;}.c{fill:#d8d4d6;}.d{fill:#4285f4;}.e{fill:#fbbc05;}.f{fill:#82838b;}.g{fill:#e8731d;}.h{fill:#14151b;}.i{fill:#34a853;}</style></defs><path class="g" d="M108.18,31.77l2.01,4.88c.06,.15,.21,.26,.38,.27l5.26,.41c.39,.03,.55,.52,.25,.78l-4.02,3.42c-.13,.11-.18,.28-.14,.44l1.24,5.13c.09,.38-.33,.69-.66,.48l-4.5-2.77c-.14-.09-.32-.09-.46,0l-4.5,2.77c-.34,.21-.76-.1-.66-.48l1.24-5.13c.04-.16-.02-.33-.14-.44l-4.02-3.42c-.3-.26-.14-.75,.25-.78l5.26-.41c.17-.01,.31-.12,.38-.27l2.01-4.88c.15-.37,.67-.37,.82,0Z"/><path class="g" d="M130.22,31.77l2.01,4.88c.06,.15,.21,.26,.38,.27l5.26,.41c.39,.03,.55,.52,.25,.78l-4.02,3.42c-.13,.11-.18,.28-.14,.44l1.24,5.13c.09,.38-.33,.69-.66,.48l-4.5-2.77c-.14-.09-.32-.09-.46,0l-4.5,2.77c-.34,.21-.76-.1-.66-.48l1.24-5.13c.04-.16-.02-.33-.14-.44l-4.02-3.42c-.3-.26-.14-.75,.25-.78l5.26-.41c.17-.01,.31-.12,.38-.27l2.01-4.88c.15-.37,.67-.37,.82,0Z"/><path class="g" d="M152.26,31.77l2.01,4.88c.06,.15,.21,.26,.38,.27l5.26,.41c.39,.03,.55,.52,.25,.78l-4.02,3.42c-.13,.11-.18,.28-.14,.44l1.24,5.13c.09,.38-.33,.69-.66,.48l-4.5-2.77c-.14-.09-.32-.09-.46,0l-4.5,2.77c-.34,.21-.76-.1-.66-.48l1.24-5.13c.04-.16-.02-.33-.14-.44l-4.02-3.42c-.3-.26-.14-.75,.25-.78l5.26-.41c.17-.01,.31-.12,.38-.27l2.01-4.88c.15-.37,.67-.37,.82,0Z"/><path class="g" d="M174.29,31.77l2.01,4.88c.06,.15,.21,.26,.38,.27l5.26,.41c.39,.03,.55,.52,.25,.78l-4.02,3.42c-.13,.11-.18,.28-.14,.44l1.24,5.13c.09,.38-.33,.69-.66,.48l-4.5-2.77c-.14-.09-.32-.09-.46,0l-4.5,2.77c-.34,.21-.76-.1-.66-.48l1.24-5.13c.04-.16-.02-.33-.14-.44l-4.02-3.42c-.3-.26-.14-.75,.25-.78l5.26-.41c.17-.01,.31-.12,.38-.27l2.01-4.88c.15-.37,.67-.37,.82,0Z"/><path class="g" d="M195.92,32.74l1.73,4.19c.17,.42,.56,.7,1.01,.74l4.52,.35-3.45,2.94c-.34,.29-.49,.75-.39,1.19l1.07,4.41-3.86-2.38c-.19-.12-.4-.18-.63-.18s-.44,.06-.63,.18l-3.86,2.38,1.07-4.41c.11-.44-.04-.9-.39-1.19l-3.45-2.94,4.52-.35c.45-.03,.84-.32,1.01-.74l1.73-4.19m0-1.25c-.17,0-.33,.09-.41,.27l-2.01,4.88c-.06,.15-.21,.26-.38,.27l-5.26,.4c-.39,.03-.55,.52-.25,.78l4.02,3.42c.13,.11,.18,.28,.14,.44l-1.24,5.13c-.07,.3,.16,.55,.43,.55,.08,0,.16-.02,.23-.07l4.5-2.77c.07-.04,.15-.07,.23-.07s.16,.02,.23,.07l4.5,2.77c.08,.05,.15,.07,.23,.07,.27,0,.5-.25,.43-.55l-1.24-5.13c-.04-.16,.02-.33,.14-.44l4.02-3.42c.3-.26,.14-.75-.25-.78l-5.26-.4c-.17-.01-.31-.12-.38-.27l-2.01-4.88c-.08-.18-.24-.27-.41-.27h0Z"/><g><path class="f" d="M67.17,57.88h3.24c1.48,0,2.69,.66,2.69,2.42,0,1.22-.48,1.96-1.47,2.27v.03c1.09,.2,1.79,.85,1.79,2.55s-1.21,2.73-3.08,2.73h-3.17v-10Zm2.86,4.22c.97,0,1.47-.64,1.47-1.58,0-1.19-.71-1.43-1.61-1.43h-1.12v3.01h1.26Zm.32,4.58c.95,0,1.47-.62,1.47-1.76,0-1.08-.64-1.7-1.57-1.7h-1.48v3.46h1.58Z"/><path class="f" d="M79.25,66.32c0,.28,.17,.53,.39,.53,.1,0,.2-.01,.25-.04v.98c-.18,.08-.45,.18-.74,.18-.67,0-1.23-.27-1.28-1h-.03c-.41,.74-1,1.11-1.88,1.11-1.21,0-1.96-.67-1.96-2.12,0-1.68,.73-2.03,1.75-2.37l1.18-.32c.55-.15,.88-.31,.88-.97s-.24-1.12-1.04-1.12c-1.01,0-1.15,.71-1.15,1.44h-1.43c0-1.6,.66-2.48,2.65-2.48,1.33,0,2.4,.52,2.4,1.85v4.31Zm-1.43-2.41c-.39,.31-1.23,.49-1.68,.7-.43,.21-.62,.66-.62,1.22,0,.63,.31,1.13,.94,1.13,.91,0,1.36-.69,1.36-1.79v-1.26Z"/><path class="f" d="M83.76,62.55v-.2c0-.6-.21-1.16-.99-1.16-.6,0-1.08,.28-1.08,.98,0,.59,.27,.83,1.07,1.11l.97,.34c1.12,.38,1.64,.98,1.64,2.17,0,1.61-1.18,2.3-2.7,2.3-1.91,0-2.48-.88-2.48-2.34v-.28h1.34v.24c0,.87,.31,1.34,1.18,1.34s1.23-.42,1.23-1.11c0-.56-.29-.92-.83-1.11l-1.23-.43c-1.13-.39-1.61-.97-1.61-2.17,0-1.42,1.02-2.07,2.58-2.07,1.92,0,2.35,1.12,2.35,2.06v.34h-1.43Z"/><path class="f" d="M87.5,64.31v.43c0,1.01,.13,2.3,1.26,2.3s1.2-1.23,1.2-1.68h1.43c0,1.67-1.01,2.72-2.65,2.72-1.23,0-2.76-.36-2.76-3.85,0-1.97,.42-4.08,2.79-4.08,2.1,0,2.66,1.26,2.66,3.36v.8h-3.94Zm2.42-1.04v-.41c0-.95-.31-1.68-1.16-1.68-.97,0-1.26,.95-1.26,1.93v.15h2.42Z"/><path class="f" d="M96.25,66.96h-.03c-.2,.49-.57,1.12-1.65,1.12-1.76,0-2.47-1.47-2.47-4.06,0-3.35,1.18-3.87,2.33-3.87,.81,0,1.43,.41,1.71,1.08h.03v-3.35h1.51v10h-1.43v-.92Zm-1.37-5.6c-.87,0-1.18,.7-1.18,2.73,0,1.71,.22,2.79,1.27,2.79s1.27-1.06,1.27-2.68c0-1.81-.21-2.84-1.37-2.84Z"/><path class="f" d="M104.44,60.15c2.2,0,2.82,1.62,2.82,3.96s-.71,3.96-2.82,3.96-2.8-1.62-2.8-3.96,.62-3.96,2.8-3.96Zm0,6.81c1.11,0,1.3-.92,1.3-2.84,0-1.67-.2-2.84-1.3-2.84s-1.29,1.18-1.29,2.84c0,1.92,.2,2.84,1.29,2.84Z"/><path class="f" d="M108.13,60.35h1.43v.88h.04c.38-.67,1.09-1.08,1.93-1.08,1.15,0,1.88,.52,1.88,2.04v5.69h-1.51v-5.17c0-.98-.29-1.36-1.05-1.36-.62,0-1.21,.49-1.21,1.47v5.06h-1.51v-7.54Z"/><path class="f" d="M117.23,64.29l3.43-6.32h1.62v6.42h1.08v1.27h-1.08v2.23h-1.51v-2.23h-3.54v-1.37Zm3.54-3.99h-.03l-2.23,4.09h2.25v-4.09Z"/><path class="f" d="M129.64,67.89h-5.8c0-4.31,4.16-4.22,4.16-7.3,0-.81-.35-1.5-1.23-1.5-1.19,0-1.39,1.06-1.39,2.07h-1.51c0-1.98,.81-3.19,2.93-3.19s2.8,1.21,2.8,2.65c0,3.29-3.22,3.5-3.98,5.93h4.02v1.34Z"/><path class="f" d="M130.18,65.11c0-1.47,.71-2.28,1.69-2.48v-.03c-.85-.29-1.37-.95-1.37-2.14,0-1.54,1.02-2.49,2.67-2.49s2.68,.95,2.68,2.49c0,1.19-.52,1.85-1.37,2.14v.03c.98,.2,1.7,1.01,1.7,2.48,0,1.95-.97,2.97-3,2.97s-3-1.02-3-2.97Zm3,1.85c1.12,0,1.4-.84,1.4-1.88s-.28-1.88-1.4-1.88-1.4,.83-1.4,1.88,.28,1.88,1.4,1.88Zm0-4.88c1,0,1.25-.71,1.25-1.51s-.25-1.48-1.25-1.48-1.25,.7-1.25,1.48,.25,1.51,1.25,1.51Z"/><path class="f" d="M140.07,60.35h1.51v1.18h.03c.34-.84,.9-1.37,1.75-1.37,.17,0,.27,.03,.36,.06v1.54c-.11-.03-.38-.08-.63-.08-.69,0-1.51,.31-1.51,1.71v4.51h-1.51v-7.54Z"/><path class="f" d="M145.42,64.31v.43c0,1.01,.13,2.3,1.26,2.3s1.2-1.23,1.2-1.68h1.43c0,1.67-1.01,2.72-2.65,2.72-1.23,0-2.76-.36-2.76-3.85,0-1.97,.42-4.08,2.79-4.08,2.1,0,2.66,1.26,2.66,3.36v.8h-3.94Zm2.42-1.04v-.41c0-.95-.31-1.68-1.16-1.68-.97,0-1.26,.95-1.26,1.93v.15h2.42Z"/><path class="f" d="M149.68,60.35h1.62l1.32,5.94h.03l1.19-5.94h1.61l-1.99,7.54h-1.76l-2.02-7.54Z"/><path class="f" d="M156.07,57.77h1.51v1.51h-1.51v-1.51Zm0,2.58h1.51v7.54h-1.51v-7.54Z"/><path class="f" d="M160.13,64.31v.43c0,1.01,.13,2.3,1.26,2.3s1.2-1.23,1.2-1.68h1.43c0,1.67-1.01,2.72-2.65,2.72-1.23,0-2.76-.36-2.76-3.85,0-1.97,.42-4.08,2.79-4.08,2.1,0,2.66,1.26,2.66,3.36v.8h-3.94Zm2.42-1.04v-.41c0-.95-.31-1.68-1.16-1.68-.97,0-1.26,.95-1.26,1.93v.15h2.42Z"/><path class="f" d="M164.51,60.35h1.57l1.05,5.94h.03l1.12-5.94h1.71l1.12,5.94h.03l1.04-5.94h1.51l-1.72,7.54h-1.69l-1.18-5.86h-.03l-1.08,5.86h-1.77l-1.71-7.54Z"/><path class="f" d="M177.59,62.55v-.2c0-.6-.21-1.16-.99-1.16-.6,0-1.08,.28-1.08,.98,0,.59,.27,.83,1.07,1.11l.97,.34c1.12,.38,1.64,.98,1.64,2.17,0,1.61-1.18,2.3-2.7,2.3-1.91,0-2.48-.88-2.48-2.34v-.28h1.34v.24c0,.87,.31,1.34,1.18,1.34s1.23-.42,1.23-1.11c0-.56-.29-.92-.83-1.11l-1.23-.43c-1.13-.39-1.61-.97-1.61-2.17,0-1.42,1.02-2.07,2.58-2.07,1.92,0,2.35,1.12,2.35,2.06v.34h-1.43Z"/></g><g><path class="h" d="M71.9,15.74c-.06-1.05-.45-1.96-1.67-1.96-1.71,0-1.93,1.88-1.93,4.19s.22,4.19,1.93,4.19,1.83-2.04,1.83-3.38h-1.98v-1.01h3.1v5.2h-.92v-1.36h-.03c-.27,.85-1.06,1.56-2.16,1.56-2.61,0-3.07-2.51-3.07-5.2,0-2.52,.46-5.2,3.22-5.2s2.94,2.45,2.96,2.97h-1.29Z"/><path class="h" d="M76.97,15.26c2.17,0,2.7,1.83,2.7,3.95s-.55,3.95-2.7,3.95-2.7-1.83-2.7-3.95,.55-3.95,2.7-3.95Zm1.47,3.95c0-1.62-.24-3.03-1.5-3.03-1.19,0-1.44,1.4-1.44,3.03s.24,3.03,1.44,3.03,1.5-1.4,1.5-3.03Z"/><path class="h" d="M83.19,15.26c2.17,0,2.7,1.83,2.7,3.95s-.55,3.95-2.7,3.95-2.7-1.83-2.7-3.95,.55-3.95,2.7-3.95Zm1.47,3.95c0-1.62-.24-3.03-1.5-3.03-1.19,0-1.44,1.4-1.44,3.03s.24,3.03,1.44,3.03,1.5-1.4,1.5-3.03Z"/><path class="h" d="M92.01,22.49c0,2.24-1.04,3.05-2.55,3.05-.46,0-2.27,0-2.47-1.88h1.18c.06,.69,.59,.95,1.21,.95,1.51,0,1.46-1.16,1.46-1.68v-.98h-.03c-.25,.63-.95,1.01-1.7,1.01-2.18,0-2.33-2.76-2.33-3.75,0-2.03,.55-3.95,2.45-3.95,.81,0,1.47,.56,1.62,1.15h.03v-.95h1.12v7.03Zm-3.99-3.28c0,1.22,.18,2.75,1.36,2.75,1.27,0,1.53-1.2,1.53-2.75,0-1.46-.25-2.94-1.51-2.94-1.09,0-1.37,1.15-1.37,2.94Z"/><path class="h" d="M93.61,12.97h1.18v10h-1.18V12.97Z"/><path class="h" d="M97.38,19.35c0,1.15,0,2.89,1.44,2.89,1.12,0,1.27-1.18,1.27-1.74h1.18c0,.8-.48,2.66-2.52,2.66-1.83,0-2.61-1.27-2.61-3.85,0-1.88,.36-4.05,2.68-4.05s2.51,2,2.51,3.61v.48h-3.95Zm2.72-.92v-.41c0-.84-.27-1.83-1.3-1.83-1.23,0-1.37,1.51-1.37,1.96v.28h2.68Z"/><path class="h" d="M106.02,12.97h3.24c1.57,0,2.56,.92,2.56,2.51,0,1.09-.38,2.24-1.54,2.52v.03c.87,.1,1.36,.81,1.42,1.67l.08,1.71c.06,1.11,.24,1.39,.53,1.57h-1.48c-.21-.21-.31-.95-.34-1.44l-.08-1.55c-.1-1.37-.85-1.46-1.48-1.46h-1.67v4.45h-1.23V12.97Zm1.23,4.54h1.22c.73,0,2.06,0,2.06-1.93,0-.98-.66-1.6-1.81-1.6h-1.47v3.53Z"/><path class="h" d="M113.06,17.73c0-1.71,.73-2.47,2.52-2.47,2.28,0,2.28,1.37,2.28,2.16v4.19c0,.31,0,.6,.36,.6,.15,0,.22-.03,.28-.07v.84c-.08,.01-.39,.07-.69,.07-.45,0-1.01,0-1.07-.97h-.03c-.38,.67-1.11,1.08-1.81,1.08-1.4,0-2.04-.84-2.04-2.19,0-1.05,.45-1.78,1.42-2.07l1.58-.48c.85-.27,.85-.5,.85-1.13,0-.7-.42-1.11-1.21-1.11-1.29,0-1.29,1.2-1.29,1.47v.07h-1.18Zm3.63,1.15c-.43,.46-1.47,.56-2,.88-.38,.24-.58,.53-.58,1.19,0,.76,.27,1.29,1.07,1.29s1.51-.66,1.51-1.43v-1.93Z"/><path class="h" d="M119.95,13.28h1.18v2.19h1.3v.92h-1.3v4.82c0,.6,.15,.84,.77,.84,.25,0,.39-.03,.52-.04v.97c-.15,.03-.46,.08-.95,.08-1.22,0-1.51-.5-1.51-1.48v-5.18h-1.09v-.92h1.09v-2.19Z"/><path class="h" d="M123.29,12.97h1.18v1.34h-1.18v-1.34Zm0,2.49h1.18v7.51h-1.18v-7.51Z"/><path class="h" d="M126.08,15.46h1.12v.88h.03c.31-.69,1.09-1.08,1.82-1.08,1.97,0,1.97,1.5,1.97,2.38v5.32h-1.18v-5.18c0-.57-.04-1.51-1.11-1.51-.63,0-1.48,.42-1.48,1.51v5.18h-1.18v-7.51Z"/><path class="h" d="M137.51,22.49c0,2.24-1.04,3.05-2.55,3.05-.46,0-2.27,0-2.47-1.88h1.18c.06,.69,.59,.95,1.21,.95,1.51,0,1.46-1.16,1.46-1.68v-.98h-.03c-.25,.63-.95,1.01-1.7,1.01-2.18,0-2.33-2.76-2.33-3.75,0-2.03,.55-3.95,2.45-3.95,.81,0,1.47,.56,1.62,1.15h.03v-.95h1.12v7.03Zm-3.99-3.28c0,1.22,.18,2.75,1.36,2.75,1.27,0,1.53-1.2,1.53-2.75,0-1.46-.25-2.94-1.51-2.94-1.09,0-1.37,1.15-1.37,2.94Z"/></g><g><path class="g" d="M72.19,33.87h1.44v9.27h1.27v1.42h-1.27v3.55h-1.58v-3.55h-5.19v-1.46l5.32-9.23Zm-4.07,9.27h3.93v-6.8h-.04l-3.89,6.8Z"/><path class="g" d="M77.36,48.11v-1.9h1.73v1.9h-1.73Z"/><path class="g" d="M85.04,37.74h-3.04v-1.23c2.03-.04,3.15-.42,3.38-2.64h1.24v14.25h-1.58v-10.37Z"/></g><g><path class="d" d="M55.59,41.58c.02-1.4-.12-2.81-.43-4.17h-19.17v7.58h11.26c-.43,2.69-1.94,5.08-4.17,6.62l-.04,.25,6.06,4.7,.42,.04c3.85-3.56,6.08-8.8,6.08-15.02"/><path class="i" d="M35.99,61.54c5.51,0,10.14-1.82,13.52-4.95l-6.44-4.99c-2.09,1.4-4.57,2.11-7.08,2.04-5.29-.03-9.97-3.45-11.62-8.49l-.24,.02-6.3,4.87-.08,.23c3.45,6.91,10.51,11.27,18.24,11.26"/><path class="e" d="M24.37,45.16c-.44-1.3-.68-2.66-.68-4.04,0-1.37,.23-2.74,.66-4.04v-.27l-6.39-4.95-.21,.1c-2.9,5.77-2.9,12.56,0,18.33l6.62-5.12"/><path class="b" d="M35.99,28.61c2.93-.05,5.75,1.04,7.89,3.04l5.76-5.62c-3.7-3.47-8.59-5.37-13.66-5.31-7.72,0-14.78,4.35-18.24,11.26l6.6,5.12c1.66-5.03,6.35-8.46,11.65-8.49"/></g><path class="c" d="M218.36,1V81.26H1V1H218.36m1-1H0V82.26H219.36V0h0Z"/></svg>