<?xml version="1.0" encoding="utf-8"?>
<!-- Generator: Adobe Illustrator 26.1.0, SVG Export Plug-In . SVG Version: 6.00 Build 0)  -->
<svg version="1.1" id="Layer_1" xmlns="http://www.w3.org/2000/svg" xmlns:xlink="http://www.w3.org/1999/xlink" x="0px" y="0px"
	 viewBox="0 0 219.4 82.3" style="enable-background:new 0 0 219.4 82.3;" xml:space="preserve">
<style type="text/css">
	.st0{fill:#82838B;}
	.st1{fill:#D8D4D6;}
	.st2{fill:#FFC21A;}
	.st3{fill:#14151B;}
	.st4{fill:#3A7AF3;}
</style>
<g>
	<g>
		<path class="st0" d="M72.3,58.1h3.2c1.5,0,2.7,0.7,2.7,2.4c0,1.2-0.5,2-1.5,2.3v0c1.1,0.2,1.8,0.9,1.8,2.5c0,1.7-1.2,2.7-3.1,2.7
			h-3.2V58.1z M75.2,62.3c1,0,1.5-0.6,1.5-1.6c0-1.2-0.7-1.4-1.6-1.4h-1.1v3H75.2z M75.5,66.9c1,0,1.5-0.6,1.5-1.8
			c0-1.1-0.6-1.7-1.6-1.7h-1.5v3.5H75.5z"/>
		<path class="st0" d="M84.5,66.6c0,0.3,0.2,0.5,0.4,0.5c0.1,0,0.2,0,0.3,0v1c-0.2,0.1-0.4,0.2-0.7,0.2c-0.7,0-1.2-0.3-1.3-1h0
			c-0.4,0.7-1,1.1-1.9,1.1c-1.2,0-2-0.7-2-2.1c0-1.7,0.7-2,1.8-2.4l1.2-0.3c0.5-0.2,0.9-0.3,0.9-1c0-0.7-0.2-1.1-1-1.1
			c-1,0-1.1,0.7-1.1,1.4h-1.4c0-1.6,0.7-2.5,2.6-2.5c1.3,0,2.4,0.5,2.4,1.8V66.6z M83.1,64.1c-0.4,0.3-1.2,0.5-1.7,0.7
			c-0.4,0.2-0.6,0.7-0.6,1.2c0,0.6,0.3,1.1,0.9,1.1c0.9,0,1.4-0.7,1.4-1.8V64.1z"/>
		<path class="st0" d="M89.1,62.8v-0.2c0-0.6-0.2-1.2-1-1.2c-0.6,0-1.1,0.3-1.1,1c0,0.6,0.3,0.8,1.1,1.1l1,0.3
			c1.1,0.4,1.6,1,1.6,2.2c0,1.6-1.2,2.3-2.7,2.3c-1.9,0-2.5-0.9-2.5-2.3v-0.3h1.3v0.2c0,0.9,0.3,1.3,1.2,1.3c0.8,0,1.2-0.4,1.2-1.1
			c0-0.6-0.3-0.9-0.8-1.1l-1.2-0.4c-1.1-0.4-1.6-1-1.6-2.2c0-1.4,1-2.1,2.6-2.1c1.9,0,2.4,1.1,2.4,2.1v0.3H89.1z"/>
		<path class="st0" d="M92.8,64.6V65c0,1,0.1,2.3,1.3,2.3c1.1,0,1.2-1.2,1.2-1.7h1.4c0,1.7-1,2.7-2.6,2.7c-1.2,0-2.8-0.4-2.8-3.9
			c0-2,0.4-4.1,2.8-4.1c2.1,0,2.7,1.3,2.7,3.4v0.8H92.8z M95.3,63.5v-0.4c0-1-0.3-1.7-1.2-1.7c-1,0-1.3,1-1.3,1.9v0.2H95.3z"/>
		<path class="st0" d="M101.6,67.2L101.6,67.2c-0.2,0.5-0.6,1.1-1.7,1.1c-1.8,0-2.5-1.5-2.5-4.1c0-3.3,1.2-3.9,2.3-3.9
			c0.8,0,1.4,0.4,1.7,1.1h0v-3.3h1.5v10h-1.4V67.2z M100.3,61.6c-0.9,0-1.2,0.7-1.2,2.7c0,1.7,0.2,2.8,1.3,2.8c1,0,1.3-1.1,1.3-2.7
			C101.6,62.6,101.4,61.6,100.3,61.6z"/>
		<path class="st0" d="M110,60.4c2.2,0,2.8,1.6,2.8,4c0,2.3-0.7,4-2.8,4c-2.1,0-2.8-1.6-2.8-4C107.1,62,107.8,60.4,110,60.4z
			 M110,67.2c1.1,0,1.3-0.9,1.3-2.8c0-1.7-0.2-2.8-1.3-2.8c-1.1,0-1.3,1.2-1.3,2.8C108.7,66.3,108.9,67.2,110,67.2z"/>
		<path class="st0" d="M113.7,60.6h1.4v0.9h0c0.4-0.7,1.1-1.1,1.9-1.1c1.1,0,1.9,0.5,1.9,2v5.7h-1.5V63c0-1-0.3-1.4-1-1.4
			c-0.6,0-1.2,0.5-1.2,1.5v5.1h-1.5V60.6z"/>
		<path class="st0" d="M122.9,64.5l3.4-6.3h1.6v6.4h1.1v1.3H128v2.2h-1.5v-2.2h-3.5V64.5z M126.5,60.5L126.5,60.5l-2.3,4.1h2.3V60.5
			z"/>
		<path class="st0" d="M132,68.1v-7.2H130v-1h0.2c1,0,2.1-0.2,2.3-1.5v-0.2h1.2v9.9H132z"/>
		<path class="st0" d="M139.5,60.6h1.5v1.2h0c0.3-0.8,0.9-1.4,1.8-1.4c0.2,0,0.3,0,0.4,0.1V62c-0.1,0-0.4-0.1-0.6-0.1
			c-0.7,0-1.5,0.3-1.5,1.7v4.5h-1.5V60.6z"/>
		<path class="st0" d="M144.9,64.6V65c0,1,0.1,2.3,1.3,2.3c1.1,0,1.2-1.2,1.2-1.7h1.4c0,1.7-1,2.7-2.6,2.7c-1.2,0-2.8-0.4-2.8-3.9
			c0-2,0.4-4.1,2.8-4.1c2.1,0,2.7,1.3,2.7,3.4v0.8H144.9z M147.3,63.5v-0.4c0-1-0.3-1.7-1.2-1.7c-1,0-1.3,1-1.3,1.9v0.2H147.3z"/>
		<path class="st0" d="M149.2,60.6h1.6l1.3,5.9h0l1.2-5.9h1.6l-2,7.5h-1.8L149.2,60.6z"/>
		<path class="st0" d="M155.6,58h1.5v1.5h-1.5V58z M155.6,60.6h1.5v7.5h-1.5V60.6z"/>
		<path class="st0" d="M159.8,64.6V65c0,1,0.1,2.3,1.3,2.3c1.1,0,1.2-1.2,1.2-1.7h1.4c0,1.7-1,2.7-2.6,2.7c-1.2,0-2.8-0.4-2.8-3.9
			c0-2,0.4-4.1,2.8-4.1c2.1,0,2.7,1.3,2.7,3.4v0.8H159.8z M162.2,63.5v-0.4c0-1-0.3-1.7-1.2-1.7c-1,0-1.3,1-1.3,1.9v0.2H162.2z"/>
		<path class="st0" d="M164.2,60.6h1.6l1,5.9h0l1.1-5.9h1.7l1.1,5.9h0l1-5.9h1.5l-1.7,7.5H170l-1.2-5.9h0l-1.1,5.9h-1.8L164.2,60.6z
			"/>
		<path class="st0" d="M177.3,62.8v-0.2c0-0.6-0.2-1.2-1-1.2c-0.6,0-1.1,0.3-1.1,1c0,0.6,0.3,0.8,1.1,1.1l1,0.3
			c1.1,0.4,1.6,1,1.6,2.2c0,1.6-1.2,2.3-2.7,2.3c-1.9,0-2.5-0.9-2.5-2.3v-0.3h1.3v0.2c0,0.9,0.3,1.3,1.2,1.3c0.8,0,1.2-0.4,1.2-1.1
			c0-0.6-0.3-0.9-0.8-1.1l-1.2-0.4c-1.1-0.4-1.6-1-1.6-2.2c0-1.4,1-2.1,2.6-2.1c1.9,0,2.4,1.1,2.4,2.1v0.3H177.3z"/>
	</g>
	<path class="st1" d="M218.8,1.1v80.3H1.5V1.1H218.8 M219.8,0.1H0.5v82.3h219.4C219.8,82.3,219.8,0.1,219.8,0.1z"/>
	<path class="st2" d="M200.7,31.8l2,4.9c0.1,0.2,0.2,0.3,0.4,0.3l5.3,0.4c0.2,0,0.4,0.2,0.4,0.5c0,0.1-0.1,0.2-0.2,0.3l-4,3.4
		c-0.1,0.1-0.2,0.3-0.1,0.5l1.2,5.1c0.1,0.2-0.1,0.5-0.3,0.5c-0.1,0-0.2,0-0.3-0.1l-4.5-2.8c-0.1-0.1-0.3-0.1-0.5,0l-4.5,2.8
		c-0.2,0.1-0.5,0.1-0.6-0.2c-0.1-0.1-0.1-0.2-0.1-0.3l1.2-5.2c0-0.2,0-0.3-0.1-0.5l-4-3.4c-0.2-0.2-0.2-0.4-0.1-0.6
		c0.1-0.1,0.2-0.2,0.3-0.2l5.3-0.4c0.2,0,0.3-0.1,0.4-0.3l2-4.9c0.1-0.2,0.4-0.3,0.6-0.2C200.6,31.7,200.6,31.7,200.7,31.8z"/>
	<path class="st2" d="M112.5,31.8l2,4.9c0.1,0.2,0.2,0.3,0.4,0.3l5.3,0.4c0.2,0,0.4,0.2,0.4,0.5c0,0.1-0.1,0.2-0.2,0.3l-4,3.4
		c-0.1,0.1-0.2,0.3-0.1,0.5l1.2,5.1c0.1,0.2-0.1,0.5-0.3,0.5c-0.1,0-0.2,0-0.3-0.1l-4.5-2.8c-0.1-0.1-0.3-0.1-0.5,0l-4.5,2.8
		c-0.2,0.1-0.5,0.1-0.6-0.1c-0.1-0.1-0.1-0.2-0.1-0.3L108,42c0-0.2,0-0.3-0.1-0.5l-4-3.4c-0.2-0.2-0.2-0.4-0.1-0.6
		c0.1-0.1,0.2-0.2,0.3-0.2l5.3-0.4c0.2,0,0.3-0.1,0.4-0.3l2-4.9c0.1-0.2,0.4-0.3,0.6-0.1C112.4,31.7,112.5,31.8,112.5,31.8z"/>
	<path class="st2" d="M134.6,31.8l2,4.9c0.1,0.2,0.2,0.3,0.4,0.3l5.3,0.4c0.2,0,0.4,0.2,0.4,0.5c0,0.1-0.1,0.2-0.2,0.3l-4,3.4
		c-0.1,0.1-0.2,0.3-0.1,0.5l1.2,5.1c0.1,0.2-0.1,0.5-0.3,0.5c-0.1,0-0.2,0-0.3-0.1l-4.5-2.8c-0.1-0.1-0.3-0.1-0.5,0l-4.5,2.8
		c-0.2,0.1-0.5,0.1-0.6-0.2c-0.1-0.1-0.1-0.2-0.1-0.3L130,42c0-0.2,0-0.3-0.1-0.5l-4-3.4c-0.2-0.2-0.2-0.4-0.1-0.6
		c0.1-0.1,0.2-0.2,0.3-0.2l5.3-0.4c0.2,0,0.3-0.1,0.4-0.3l2-4.9c0.1-0.2,0.4-0.3,0.6-0.2C134.5,31.6,134.5,31.7,134.6,31.8z"/>
	<path class="st2" d="M156.6,31.8l2,4.9c0.1,0.2,0.2,0.3,0.4,0.3l5.3,0.4c0.2,0,0.4,0.2,0.4,0.5c0,0.1-0.1,0.2-0.2,0.3l-4,3.4
		c-0.1,0.1-0.2,0.3-0.1,0.5l1.2,5.1c0.1,0.2-0.1,0.5-0.3,0.5c-0.1,0-0.2,0-0.3-0.1l-4.5-2.8c-0.1-0.1-0.3-0.1-0.5,0l-4.5,2.8
		c-0.2,0.1-0.5,0.1-0.6-0.1c-0.1-0.1-0.1-0.2-0.1-0.3l1.2-5.2c0-0.2,0-0.3-0.1-0.5l-4-3.4c-0.2-0.2-0.2-0.4-0.1-0.6
		c0.1-0.1,0.2-0.2,0.3-0.2l5.3-0.4c0.2,0,0.3-0.1,0.4-0.3l2-4.9c0.1-0.2,0.4-0.3,0.6-0.2C156.5,31.7,156.6,31.7,156.6,31.8z"/>
	<path class="st2" d="M178.6,31.8l2,4.9c0.1,0.2,0.2,0.3,0.4,0.3l5.3,0.4c0.2,0,0.4,0.2,0.4,0.5c0,0.1-0.1,0.2-0.2,0.3l-4,3.4
		c-0.1,0.1-0.2,0.3-0.1,0.5l1.2,5.1c0.1,0.2-0.1,0.5-0.3,0.5c-0.1,0-0.2,0-0.3-0.1l-4.5-2.8c-0.1-0.1-0.3-0.1-0.5,0l-4.5,2.8
		c-0.2,0.1-0.5,0.1-0.6-0.1c-0.1-0.1-0.1-0.2-0.1-0.3l1.3-5.2c0-0.2,0-0.3-0.1-0.5l-4-3.4c-0.2-0.2-0.2-0.4-0.1-0.6
		c0.1-0.1,0.2-0.2,0.3-0.2l5.3-0.4c0.2,0,0.3-0.1,0.4-0.3l2-4.9c0.1-0.2,0.4-0.3,0.6-0.2C178.5,31.7,178.6,31.7,178.6,31.8z"/>
	<path class="st3" d="M76.3,15.8c-0.1-1.1-0.4-2-1.7-2c-1.7,0-1.9,1.9-1.9,4.2s0.2,4.2,1.9,4.2s1.8-2,1.8-3.4h-2v-1h3.1V23h-0.9
		v-1.3l0,0c-0.3,0.9-1.2,1.6-2.2,1.5c-2.6,0-3.1-2.5-3.1-5.2c0-2.5,0.5-5.2,3.2-5.2c1.5-0.1,2.9,1,3,2.5c0,0.2,0,0.3,0,0.5
		L76.3,15.8z"/>
	<path class="st3" d="M81.3,15.3c2.2,0,2.7,1.8,2.7,4s-0.6,4-2.7,4s-2.7-1.8-2.7-4S79.2,15.3,81.3,15.3z M82.8,19.3
		c0-1.6-0.2-3-1.5-3s-1.4,1.4-1.4,3s0.2,3,1.4,3S82.8,20.9,82.8,19.3L82.8,19.3z"/>
	<path class="st3" d="M87.5,15.3c2.2,0,2.7,1.8,2.7,4s-0.5,4-2.7,4s-2.7-1.8-2.7-4S85.4,15.3,87.5,15.3z M89,19.3c0-1.6-0.2-3-1.5-3
		s-1.4,1.4-1.4,3s0.2,3,1.4,3S89,20.9,89,19.3L89,19.3z"/>
	<path class="st3" d="M96.4,23h-1.1v-0.9l0,0c-0.2,0.7-0.9,1.1-1.6,1.1c-1.8,0-2.4-1.6-2.4-4c0-1.6,0.2-4,2.4-4c0.7,0,1.3,0.4,1.7,1
		l0,0V13h1.2V23z M93.7,22.2c1.3,0,1.5-1.2,1.5-2.9c0-1.5-0.2-2.9-1.5-2.9c-1.1,0-1.4,1.1-1.4,2.9S92.7,22.2,93.7,22.2L93.7,22.2z"
		/>
	<path class="st3" d="M97.9,13h5.2v1.1h-3.9v3.1h3.7v1.1h-3.7V23h-1.2V13z"/>
	<path class="st3" d="M103.9,13h1.2v1.4h-1.2V13z M103.9,15.5h1.2V23h-1.2V15.5z"/>
	<path class="st3" d="M106.7,15.5h1.2v1.1l0,0c0.3-0.7,0.8-1.3,1.6-1.3c0.2,0,0.4,0,0.5,0.1v1.1c-0.2,0-0.4,0-0.6,0
		c-0.9,0.1-1.6,0.9-1.5,1.8c0,0,0,0,0,0V23h-1.2L106.7,15.5z"/>
	<path class="st3" d="M111,15.5h1.1v0.9l0,0c0.4-0.7,1.1-1.1,1.8-1.1c0.8-0.1,1.5,0.4,1.6,1.2c0.3-0.7,1-1.2,1.8-1.2
		c2,0,2,1.5,2,2.4V23h-1.2v-5.1c0-0.6-0.1-1.5-1-1.5c-0.8,0-1.4,0.6-1.4,1.4c0,0.1,0,0.1,0,0.2V23h-1.2v-5.1c0-0.6,0-1.5-1-1.5
		c-0.8,0-1.4,0.6-1.4,1.4c0,0.1,0,0.1,0,0.2V23H111V15.5z"/>
	<path class="st3" d="M124.2,17.7c0-1-0.2-1.5-1.1-1.5c-0.6-0.1-1.1,0.3-1.2,0.9c0,0.1,0,0.1,0,0.2c0,0.9,0.9,1,1.8,1.4
		s1.8,0.6,1.8,2.1c0.1,1.2-0.8,2.3-2,2.4c-0.1,0-0.3,0-0.4,0c-1.3,0.2-2.4-0.7-2.6-2c0-0.2,0-0.4,0-0.7h1.2c0,0.9,0.2,1.7,1.4,1.7
		c0.7,0,1.2-0.5,1.2-1.1c0,0,0-0.1,0-0.1c0-1-0.9-1.2-1.8-1.5s-1.8-0.6-1.8-2.1c0-1.4,1.1-2.1,2.4-2.1c2.2,0,2.3,1.5,2.3,2.4
		L124.2,17.7z"/>
	<path class="st3" d="M130.1,13h3.2c1.3-0.1,2.4,0.8,2.6,2.1c0,0.1,0,0.3,0,0.4c0.2,1.1-0.5,2.2-1.5,2.5l0,0
		c0.8,0.1,1.4,0.8,1.4,1.7l0.1,1.7c0,1.1,0.2,1.4,0.5,1.6h-1.5c-0.2-0.4-0.3-0.9-0.3-1.5l-0.1-1.5c-0.1-1.4-0.9-1.5-1.5-1.5h-1.7V23
		h-1.2V13z M131.3,17.5h1.2c0.7,0,2.1,0,2.1-1.9c0-1-0.7-1.6-1.8-1.6h-1.5V17.5z"/>
	<path class="st3" d="M137.1,17.8c0-1.7,0.7-2.5,2.5-2.5c2.3,0,2.3,1.4,2.3,2.2v4.2c0,0.3,0,0.6,0.4,0.6c0.1,0,0.2,0,0.3-0.1v0.8
		c-0.2,0-0.5,0.1-0.7,0.1c-0.4,0-1,0-1.1-1l0,0c-0.4,0.7-1.1,1.1-1.8,1.1c-1,0.1-2-0.7-2-1.8c0-0.1,0-0.3,0-0.4
		c-0.1-0.9,0.5-1.7,1.3-2l1.6-0.5c0.9-0.3,0.9-0.5,0.9-1.1s-0.4-1.1-1.2-1.1c-0.7,0-1.3,0.5-1.3,1.3c0,0.1,0,0.1,0,0.2v0.1
		L137.1,17.8z M140.7,19c-0.4,0.5-1.5,0.6-2,0.9c-0.4,0.2-0.6,0.7-0.6,1.2c0,0.8,0.3,1.3,1.1,1.3c0.8,0,1.5-0.6,1.5-1.4V19z"/>
	<path class="st3" d="M144,13.3h1.2v2.2h1.3v0.9h-1.3v4.8c0,0.6,0.1,0.8,0.8,0.8c0.2,0,0.3,0,0.5,0v1c-0.3,0.1-0.7,0.1-1,0.1
		c-1.2,0-1.5-0.5-1.5-1.5v-5.2h-1.1v-0.9h1.1V13.3z"/>
	<path class="st3" d="M147.4,13h1.2v1.4h-1.2V13z M147.4,15.5h1.2V23h-1.2V15.5z"/>
	<path class="st3" d="M150.1,15.5h1.1v0.9l0,0c0.4-0.7,1.1-1.1,1.8-1.1c2,0,2,1.5,2,2.4V23h-1.2v-5.1c0-0.6,0-1.5-1.1-1.5
		c-0.8,0-1.5,0.6-1.5,1.4c0,0,0,0.1,0,0.1V23h-1.2V15.5z"/>
	<path class="st3" d="M161.6,22.6c0,2.2-1,3-2.6,3c-1.2,0.2-2.3-0.7-2.5-1.8c0,0,0,0,0,0h1.2c0,0.6,0.5,1,1.1,1c0,0,0.1,0,0.1,0
		c1.5,0,1.5-1.2,1.5-1.7V22l0,0c-0.3,0.6-1,1-1.7,1c-2.2,0-2.3-2.8-2.3-3.8c0-2,0.6-4,2.4-4c0.7,0,1.4,0.5,1.6,1.1l0,0v-1h1.1
		L161.6,22.6z M157.6,19.3c0,1.2,0.2,2.8,1.4,2.8s1.5-1.2,1.5-2.8s-0.2-2.9-1.5-2.9C157.9,16.3,157.6,17.5,157.6,19.3L157.6,19.3z"
		/>
	<path class="st2" d="M73.2,44.5C73.1,46,73.6,47,75.3,47s2.3-1.7,2.3-3.4s-0.4-3.3-2.4-3.3c-0.9-0.1-1.7,0.5-2,1.3h-1.4l0.8-7.3
		h6.1v1.4h-4.8l-0.6,4.2l0,0c0.6-0.7,1.4-1,2.3-1c2.6,0,3.6,2.2,3.6,4.5c0,2.5-0.9,5.1-3.9,5.1c-2.5,0-3.9-1.5-3.8-4L73.2,44.5z"/>
	<path class="st2" d="M81.7,48.2v-1.9h1.7v1.9H81.7z"/>
	<path class="st2" d="M85.8,41.2c0-2.7,0.2-7.2,3.9-7.2c4,0,3.9,4.5,3.9,7.2c0,3.2-0.2,7.3-3.9,7.3S85.8,43.7,85.8,41.2z M89.7,47
		c2.4,0,2.3-3.3,2.3-6.1c0-2,0.2-5.4-2.3-5.6s-2.2,4.2-2.2,5.6C87.4,43.7,87.1,47,89.7,47z"/>
	<path class="st4" d="M35.3,36.2c0,0-1.8-0.2-1.8,1.5V45h12.2v2.2c0,0.6-0.4,1.1-1,1.1c0,0-0.1,0-0.1,0H33.5v9.5h13.3
		c0,0,8.1-1.2,8.2-9.5V36.2H35.3z"/>
	<path class="st4" d="M54.6,24.5H30.5c-8.7,2-8.9,9.2-8.9,9.2v24.2h9.3v-22c0-1.1,0.8-2,1.8-2.2h21.9V24.5z"/>
</g>
</svg>
